<svg xmlns="http://www.w3.org/2000/svg" width="350.719" height="327.443" viewBox="0 0 350.719 327.443">
  <g id="_7070628_3275432" data-name="7070628_3275432" transform="translate(-14.41 -38.019)">
    <g id="Floor" transform="translate(14.41 162.975)">
      <ellipse id="Floor_1_" cx="175.359" cy="101.244" rx="175.359" ry="101.244" fill="#f0f0f0"/>
    </g>
    <g id="Shadow" transform="translate(93.01 271.118)">
      <ellipse id="Shadow_2_" cx="60.471" cy="34.913" rx="60.471" ry="34.913" fill="#e0e0e0"/>
    </g>
    <g id="Plants_1_" transform="translate(30.917 190.179)">
      <g id="Plants_11_" transform="translate(286.459 8.699)">
        <g id="XMLID_597_">
          <path id="XMLID_603_" d="M429.5,317.6l-7.091-4.094s-1.737-15.186-.581-26.947c1.623-16.526,12.3-36.411,25.029-31.741s-5.838,21.5-9.971,35.518S429.5,317.6,429.5,317.6Z" transform="translate(-421.436 -254.128)" fill="#27debf"/>
          <path id="XMLID_600_" d="M429.5,317.6l-7.091-4.094s-1.737-15.186-.581-26.947c1.623-16.526,12.3-36.411,25.029-31.741s-5.838,21.5-9.971,35.518S429.5,317.6,429.5,317.6Z" transform="translate(-421.436 -254.128)" fill="#096b66" opacity="0.79"/>
          <path id="XMLID_598_" d="M427.1,317.664h.015a.429.429,0,0,0,.415-.444c-1.245-36.721,17.034-55.192,17.219-55.374a.429.429,0,0,0-.6-.611c-.188.185-18.732,18.922-17.475,56.015A.429.429,0,0,0,427.1,317.664Z" transform="translate(-422.758 -255.913)" fill="#fff"/>
        </g>
        <g id="XMLID_594_" transform="translate(7.426 21.535)">
          <path id="XMLID_596_" d="M436.513,327.551l-5.046-2.913a55.666,55.666,0,0,1,4.251-23.08c4.447-11.021,15.484-20.163,21.034-18.242s5.413,5.857,2.706,9.986S440.289,307.272,436.513,327.551Z" transform="translate(-431.413 -283.059)" fill="#096b66"/>
          <path id="XMLID_595_" d="M434.542,327.511h0a.429.429,0,0,0,.427-.431c-.1-23.217,21.7-38.91,21.921-39.065a.429.429,0,1,0-.5-.7c-.223.158-22.385,16.111-22.283,39.77A.429.429,0,0,0,434.542,327.511Z" transform="translate(-432.103 -284.127)" fill="#fff"/>
        </g>
      </g>
      <g id="Plants_8_">
        <g id="XMLID_493_" transform="translate(11.289)">
          <g id="XMLID_553_">
            <path id="XMLID_592_" d="M72.525,305.49l6.547-4.418s2.882-17.154.2-32.222c-3.765-21.185-18.375-28.234-23.588-26.021s-6.328,8.532,3.4,20.627C64.827,270.592,72.324,285.767,72.525,305.49Z" transform="translate(-51.753 -242.441)" fill="#27debf"/>
          </g>
          <g id="XMLID_496_" opacity="0.15">
            <path id="XMLID_497_" d="M72.525,305.49l6.547-4.418s2.882-17.154.2-32.222c-3.765-21.185-18.375-28.234-23.588-26.021s-6.328,8.532,3.4,20.627C64.827,270.592,72.324,285.767,72.525,305.49Z" transform="translate(-51.753 -242.441)"/>
          </g>
          <g id="XMLID_494_" transform="translate(7.177 3.016)">
            <path id="XMLID_495_" d="M77.239,298.041a.47.47,0,0,1-.065,0,.475.475,0,0,1-.415-.527c2.365-19.947-6.056-41.588-15.214-50.2a.474.474,0,0,1,.651-.691c9.325,8.768,17.907,30.76,15.506,51A.476.476,0,0,1,77.239,298.041Z" transform="translate(-61.394 -246.492)" fill="#fff"/>
          </g>
        </g>
        <g id="XMLID_259_" transform="translate(0 18.027)">
          <g id="XMLID_488_">
            <path id="XMLID_490_" d="M51.5,323.251c-1.039.624-4.077-1.629-4.917-2.17a10.032,10.032,0,0,1-3.41-3.765,9.4,9.4,0,0,1-.945-5.629,22.288,22.288,0,0,1,.656-3.015l.782-2.93a7.384,7.384,0,0,0,.371-2.947c-.293-1.988-2.089-3.35-3.721-4.523-1.8-1.3-3.69-3.019-3.726-5.419a8.443,8.443,0,0,1,2.016-5.064c1.119-1.475,2.456-2.785,3.463-4.339A5.891,5.891,0,0,0,43.2,279.7a6.149,6.149,0,0,0-.857-2.313,33.031,33.031,0,0,1-2.639-4.622c-.617-1.667-.574-3.756.713-4.982a5.5,5.5,0,0,1,4.108-1.107,9.481,9.481,0,0,1,3.865,1.277c3.85,2.044,6.111,6.513,10.184,8.065a40.534,40.534,0,0,0,4.915,1.1,6.039,6.039,0,0,1,4.088,2.685c1.541,2.935-1.142,6.64-.038,9.766.977,2.766,3.7,3.779,5.27,6.258a5.951,5.951,0,0,1,.781,3.631,17.492,17.492,0,0,1-1.417,6.188,54.837,54.837,0,0,1-3.254,5.857S51.657,323.155,51.5,323.251Z" transform="translate(-36.587 -266.659)" fill="#096b66"/>
          </g>
          <g id="XMLID_420_" transform="translate(8.911 3.733)">
            <path id="XMLID_486_" d="M64.621,318.361h-.013a.476.476,0,0,1-.47-.485c.42-18.844-8.853-39.461-15.422-45.376a.474.474,0,0,1,.635-.7c6.7,6.034,16.161,26.992,15.736,46.1A.476.476,0,0,1,64.621,318.361Z" transform="translate(-48.559 -271.674)" fill="#fff"/>
          </g>
          <g id="XMLID_398_" transform="translate(7.19 24.555)">
            <path id="XMLID_418_" d="M60.558,302.555a.454.454,0,0,1-.14-.019A63.736,63.736,0,0,0,46.711,300.6a.476.476,0,0,1-.464-.485.461.461,0,0,1,.485-.464,64.786,64.786,0,0,1,13.949,1.977.475.475,0,0,1-.123.93Z" transform="translate(-46.247 -299.648)" fill="#fff"/>
          </g>
        </g>
      </g>
    </g>
    <g id="Speech_Bubble" transform="translate(204.473 70.156)">
      <g id="Speach_Bubble_1_">
        <g id="XMLID_557_" transform="translate(-14 22)">
          <path id="XMLID_2921_" d="M299.636,251.315l-2.824-1.632a3.565,3.565,0,0,1-1.611-2.792V129.644a3.561,3.561,0,0,1,1.612-2.791l78.413-45.271a3.563,3.563,0,0,1,3.223,0l2.825,1.63A3.561,3.561,0,0,1,382.883,86V203.249a3.561,3.561,0,0,1-1.612,2.791l-78.414,45.275A3.56,3.56,0,0,1,299.636,251.315Z" transform="translate(-276.259 -81.195)" fill="#455a64"/>
          <path id="XMLID_2933_" d="M383.032,85.741c-.112-.834-.789-1.139-1.6-.67l-78.409,45.278a3.336,3.336,0,0,0-1.139,1.2l-6.052-3.491a3.3,3.3,0,0,1,1.139-1.206L375.387,81.58a3.563,3.563,0,0,1,3.223,0l2.821,1.63A3.6,3.6,0,0,1,383.032,85.741Z" transform="translate(-276.421 -81.195)" fill="#455a64"/>
          <path id="XMLID_2932_" d="M302.586,267.539a3.6,3.6,0,0,1-2.948-.127l-2.828-1.638a3.57,3.57,0,0,1-1.608-2.791V145.737a3.3,3.3,0,0,1,.469-1.585l6.052,3.491a3.256,3.256,0,0,0-.476,1.593V266.482C301.246,267.405,301.827,267.83,302.586,267.539Z" transform="translate(-276.26 -97.29)" fill="#263238"/>
          <path id="XMLID_560_" d="M303.323,134.395V251.641c0,1.028.721,1.444,1.612.93L383.349,207.3a3.561,3.561,0,0,0,1.612-2.791V87.258c0-1.028-.721-1.444-1.612-.93L304.935,131.6A3.563,3.563,0,0,0,303.323,134.395Z" transform="translate(-278.336 -82.451)" fill="#37474f"/>
          <path id="XMLID_2955_" d="M276.429,202.227c-1.012-.6-5.709-3.275-5.955-3.417a1.5,1.5,0,0,1-.32-2.3L288.7,176.622l6.044,3.469-18.534,19.9A1.5,1.5,0,0,0,276.429,202.227Z" transform="translate(-269.754 -105.591)" fill="#455a64"/>
          <path id="XMLID_2927_" d="M296.818,181.286,278.28,201.177a1.491,1.491,0,0,0,1.213,2.5l17.325-1.427Z" transform="translate(-271.83 -106.784)" fill="#37474f"/>
        </g>
        <g id="XMLID_492_" transform="translate(49.258 36.451)">
          <path id="XMLID_3091_" d="M352.477,132.426c9.139-5.277,16.547-1,16.547,9.554s-7.408,23.384-16.547,28.661-16.547,1-16.547-9.554S343.339,137.7,352.477,132.426Z" transform="translate(-335.93 -130.166)" fill="#096b66"/>
          <path id="XMLID_3076_" d="M356.161,144.107c2.965-1.712,5.369-.325,5.369,3.1a11.864,11.864,0,0,1-5.369,9.3c-2.965,1.711-5.368.325-5.368-3.1A11.865,11.865,0,0,1,356.161,144.107Z" transform="translate(-339.73 -133.542)" fill="#fff"/>
          <path id="XMLID_3075_" d="M365.115,166.721c0-5.625-3.949-7.9-8.82-5.092l-3.045,1.758c-4.87,2.812-8.82,9.652-8.82,15.276V180.2a9.072,9.072,0,0,0,2.843.438,14.931,14.931,0,0,0,7.378-2.26,32.6,32.6,0,0,0,10.463-10.35Z" transform="translate(-338.103 -137.901)" fill="#fff"/>
        </g>
        <path id="XMLID_3178_" d="M343.526,250.5l20.965-12.1c.89-.514,1.612-.1,1.612.93v6.752a3.561,3.561,0,0,1-1.612,2.791l-20.965,12.1c-.89.514-1.612.1-1.612-.93v-6.752A3.561,3.561,0,0,1,343.526,250.5Z" transform="translate(-288.202 -121.327)" fill="#27debf"/>
        <path id="Path_763" data-name="Path 763" d="M329.63,226.149,371.116,202.2c1.068-.616,1.934-.117,1.934,1.117v2.513a4.274,4.274,0,0,1-1.934,3.35l-41.485,23.951c-1.068.616-1.934.117-1.934-1.117V229.5A4.273,4.273,0,0,1,329.63,226.149Z" transform="translate(-284.567 -112.062)" fill="#fafafa"/>
        <g id="Group_2598" data-name="Group 2598" transform="translate(47.848 75.862)">
          <path id="Path_764" data-name="Path 764" d="M336.1,211.079q.846-.489,1.316-.145t.469,1.529a4.421,4.421,0,0,1-.469,2.081,3.362,3.362,0,0,1-1.316,1.385l-1.12.646v2.4a.548.548,0,0,1-.056.237.349.349,0,0,1-.134.163l-.566.327a.1.1,0,0,1-.134-.009.232.232,0,0,1-.056-.173v-6.963a.554.554,0,0,1,.056-.237.357.357,0,0,1,.134-.163Zm-1.12,4.149,1.085-.627a1.8,1.8,0,0,0,.637-.61,1.824,1.824,0,0,0,.237-.983q0-.6-.237-.7a.763.763,0,0,0-.637.137l-1.085.626Z" transform="translate(-334.036 -190.189)" fill="#fafafa"/>
          <path id="Path_765" data-name="Path 765" d="M342.457,207.359c.074-.043.131-.045.168-.006a.515.515,0,0,1,.1.219l1.716,5.822a.315.315,0,0,1,.007.071.551.551,0,0,1-.056.237.347.347,0,0,1-.133.163l-.5.291c-.093.054-.159.061-.2.022a.317.317,0,0,1-.077-.134l-.3-1.022-2.212,1.278-.3,1.37a1.184,1.184,0,0,1-.077.223.459.459,0,0,1-.2.2l-.5.291a.1.1,0,0,1-.133-.01.226.226,0,0,1-.056-.171.381.381,0,0,1,.007-.08l1.715-7.8a1.556,1.556,0,0,1,.1-.331.4.4,0,0,1,.168-.188Zm.385,4.51-.77-2.627-.77,3.516Z" transform="translate(-335.484 -189.303)" fill="#fafafa"/>
          <path id="Path_766" data-name="Path 766" d="M348.893,203.567a1.829,1.829,0,0,1,.825-.282,1.01,1.01,0,0,1,.6.141.964.964,0,0,1,.36.433,1.646,1.646,0,0,1,.137.584.471.471,0,0,1-.052.24.385.385,0,0,1-.137.159l-.491.283c-.079.047-.138.057-.178.033a.312.312,0,0,1-.109-.125.553.553,0,0,0-.318-.286.838.838,0,0,0-.634.167,1.953,1.953,0,0,0-.633.6,1.7,1.7,0,0,0-.193.386,1.237,1.237,0,0,0-.07.407.767.767,0,0,0,.066.366.285.285,0,0,0,.224.14,1.267,1.267,0,0,0,.417-.031c.173-.035.388-.083.644-.145a2.623,2.623,0,0,1,.725-.089.836.836,0,0,1,.5.165.909.909,0,0,1,.287.444,2.4,2.4,0,0,1,.095.732,3.607,3.607,0,0,1-.14.981,4.108,4.108,0,0,1-.4.942,4.333,4.333,0,0,1-.638.837,3.857,3.857,0,0,1-.847.662,2.254,2.254,0,0,1-.749.287,1.126,1.126,0,0,1-.633-.054.926.926,0,0,1-.446-.406,1.665,1.665,0,0,1-.188-.753.464.464,0,0,1,.052-.24.379.379,0,0,1,.136-.159l.491-.283a.21.21,0,0,1,.182-.041.231.231,0,0,1,.106.132A1.16,1.16,0,0,0,348,210a.361.361,0,0,0,.188.138.622.622,0,0,0,.3.007,1.478,1.478,0,0,0,.444-.188,2.828,2.828,0,0,0,.406-.283,2.061,2.061,0,0,0,.343-.36,1.96,1.96,0,0,0,.237-.418,1.218,1.218,0,0,0,.091-.468.453.453,0,0,0-.1-.33.391.391,0,0,0-.3-.086,2.482,2.482,0,0,0-.493.08c-.2.048-.422.1-.679.144a2.068,2.068,0,0,1-.613.047.719.719,0,0,1-.434-.186.973.973,0,0,1-.255-.461,3.029,3.029,0,0,1-.083-.788,3.54,3.54,0,0,1,.14-.974,4.161,4.161,0,0,1,.386-.923,4.079,4.079,0,0,1,.584-.795A3.176,3.176,0,0,1,348.893,203.567Z" transform="translate(-337.327 -188.269)" fill="#fafafa"/>
          <path id="Path_767" data-name="Path 767" d="M355.457,199.778a1.843,1.843,0,0,1,.825-.283,1.018,1.018,0,0,1,.6.141.967.967,0,0,1,.359.433,1.639,1.639,0,0,1,.137.584.46.46,0,0,1-.052.24.376.376,0,0,1-.137.159l-.491.284c-.08.046-.138.057-.178.033a.319.319,0,0,1-.108-.126.561.561,0,0,0-.319-.286.839.839,0,0,0-.634.167,1.974,1.974,0,0,0-.633.6,1.7,1.7,0,0,0-.193.386,1.231,1.231,0,0,0-.07.407.764.764,0,0,0,.066.365.283.283,0,0,0,.224.141,1.286,1.286,0,0,0,.417-.031c.173-.035.388-.083.644-.145a2.658,2.658,0,0,1,.725-.089.835.835,0,0,1,.5.165.907.907,0,0,1,.287.444,2.4,2.4,0,0,1,.095.732,3.615,3.615,0,0,1-.14.981,4.09,4.09,0,0,1-.4.941,4.3,4.3,0,0,1-.637.837,3.845,3.845,0,0,1-.846.661,2.282,2.282,0,0,1-.75.287,1.127,1.127,0,0,1-.633-.054.914.914,0,0,1-.445-.406,1.657,1.657,0,0,1-.189-.753.459.459,0,0,1,.053-.24.363.363,0,0,1,.136-.16l.49-.283c.079-.046.14-.06.182-.04a.224.224,0,0,1,.106.132,1.259,1.259,0,0,0,.119.212.372.372,0,0,0,.189.138.619.619,0,0,0,.3.007,1.5,1.5,0,0,0,.445-.187,2.83,2.83,0,0,0,.406-.284,2.029,2.029,0,0,0,.343-.359,1.978,1.978,0,0,0,.238-.418,1.211,1.211,0,0,0,.09-.467.454.454,0,0,0-.1-.331.394.394,0,0,0-.3-.086,2.548,2.548,0,0,0-.493.08q-.294.073-.679.144a2.091,2.091,0,0,1-.613.047.721.721,0,0,1-.433-.186.966.966,0,0,1-.256-.462,3.023,3.023,0,0,1-.083-.787,3.549,3.549,0,0,1,.14-.975,4.176,4.176,0,0,1,.386-.923,4.1,4.1,0,0,1,.584-.795A3.141,3.141,0,0,1,355.457,199.778Z" transform="translate(-339.006 -187.301)" fill="#fafafa"/>
          <path id="Path_768" data-name="Path 768" d="M362.547,199.29l-.6,3.57a1.745,1.745,0,0,1-.088.314.369.369,0,0,1-.157.194l-.568.328c-.07.04-.125.039-.164-.008a.408.408,0,0,1-.08-.217l-.9-6.283a.65.65,0,0,1-.007-.082.554.554,0,0,1,.056-.237.347.347,0,0,1,.133-.163l.517-.3a.145.145,0,0,1,.134-.012c.042.019.07.077.083.178l.588,4.23.518-3.177a1.47,1.47,0,0,1,.067-.233.4.4,0,0,1,.178-.222l.574-.331q.126-.073.179.016a.531.531,0,0,1,.066.155l.518,2.579.588-4.909a.677.677,0,0,1,.084-.275.394.394,0,0,1,.133-.141l.517-.3a.1.1,0,0,1,.133.01.23.23,0,0,1,.056.172.825.825,0,0,1-.007.089l-.9,7.318a1.167,1.167,0,0,1-.08.31.41.41,0,0,1-.165.2l-.567.327c-.071.041-.123.037-.158-.011a.633.633,0,0,1-.088-.214Z" transform="translate(-340.67 -185.882)" fill="#fafafa"/>
          <path id="Path_769" data-name="Path 769" d="M368.105,195.377a7.113,7.113,0,0,1,.15-1.224,5.282,5.282,0,0,1,.382-1.147,4.5,4.5,0,0,1,.63-.988,3.356,3.356,0,0,1,.9-.75,1.764,1.764,0,0,1,.888-.287.884.884,0,0,1,.63.262,1.642,1.642,0,0,1,.385.7,4.284,4.284,0,0,1,.155,1.053q.007.2.01.447t0,.51q0,.265,0,.514c0,.167-.006.32-.01.459a7.164,7.164,0,0,1-.15,1.224,5.282,5.282,0,0,1-.382,1.147,4.377,4.377,0,0,1-.633.986,3.422,3.422,0,0,1-.892.741,1.8,1.8,0,0,1-.9.292.891.891,0,0,1-.63-.257,1.555,1.555,0,0,1-.382-.706,4.464,4.464,0,0,1-.15-1.05c0-.134-.009-.282-.01-.447s0-.333,0-.509,0-.348,0-.514S368.1,195.516,368.105,195.377Zm3.172-1.777a1.383,1.383,0,0,0-.326-1.014c-.2-.169-.461-.16-.788.029a2.02,2.02,0,0,0-.788.881,3.339,3.339,0,0,0-.326,1.389q-.014.418-.015.919c0,.334.005.634.015.9a1.356,1.356,0,0,0,.326,1.008c.2.166.461.154.788-.034a2.021,2.021,0,0,0,.788-.875,3.319,3.319,0,0,0,.326-1.384q.015-.418.014-.919C371.291,194.168,371.286,193.868,371.277,193.6Z" transform="translate(-342.742 -185.124)" fill="#fafafa"/>
          <path id="Path_770" data-name="Path 770" d="M377.346,187.278q.874-.5,1.329-.142a1.838,1.838,0,0,1,.455,1.473,4.563,4.563,0,0,1-.234,1.477,3.713,3.713,0,0,1-.69,1.223l.966,2.1a.283.283,0,0,1,.021.107.455.455,0,0,1-.046.194.289.289,0,0,1-.109.132l-.6.343c-.093.054-.162.06-.206.017a.393.393,0,0,1-.095-.134l-.916-1.983-.931.538v2.511a.545.545,0,0,1-.056.236.361.361,0,0,1-.133.165l-.567.327a.1.1,0,0,1-.133-.01.225.225,0,0,1-.056-.171v-6.963a.535.535,0,0,1,.056-.237.36.36,0,0,1,.133-.164Zm-1.05,4,1.015-.586a1.891,1.891,0,0,0,.637-.584,1.687,1.687,0,0,0,.237-.956c0-.4-.08-.626-.237-.671a.876.876,0,0,0-.637.164l-1.015.586Z" transform="translate(-344.598 -184.102)" fill="#fafafa"/>
          <path id="Path_771" data-name="Path 771" d="M384.041,183.423a1.985,1.985,0,0,1,.9-.31.863.863,0,0,1,.638.231,1.545,1.545,0,0,1,.392.711,4.9,4.9,0,0,1,.164,1.134q.028.78,0,1.6a7.682,7.682,0,0,1-.164,1.323,5.413,5.413,0,0,1-.389,1.163,4.113,4.113,0,0,1-.627.959,3.441,3.441,0,0,1-.878.718l-1.764,1.018a.1.1,0,0,1-.133-.01.229.229,0,0,1-.056-.172v-6.963a.551.551,0,0,1,.056-.237.358.358,0,0,1,.133-.164Zm1.148,2.312a2.559,2.559,0,0,0-.087-.59.861.861,0,0,0-.217-.392.5.5,0,0,0-.359-.137,1.1,1.1,0,0,0-.518.176l-.938.541v4.85l.973-.561a1.888,1.888,0,0,0,.5-.412,2.4,2.4,0,0,0,.35-.542,2.952,2.952,0,0,0,.214-.64,4.143,4.143,0,0,0,.087-.7C385.207,186.787,385.207,186.256,385.189,185.734Z" transform="translate(-346.33 -183.113)" fill="#fafafa"/>
        </g>
      </g>
    </g>
    <g id="Question_Marks_1_" transform="translate(175.235 38.019)">
      <g id="Question_Marks">
        <g id="Group_2599" data-name="Group 2599">
          <path id="Path_772" data-name="Path 772" d="M243.055,38.3a13.81,13.81,0,0,1,3.679,1.381A10.608,10.608,0,0,1,249.66,42a8.368,8.368,0,0,1,1.725,3.125,7.4,7.4,0,0,1,.077,3.783,7.538,7.538,0,0,1-1.157,2.77,9.02,9.02,0,0,1-1.816,1.906,14.7,14.7,0,0,1-2.159,1.394q-1.135.6-2.146,1.135a12.1,12.1,0,0,0-1.83,1.185,3.475,3.475,0,0,0-1.145,1.533,1.652,1.652,0,0,1-.548.7.973.973,0,0,1-.821.167l-3.155-.7a1.166,1.166,0,0,1-.735-.511.945.945,0,0,1-.137-.857,7.394,7.394,0,0,1,1.315-2.692,10.385,10.385,0,0,1,1.94-1.879,15,15,0,0,1,2.217-1.359q1.149-.574,2.141-1.116a9.612,9.612,0,0,0,1.69-1.149,2.681,2.681,0,0,0,.894-1.479,3.208,3.208,0,0,0-.754-2.889,5.8,5.8,0,0,0-3.3-1.8,5.585,5.585,0,0,0-5.97,2.38,2.4,2.4,0,0,1-.587.588,1.086,1.086,0,0,1-.82.058l-3.362-.744a.938.938,0,0,1-.588-.392.883.883,0,0,1-.123-.724,6.577,6.577,0,0,1,1.55-2.77,10.394,10.394,0,0,1,2.89-2.235,12.572,12.572,0,0,1,3.809-1.268A11.1,11.1,0,0,1,243.055,38.3ZM239.5,62.246a1.163,1.163,0,0,1,.872,1.369l-.809,3.652a1.162,1.162,0,0,1-1.368.873l-3.57-.79a1.163,1.163,0,0,1-.874-1.37l.809-3.653a1.161,1.161,0,0,1,1.37-.872Z" transform="translate(-230.473 -38.019)" fill="#096b66"/>
        </g>
        <g id="Group_2600" data-name="Group 2600" transform="translate(10.047 35.069)">
          <path id="Path_773" data-name="Path 773" d="M250.48,85.261a9.5,9.5,0,0,1,2.712-.057,7.311,7.311,0,0,1,2.47.74,5.8,5.8,0,0,1,1.906,1.563,5.111,5.111,0,0,1,1.018,2.406,5.216,5.216,0,0,1-.034,2.073,6.233,6.233,0,0,1-.676,1.687,10.06,10.06,0,0,1-1.028,1.446q-.574.674-1.085,1.277a8.354,8.354,0,0,0-.87,1.228,2.386,2.386,0,0,0-.342,1.274,1.154,1.154,0,0,1-.171.593.673.673,0,0,1-.483.317l-2.2.36a.811.811,0,0,1-.6-.14.65.65,0,0,1-.307-.514,5.107,5.107,0,0,1,.154-2.063,7.126,7.126,0,0,1,.762-1.7,10.385,10.385,0,0,1,1.073-1.44q.591-.661,1.087-1.264a6.666,6.666,0,0,0,.79-1.169,1.856,1.856,0,0,0,.2-1.178,2.219,2.219,0,0,0-1.224-1.659,4,4,0,0,0-2.578-.307,3.856,3.856,0,0,0-3.219,3.055,1.644,1.644,0,0,1-.226.527.747.747,0,0,1-.51.247l-2.345.384a.652.652,0,0,1-.479-.1.612.612,0,0,1-.264-.433,4.531,4.531,0,0,1,.285-2.173,7.136,7.136,0,0,1,1.28-2.172,8.674,8.674,0,0,1,2.117-1.788A7.668,7.668,0,0,1,250.48,85.261Zm3.847,16.263a.8.8,0,0,1,.91.654l.417,2.55a.8.8,0,0,1-.654.91l-2.491.407a.8.8,0,0,1-.91-.653l-.417-2.55a.8.8,0,0,1,.654-.91Z" transform="translate(-243.971 -85.133)" fill="#27debf"/>
        </g>
        <g id="Group_2601" data-name="Group 2601" transform="translate(10.047 35.069)" opacity="0.2">
          <path id="Path_774" data-name="Path 774" d="M250.48,85.261a9.5,9.5,0,0,1,2.712-.057,7.311,7.311,0,0,1,2.47.74,5.8,5.8,0,0,1,1.906,1.563,5.111,5.111,0,0,1,1.018,2.406,5.216,5.216,0,0,1-.034,2.073,6.233,6.233,0,0,1-.676,1.687,10.06,10.06,0,0,1-1.028,1.446q-.574.674-1.085,1.277a8.354,8.354,0,0,0-.87,1.228,2.386,2.386,0,0,0-.342,1.274,1.154,1.154,0,0,1-.171.593.673.673,0,0,1-.483.317l-2.2.36a.811.811,0,0,1-.6-.14.65.65,0,0,1-.307-.514,5.107,5.107,0,0,1,.154-2.063,7.126,7.126,0,0,1,.762-1.7,10.385,10.385,0,0,1,1.073-1.44q.591-.661,1.087-1.264a6.666,6.666,0,0,0,.79-1.169,1.856,1.856,0,0,0,.2-1.178,2.219,2.219,0,0,0-1.224-1.659,4,4,0,0,0-2.578-.307,3.856,3.856,0,0,0-3.219,3.055,1.644,1.644,0,0,1-.226.527.747.747,0,0,1-.51.247l-2.345.384a.652.652,0,0,1-.479-.1.612.612,0,0,1-.264-.433,4.531,4.531,0,0,1,.285-2.173,7.136,7.136,0,0,1,1.28-2.172,8.674,8.674,0,0,1,2.117-1.788A7.668,7.668,0,0,1,250.48,85.261Zm3.847,16.263a.8.8,0,0,1,.91.654l.417,2.55a.8.8,0,0,1-.654.91l-2.491.407a.8.8,0,0,1-.91-.653l-.417-2.55a.8.8,0,0,1,.654-.91Z" transform="translate(-243.971 -85.133)" fill="#12919f"/>
        </g>
        <g id="Group_2602" data-name="Group 2602" transform="translate(31.912 20.538)">
          <path id="Path_775" data-name="Path 775" d="M279.037,84.278a.949.949,0,0,1,.222,1.309l-1.773,2.494a.951.951,0,0,1-1.309.222l-2.437-1.733a.949.949,0,0,1-.221-1.309l1.773-2.5a.949.949,0,0,1,1.309-.221Zm10.312-16.905a11.284,11.284,0,0,1,2.331,2.211,8.653,8.653,0,0,1,1.463,2.683,6.856,6.856,0,0,1,.3,2.9,6.049,6.049,0,0,1-1.148,2.875,6.17,6.17,0,0,1-1.754,1.718,7.339,7.339,0,0,1-1.975.857,12.1,12.1,0,0,1-2.071.363q-1.047.088-1.979.171a9.853,9.853,0,0,0-1.755.31,2.831,2.831,0,0,0-1.35.79,1.353,1.353,0,0,1-.638.357.79.79,0,0,1-.671-.136l-2.155-1.532a.958.958,0,0,1-.392-.619.775.775,0,0,1,.17-.69,6.062,6.062,0,0,1,1.848-1.609,8.5,8.5,0,0,1,2.06-.8,12.183,12.183,0,0,1,2.1-.318q1.047-.066,1.969-.159a7.887,7.887,0,0,0,1.641-.327,2.2,2.2,0,0,0,1.144-.829,2.624,2.624,0,0,0,.352-2.416,4.738,4.738,0,0,0-1.914-2.406,4.57,4.57,0,0,0-5.257-.109,1.967,1.967,0,0,1-.63.257.89.89,0,0,1-.635-.217l-2.3-1.632a.769.769,0,0,1-.319-.482.723.723,0,0,1,.138-.584,5.371,5.371,0,0,1,2.05-1.594,8.48,8.48,0,0,1,2.89-.762,10.25,10.25,0,0,1,3.272.258A9.064,9.064,0,0,1,289.349,67.372Z" transform="translate(-273.346 -65.611)" fill="#27debf"/>
        </g>
        <g id="Group_2603" data-name="Group 2603" transform="translate(31.912 20.538)" opacity="0.6">
          <path id="Path_776" data-name="Path 776" d="M279.037,84.278a.949.949,0,0,1,.222,1.309l-1.773,2.494a.951.951,0,0,1-1.309.222l-2.437-1.733a.949.949,0,0,1-.221-1.309l1.773-2.5a.949.949,0,0,1,1.309-.221Zm10.312-16.905a11.284,11.284,0,0,1,2.331,2.211,8.653,8.653,0,0,1,1.463,2.683,6.856,6.856,0,0,1,.3,2.9,6.049,6.049,0,0,1-1.148,2.875,6.17,6.17,0,0,1-1.754,1.718,7.339,7.339,0,0,1-1.975.857,12.1,12.1,0,0,1-2.071.363q-1.047.088-1.979.171a9.853,9.853,0,0,0-1.755.31,2.831,2.831,0,0,0-1.35.79,1.353,1.353,0,0,1-.638.357.79.79,0,0,1-.671-.136l-2.155-1.532a.958.958,0,0,1-.392-.619.775.775,0,0,1,.17-.69,6.062,6.062,0,0,1,1.848-1.609,8.5,8.5,0,0,1,2.06-.8,12.183,12.183,0,0,1,2.1-.318q1.047-.066,1.969-.159a7.887,7.887,0,0,0,1.641-.327,2.2,2.2,0,0,0,1.144-.829,2.624,2.624,0,0,0,.352-2.416,4.738,4.738,0,0,0-1.914-2.406,4.57,4.57,0,0,0-5.257-.109,1.967,1.967,0,0,1-.63.257.89.89,0,0,1-.635-.217l-2.3-1.632a.769.769,0,0,1-.319-.482.723.723,0,0,1,.138-.584,5.371,5.371,0,0,1,2.05-1.594,8.48,8.48,0,0,1,2.89-.762,10.25,10.25,0,0,1,3.272.258A9.064,9.064,0,0,1,289.349,67.372Z" transform="translate(-273.346 -65.611)" fill="#096b66"/>
        </g>
      </g>
    </g>
    <g id="Character" transform="translate(98.779 56.284)">
      <g id="Character_3_" transform="translate(0 0)">
        <g id="XMLID_285_" transform="translate(32.186 1.773)">
          <path id="XMLID_286_" d="M197.443,150H171V85.921A20.982,20.982,0,0,1,191.98,64.939h2.444a20.981,20.981,0,0,1,20.982,20.982v46.116A17.962,17.962,0,0,1,197.443,150Z" transform="translate(-170.999 -64.939)" fill="#263238"/>
        </g>
        <g id="XMLID_2226_" transform="translate(26.87 103.91)">
          <g id="XMLID_283_" transform="translate(0.522 104.447)">
            <path id="XMLID_284_" d="M166.9,386.44a49.294,49.294,0,0,0-.766,8.042c-.092,4.881-.989,6.614-1.108,10.621-.135,4.578.655,6.291,2.513,8.864s6.733,4.908,8.794.558c2.086-4.4,1.8-7.2,1.137-11.689-.681-4.642-.767-7.207-1.163-10.748-.348-3.121-.764-5.492-.764-5.492Z" transform="translate(-164.673 -353.717)" fill="#263238"/>
            <path id="XMLID_2235_" d="M180.639,342.77l-16.081-.292c.239,10.735,1.945,22.65,2.223,32.722.052,1.9-.048,14.733.668,18.634,1.074,5.861,8.031,5.07,8.4,1.562s-.448-18.493-.426-20.039c-.061-6.459,2.966-17.363,4.554-28.959C180.055,345.828,180.565,343.325,180.639,342.77Z" transform="translate(-164.558 -342.478)" fill="#ffa8a7"/>
          </g>
          <g id="XMLID_266_" transform="translate(33.206 94.436)">
            <path id="XMLID_282_" d="M213.174,375.188s-.635-.341-.766.336c-.156.806-.388,2.467-.723,3.791a19.256,19.256,0,0,0-.573,6.367c.279,1.5,3.773,3.428,6.041,4.124a18.485,18.485,0,0,1,7.476,4.431,17.947,17.947,0,0,0,10.4,4.088c3.906-.028,6.63-1.3,7.917-3.393,1.344-2.185-1.173-2.345-5.638-5.242-1.014-.658-2.168-1.4-3.466-2.249-7.073-4.62-9.662-7.1-11.663-11.717Z" transform="translate(-209.12 -340.808)" fill="#263238"/>
            <path id="XMLID_269_" d="M221.579,360.549c-.119-3.324,2.161-31.52,2.161-31.52l-15.272,6.962c3.271,19.519,3.967,24.122,4.025,27.316h0a2.8,2.8,0,0,0-.086.818c.014,3.792,4.293,5.837,7.632,8.366a62.229,62.229,0,0,0,9.029,5.894c2.426,1.219,7.351,1.33,7.961-.231-4.063-3.1-9.971-7.745-13.2-11.288C222.284,365.173,221.7,363.872,221.579,360.549Z" transform="translate(-208.468 -329.029)" fill="#ffa8a7"/>
          </g>
          <path id="XMLID_261_" d="M170.968,202.157c-5.862,12.876-5.862,22.832-4.893,39.26.889,15.069,2.306,28.335,2.306,28.335-.227,2.674-3.944,7.892-4.424,19.709a238.959,238.959,0,0,0,.761,25.091s8.343,4.624,14.512-.04c0,0,5.952-28.426,7.7-42.254,1.522-12.068,4.168-27.488,4.168-27.488l5.6,27.422a71.737,71.737,0,0,0-2.631,11.911c-.788,8.134,3.761,24.106,3.761,24.106s8.62,2.572,13.885-2.1c0,0,1.969-25.969,2.7-35.768.984-13.121-1.085-48.643-2.7-67.449Z" transform="translate(-163.857 -202.157)" fill="#455a64"/>
          <path id="XMLID_2227_" d="M200.449,250.321l2.316-20.642s10.377-1.387,15.077-5.806a17.032,17.032,0,0,1-12.227,7.727l-3.349,19.208,3.786,26.936Z" transform="translate(-173.212 -207.709)" fill="#263238"/>
        </g>
        <g id="XMLID_2194_" transform="translate(31.153 12.338)">
          <path id="XMLID_610_" d="M244.9,178.708a87.569,87.569,0,0,0,.566-11.353c-.226-3.276-.812-3.809-5.392-9.613-6.182-7.836-11.459-14.879-17.041-21.887-3.984-5-8.173-5.772-12.264-5.546-2.861.159,2.72,13.906,5.531,22.041L232.342,169.6a3.441,3.441,0,0,1,.638,2.357L232,186.649l4.8,6.426S244.074,186.8,244.9,178.708Z" transform="translate(-179.931 -92.208)" fill="#ffa8a7"/>
          <path id="XMLID_2220_" d="M185,130.766h0c-3.1.214-8.745.71-8.745.71-3.256,1.817-4.078,3.306-4.684,7.63-.258,1.839,1.242,6.747,2.529,13.72l2.444,12.932-.265,6.413c-1.268,3.913-4.138,8.777-6.665,15.947,12.428,6.936,22.851,7.193,32.3,5.979,7.208-.925,11.022-2.67,12.294-4.392-.265-7.083-.766-11.456-.889-18.856-.051-3.108.135-6.244.256-9.822,4.836-3.973,4.891-10.579,2.253-14.849-6.128-9.921-12.087-16.168-16.033-15.848Z" transform="translate(-169.611 -92.219)" fill="#27debf"/>
          <path id="XMLID_564_" d="M185,130.766h0c-3.1.214-8.745.71-8.745.71-3.256,1.817-4.078,3.306-4.684,7.63-.258,1.839,1.242,6.747,2.529,13.72l2.444,12.932-.265,6.413c-1.268,3.913-4.138,8.777-6.665,15.947,12.428,6.936,22.851,7.193,32.3,5.979,7.208-.925,11.022-2.67,12.294-4.392-.265-7.083-.766-11.456-.889-18.856-.051-3.108.135-6.244.256-9.822,4.836-3.973,4.891-10.579,2.253-14.849-6.128-9.921-12.087-16.168-16.033-15.848Z" transform="translate(-169.611 -92.219)" fill="#096b66" opacity="0.6"/>
          <path id="Path_777" data-name="Path 777" d="M209.022,169.71s-5.676,4.405-12.154,2.108a11.09,11.09,0,0,1-7.423-7.96s-.688,7.405,7.484,9.931A10.709,10.709,0,0,0,209.022,169.71Z" transform="translate(-174.678 -100.794)" opacity="0.1"/>
          <g id="XMLID_2195_" transform="translate(6.97)">
            <g id="XMLID_2209_">
              <path id="Path_778" data-name="Path 778" d="M214.045,97.352c-.244,10.746-3.732,13.4-5.48,14.166s-5.122.3-8.4-.244v6.449s3.778,3.961,3.5,6.915-5.938,3.289-10.181.4a32.294,32.294,0,0,1-6.275-5.665,2.292,2.292,0,0,1-.541-1.483V102.71s-1.794,1.9-4.968-.275a5.854,5.854,0,0,1-1.5-8.5c1.382-1.626,4.893-1.74,6.579.786.946,1.855,1.076,3.717,2.137,2.946,2.831-2.038,1.313-6.671,4.732-8.96.007,0,.007-.007.015-.007a23.959,23.959,0,0,1,3.481-1.519c6.1-2.106,11.38-3.877,12.655-8.045C212.2,80.561,214.343,84.675,214.045,97.352Z" transform="translate(-178.975 -79.133)" fill="#ffa8a7"/>
            </g>
            <circle id="Ellipse_56" data-name="Ellipse 56" cx="1.411" cy="1.411" r="1.411" transform="translate(21.64 24.999)" fill="#b16668"/>
            <g id="XMLID_2206_" transform="translate(19.136 15.116)">
              <path id="XMLID_2207_" d="M207.654,100.915a1.487,1.487,0,1,1-1.562-1.472A1.511,1.511,0,0,1,207.654,100.915Z" transform="translate(-204.683 -99.441)" fill="#263238"/>
            </g>
            <g id="XMLID_2200_" transform="translate(30.686 15.397)">
              <path id="XMLID_2201_" d="M222.9,101.158a1.373,1.373,0,0,1-1.28,1.466,1.3,1.3,0,0,1-1.42-1.338,1.352,1.352,0,1,1,2.7-.128Z" transform="translate(-220.201 -99.818)" fill="#263238"/>
            </g>
            <g id="Group_2604" data-name="Group 2604" transform="translate(15.354 12.284)">
              <path id="Path_779" data-name="Path 779" d="M204.444,103.769a4.847,4.847,0,0,1-4.841-4.841c0-3.291,3.392-3.291,4.841-3.291s4.841,0,4.841,3.291A4.847,4.847,0,0,1,204.444,103.769Zm0-7.369c-2.934,0-4.077.709-4.077,2.529a4.077,4.077,0,0,0,8.155,0C208.522,97.108,207.378,96.4,204.444,96.4Z" transform="translate(-199.603 -95.636)" fill="#096b66"/>
            </g>
            <g id="Group_2605" data-name="Group 2605" transform="translate(27.644 12.284)">
              <path id="Path_780" data-name="Path 780" d="M220.955,103.769a4.847,4.847,0,0,1-4.841-4.841c0-3.291,3.392-3.291,4.841-3.291s4.841,0,4.841,3.291A4.847,4.847,0,0,1,220.955,103.769Zm0-7.369c-2.934,0-4.077.709-4.077,2.529a4.078,4.078,0,0,0,8.155,0C225.033,97.108,223.889,96.4,220.955,96.4Z" transform="translate(-216.114 -95.636)" fill="#096b66"/>
            </g>
            <g id="XMLID_2198_" transform="translate(25.788 14.015)">
              <path id="XMLID_2199_" d="M213.621,97.962l.238,9.041,4.759-1.475Z" transform="translate(-213.621 -97.962)" fill="#f28f8f"/>
            </g>
            <g id="XMLID_2196_" transform="translate(9.518 26.832)">
              <path id="XMLID_2197_" d="M203.436,120.487c-3.456-.453-10.566-2.5-11.674-5.306a7.278,7.278,0,0,0,2.493,3.587c2.124,1.82,9.181,3.871,9.181,3.871Z" transform="translate(-191.762 -115.181)" fill="#f28f8f"/>
            </g>
            <path id="XMLID_405_" d="M206.494,91.74l-3.153,1.922a1.937,1.937,0,0,1,.642-2.6A1.8,1.8,0,0,1,206.494,91.74Z" transform="translate(-185.139 -82.115)" fill="#263238"/>
            <path id="XMLID_382_" d="M223.715,94.081,220.2,92.855a1.786,1.786,0,0,1,2.308-1.18A1.954,1.954,0,0,1,223.715,94.081Z" transform="translate(-189.515 -82.313)" fill="#263238"/>
            <g id="Group_2606" data-name="Group 2606" transform="translate(24.273 14.556)">
              <path id="Path_781" data-name="Path 781" d="M211.966,100.093a.384.384,0,0,1-.381-.386c0-.619,1.225-1.02,2.325-1.02s1.809.4,1.809,1.02a.382.382,0,1,1-.764,0,1.539,1.539,0,0,0-1.047-.256,4.328,4.328,0,0,0-1.562.263A.377.377,0,0,1,211.966,100.093Z" transform="translate(-211.585 -98.688)" fill="#096b66"/>
            </g>
            <g id="Group_2607" data-name="Group 2607" transform="translate(5.803 13.956)">
              <path id="Path_782" data-name="Path 782" d="M196.717,99.565l-.043,0-8.509-.775a4.191,4.191,0,0,0-1.394-.905l9.988.922a.382.382,0,0,1-.042.761Z" transform="translate(-186.771 -97.883)" fill="#096b66"/>
            </g>
          </g>
        </g>
        <g id="Group_2608" data-name="Group 2608">
          <path id="Path_783" data-name="Path 783" d="M146.7,99.4c2.782-3.717,4.68-6.526,7.219-9.713,1.442-1.81,2.364-3.1,3.751-4.957.955-1.278,1.515-2.356,2.573-2.752a8.911,8.911,0,0,0,3.105-2.132,19.584,19.584,0,0,0,1.469-1.874,27.959,27.959,0,0,1,5.621-5.661c2.24-1.687,4.728-2.974,7.026-4.582,1.371-.959,2.841-2.553,1.172-4.04a3.9,3.9,0,0,0-1.783-.852c-4.05-.885-7.584.511-11.545,1.524a32.879,32.879,0,0,0-5.044,1.7,8.752,8.752,0,0,0-2.234,1.282,11.679,11.679,0,0,0-2.3,3.286c-1.781,3.138-5.471,5.907-8.068,8.35-3.047,2.866-5.769,5.493-9.245,8.655-3.128,2.846-6.188,5.469-9.056,8.577-2.373,2.571-1.51,4.582-1.172,5.277,1.934,3.978,4.1,5.4,6.686,7.868,4.48,4.268,19.912,16.545,25.031,20.6a8.426,8.426,0,0,1,2.509,3.275l.977,2.27c5.836,1.074,9.729-7.688,4.9-18.237a11,11,0,0,0-3.548-4.277C158.653,108.545,146.7,99.4,146.7,99.4Z" transform="translate(-127.758 -62.557)" fill="#ffa8a7"/>
          <path id="Path_784" data-name="Path 784" d="M150.753,112.056a15.408,15.408,0,0,1-7.132,4.909s3.722.95,8.817-3.623Z" transform="translate(-131.813 -75.212)" fill="#f28f8f"/>
        </g>
        <g id="XMLID_2739_" transform="translate(72.501 90.09)">
          <g id="XMLID_2725_">
            <g id="XMLID_2695_">
              <path id="XMLID_563_" d="M247.268,184.571l.019,0-.954-.822v.012a1.08,1.08,0,0,0-.981-.109l-10.335,2.811a3.8,3.8,0,0,0-2.322,2.17l-7.437,21.459a.981.981,0,0,0,.137,1.1l-.008,0,.984.848v-.013a1.073,1.073,0,0,0,.991.117l10.335-2.811a3.806,3.806,0,0,0,2.322-2.171c1.461-4.218,5.978-17.242,7.438-21.459C247.638,185.175,247.547,184.777,247.268,184.571Z" transform="translate(-225.161 -183.591)" fill="#455a64"/>
              <path id="XMLID_2696_" d="M226.541,211.2l7.437-21.459a3.8,3.8,0,0,1,2.322-2.17l10.335-2.811c.958-.261,1.471.289,1.146,1.227-1.46,4.217-5.977,17.241-7.437,21.459a3.808,3.808,0,0,1-2.322,2.171l-10.335,2.811C226.729,212.687,226.216,212.138,226.541,211.2Z" transform="translate(-225.488 -183.873)" fill="#096b66"/>
              <path id="XMLID_2726_" d="M234.849,189.1a3.732,3.732,0,0,0-1.2,1.577l-7.44,21.452a1.027,1.027,0,0,0,.1,1.076l-.925-.793.01-.01a.971.971,0,0,1-.141-1.095l7.44-21.462a3.649,3.649,0,0,1,1.1-1.492Z" transform="translate(-225.161 -184.809)" fill="#37474f"/>
            </g>
            <path id="XMLID_2549_" d="M246.355,196.734c-.729,2.186-3.326,3.644-7.595,4.656s-6.634,5.545-5.944,6.924,7.588,2.66,10.347,2.267,5.535-4.383,6.37-5.617,1.809-9.854.922-11.036a3.362,3.362,0,0,0-2.75-1Z" transform="translate(-227.088 -185.975)" fill="#f28f8f"/>
          </g>
        </g>
      </g>
    </g>
  </g>
</svg>
