<svg xmlns="http://www.w3.org/2000/svg" width="144.92" height="126.39" viewBox="0 0 144.92 126.39">
  <g id="_7769819_3226834" data-name="7769819_3226834" transform="translate(-34.586 -94.236)">
    <g id="Background_Complete" transform="translate(56.973 154.937)">
      <g id="Group_4263" data-name="Group 4263" transform="translate(0 0)">
        <g id="Group_4241" data-name="Group 4241">
          <g id="Group_4240" data-name="Group 4240">
            <path id="Path_1370" data-name="Path 1370" d="M102.816,274.838s-3.055.808-.486,7.4a81.915,81.915,0,0,0,4.474,9.922s.421,1.513-.827,1.616-3.9-.6-4.6.846c-.723,1.5.259,3.079,2.421,4.6s6.775,5.016,7.191,5.334.777,1.034-.062,1.24-6.973.229-6.788,3.14,6.9,6.149,7.629,6.517.876.707.773,1.116-2.166.223-3.91.3-3.754.474-3.506,2.144,4.033,5.507,13.961,7.5l4.661.621,2.942-3.695c5.814-8.29,5.908-13.68,4.935-15.06s-2.7-.281-4.017.866-2.681,2.7-3.038,2.48-.483-.573-.211-1.341,2.9-7.746,1.028-9.981-6.331,1.981-7.08,2.41-.981-.347-.9-.855,1.008-6.233,1.526-8.822.138-4.412-1.418-5c-1.5-.565-2.94,1.775-3.915,2.561s-1.713-.6-1.713-.6a81.912,81.912,0,0,0-3.606-10.27c-2.689-6.546-5.52-4.972-5.52-4.972" transform="translate(-101.141 -274.692)" fill="#ebebeb"/>
          </g>
        </g>
        <g id="Group_4244" data-name="Group 4244" transform="translate(3.966 6.055)">
          <g id="Group_4243" data-name="Group 4243">
            <g id="Group_4242" data-name="Group 4242">
              <path id="Path_1371" data-name="Path 1371" d="M131.7,340.2c-1.956-4.815-5.288-13.432-8.187-20.815s-5.528-14.06-7.459-18.885l-2.293-5.711-.622-1.553-.158-.405c-.035-.091-.049-.14-.049-.14s.024.045.063.134l.172.4.648,1.543c.561,1.341,1.359,3.286,2.336,5.694,1.956,4.815,4.6,11.49,7.5,18.87s6.216,16.005,8.147,20.83" transform="translate(-112.931 -292.693)" fill="#e0e0e0"/>
            </g>
          </g>
        </g>
        <g id="Group_4247" data-name="Group 4247" transform="translate(3.911 21.062)">
          <g id="Group_4246" data-name="Group 4246">
            <g id="Group_4245" data-name="Group 4245">
              <path id="Path_1372" data-name="Path 1372" d="M112.767,337.308a1.51,1.51,0,0,1,.317.124c.2.087.486.222.838.392.7.341,1.662.837,2.71,1.4l2.678,1.46.814.437a1.487,1.487,0,0,1,.293.173,1.507,1.507,0,0,1-.318-.121c-.2-.088-.486-.223-.837-.4-.7-.348-1.652-.856-2.7-1.423l-2.687-1.44-.816-.433A1.494,1.494,0,0,1,112.767,337.308Z" transform="translate(-112.767 -337.307)" fill="#e0e0e0"/>
            </g>
          </g>
        </g>
        <g id="Group_4250" data-name="Group 4250" transform="translate(11.91 15.817)">
          <g id="Group_4249" data-name="Group 4249">
            <g id="Group_4248" data-name="Group 4248">
              <path id="Path_1373" data-name="Path 1373" d="M136.548,330.681c-.036-.017.9-2.039,2.089-4.516s2.184-4.47,2.221-4.453-.9,2.039-2.089,4.516S136.584,330.7,136.548,330.681Z" transform="translate(-136.547 -321.713)" fill="#e0e0e0"/>
            </g>
          </g>
        </g>
        <g id="Group_4253" data-name="Group 4253" transform="translate(15.85 29.535)">
          <g id="Group_4252" data-name="Group 4252">
            <g id="Group_4251" data-name="Group 4251">
              <path id="Path_1374" data-name="Path 1374" d="M148.262,369.283a1.618,1.618,0,0,1,.219-.27l.63-.7c.531-.594,1.261-1.416,2.033-2.354s1.446-1.807,1.927-2.442l.571-.751a1.6,1.6,0,0,1,.223-.266,1.561,1.561,0,0,1-.177.3c-.122.187-.3.454-.534.78-.46.652-1.121,1.536-1.9,2.474s-1.519,1.755-2.07,2.331c-.277.287-.5.517-.665.671A1.549,1.549,0,0,1,148.262,369.283Z" transform="translate(-148.262 -362.497)" fill="#e0e0e0"/>
            </g>
          </g>
        </g>
        <g id="Group_4256" data-name="Group 4256" transform="translate(7.874 34.545)">
          <g id="Group_4255" data-name="Group 4255">
            <g id="Group_4254" data-name="Group 4254">
              <path id="Path_1375" data-name="Path 1375" d="M124.55,377.393a1.367,1.367,0,0,1,.319.038l.858.156c.724.138,1.721.338,2.821.567s2.095.446,2.813.61l.849.2a.161.161,0,1,1-.012.056l-.858-.156c-.724-.138-1.721-.338-2.822-.568s-2.094-.446-2.812-.61l-.849-.2A1.344,1.344,0,0,1,124.55,377.393Z" transform="translate(-124.55 -377.39)" fill="#e0e0e0"/>
            </g>
          </g>
        </g>
        <g id="Group_4259" data-name="Group 4259" transform="translate(10.059 45.172)">
          <g id="Group_4258" data-name="Group 4258">
            <g id="Group_4257" data-name="Group 4257">
              <path id="Path_1376" data-name="Path 1376" d="M131.044,408.986a2.22,2.22,0,0,1,.408.052l1.1.2c.928.171,2.209.418,3.621.7s2.69.544,3.614.741l1.092.241a2.2,2.2,0,0,1,.4.108,2.222,2.222,0,0,1-.408-.052l-1.1-.2c-.928-.171-2.209-.418-3.622-.7s-2.69-.544-3.613-.741l-1.092-.241A2.243,2.243,0,0,1,131.044,408.986Z" transform="translate(-131.044 -408.983)" fill="#e0e0e0"/>
            </g>
          </g>
        </g>
        <g id="Group_4262" data-name="Group 4262" transform="translate(20.059 38.291)">
          <g id="Group_4261" data-name="Group 4261">
            <g id="Group_4260" data-name="Group 4260">
              <path id="Path_1377" data-name="Path 1377" d="M160.774,397.329a2.54,2.54,0,0,1,.269-.349l.767-.919c.647-.777,1.536-1.853,2.483-3.069s1.781-2.337,2.376-3.153l.706-.967a2.521,2.521,0,0,1,.273-.345,2.528,2.528,0,0,1-.226.377c-.153.238-.381.578-.669.994-.575.833-1.394,1.966-2.346,3.183s-1.852,2.286-2.52,3.046c-.335.379-.608.684-.8.89A2.505,2.505,0,0,1,160.774,397.329Z" transform="translate(-160.774 -388.527)" fill="#e0e0e0"/>
            </g>
          </g>
        </g>
      </g>
      <g id="Group_4277" data-name="Group 4277" transform="translate(69.927 6.127)">
        <g id="Group_4276" data-name="Group 4276">
          <g id="Group_4275" data-name="Group 4275">
            <g id="Group_4274" data-name="Group 4274">
              <g id="Group_4264" data-name="Group 4264">
                <path id="Path_1378" data-name="Path 1378" d="M332.745,349.68,309.39,311.025a2.537,2.537,0,0,1,.859-3.483l23.618-14.269a2.537,2.537,0,0,1,3.483.859l23.355,38.656a2.536,2.536,0,0,1-.859,3.483l-23.618,14.269A2.537,2.537,0,0,1,332.745,349.68Z" transform="translate(-309.024 -292.906)" fill="#096b66"/>
              </g>
              <g id="Group_4265" data-name="Group 4265" transform="translate(37.4 33.212)">
                <path id="Path_1379" data-name="Path 1379" d="M425.471,398.076a3.467,3.467,0,1,1,1.175-4.761A3.468,3.468,0,0,1,425.471,398.076Z" transform="translate(-420.21 -391.64)" fill="#fff"/>
              </g>
              <g id="Group_4266" data-name="Group 4266" transform="translate(39.395 36.621)">
                <path id="Path_1380" data-name="Path 1380" d="M429.781,409.048a3.665,3.665,0,0,1-.877-.107,3.619,3.619,0,1,1,.877.107Zm-.013-6.937a3.3,3.3,0,1,0,1.712,6.124h0a3.3,3.3,0,0,0-1.712-6.124Z" transform="translate(-426.14 -401.776)" fill="#fff"/>
              </g>
              <g id="Group_4267" data-name="Group 4267" transform="translate(8.907 12.886)">
                <path id="Path_1381" data-name="Path 1381" d="M338.039,332.023l-2.387,1.442-.148-.245,2.168-1.31-.34-.563.218-.132Z" transform="translate(-335.504 -331.215)" fill="#fff"/>
                <path id="Path_1382" data-name="Path 1382" d="M338.576,339.165l-.218.132-1.011-1.674.174-.1,1.571.405a.929.929,0,0,0,.784-.036c.276-.167.329-.464.108-.829a.947.947,0,0,0-.659-.49l.045-.264a1.251,1.251,0,0,1,.852.639c.292.484.232.939-.167,1.18a1.146,1.146,0,0,1-.983.059l-1.288-.329Z" transform="translate(-336.727 -334.592)" fill="#fff"/>
                <path id="Path_1383" data-name="Path 1383" d="M344.264,347.251l-.288-.478-.627.379-.148-.246.627-.379-.814-1.346.177-.107,2.346.309.165.273-2.278-.289.626,1.036.553-.333.144.238-.552.333.288.478Z" transform="translate(-340.488 -340.412)" fill="#fff"/>
                <path id="Path_1384" data-name="Path 1384" d="M350.834,358.126l-.288-.478-.627.379-.148-.246.627-.379-.814-1.346.177-.107,2.346.309.165.273-2.278-.289.626,1.036.552-.333.144.238-.552.333.288.478Z" transform="translate(-344.848 -347.629)" fill="#fff"/>
                <path id="Path_1385" data-name="Path 1385" d="M354.343,363.656c-.406.245-.894.154-1.246-.429a1.44,1.44,0,0,1-.21-1.041l.266,0a1.207,1.207,0,0,0,.167.9c.245.406.572.5.862.326.307-.186.383-.492.016-1.1l-.307-.508,1.271-.6.789,1.306-.218.132-.659-1.091-.81.377.186.307C354.883,362.956,354.765,363.4,354.343,363.656Z" transform="translate(-347.021 -351.118)" fill="#fff"/>
                <path id="Path_1386" data-name="Path 1386" d="M358.763,370.849a.869.869,0,0,1-1.225-.372c-.383-.634-.152-1.244.6-1.7a1.253,1.253,0,0,1,1.893.345,1.281,1.281,0,0,1,.213.644l-.258.021a1.031,1.031,0,0,0-1.657-.786c-.054.033-.121.077-.188.128a.89.89,0,0,1,.85.482A.843.843,0,0,1,358.763,370.849Zm-.153-.237a.612.612,0,0,0,.152-.911.614.614,0,1,0-1.022.641A.61.61,0,0,0,358.61,370.611Z" transform="translate(-350.005 -355.959)" fill="#fff"/>
                <path id="Path_1387" data-name="Path 1387" d="M364.426,380c-.4.241-.881.137-1.228-.44a1.452,1.452,0,0,1-.213-1.044l.267,0a1.22,1.22,0,0,0,.171.907c.239.4.554.5.851.323s.353-.487.085-.93l-.1-.171.181-.109,1.228.161-.737-1.221.218-.132.927,1.534-.174.105-1.257-.162A.8.8,0,0,1,364.426,380Z" transform="translate(-353.722 -361.831)" fill="#fff"/>
                <path id="Path_1388" data-name="Path 1388" d="M368.927,387.673a.869.869,0,0,1-1.225-.372c-.383-.634-.151-1.244.6-1.7a1.253,1.253,0,0,1,1.893.345,1.281,1.281,0,0,1,.213.644l-.258.021a1.031,1.031,0,0,0-1.657-.786c-.054.033-.12.077-.188.127a.891.891,0,0,1,.85.482A.844.844,0,0,1,368.927,387.673Zm-.153-.238a.612.612,0,0,0,.152-.911.614.614,0,1,0-1.023.641A.61.61,0,0,0,368.774,387.435Z" transform="translate(-356.751 -367.124)" fill="#fff"/>
                <path id="Path_1389" data-name="Path 1389" d="M374.408,392.371l-.174.105-2.816.338-.161-.266,2.762-.328-.742-1.227-.446.27-.146-.242.665-.4Z" transform="translate(-359.231 -370.637)" fill="#fff"/>
                <path id="Path_1390" data-name="Path 1390" d="M380.537,402.515l-.174.105-2.816.338-.161-.266,2.761-.328-.742-1.227-.446.27-.146-.242.665-.4Z" transform="translate(-363.299 -377.369)" fill="#fff"/>
                <path id="Path_1391" data-name="Path 1391" d="M382.947,411.046c-.423.255-.9.056-1.246-.513s-.294-1.079.129-1.334a.7.7,0,0,1,.864.106.629.629,0,0,1,.3-.692c.388-.234.831-.05,1.136.454s.267.989-.122,1.223a.632.632,0,0,1-.756-.064A.7.7,0,0,1,382.947,411.046Zm-.149-.255c.293-.177.325-.541.07-.963s-.59-.56-.883-.383-.33.539-.075.962S382.5,410.971,382.8,410.792Zm.264-1.08c.224.371.525.492.784.336s.291-.5.075-.855-.52-.491-.786-.33S382.838,409.339,383.062,409.711Z" transform="translate(-366.011 -382.511)" fill="#fff"/>
                <path id="Path_1392" data-name="Path 1392" d="M387.5,417.616a1.253,1.253,0,0,1-1.893-.345,1.274,1.274,0,0,1-.213-.644l.257-.021a1.031,1.031,0,0,0,1.657.786c.054-.033.12-.077.188-.128a.89.89,0,0,1-.85-.483.844.844,0,0,1,.23-1.237.869.869,0,0,1,1.225.372C388.481,416.551,388.249,417.161,387.5,417.616Zm.27-.624a.648.648,0,0,0,.131-.94.609.609,0,1,0-1.023.641A.645.645,0,0,0,387.765,416.992Z" transform="translate(-368.61 -387.094)" fill="#fff"/>
                <path id="Path_1393" data-name="Path 1393" d="M394.483,425.447l-2.386,1.442-.148-.246,2.168-1.31-.34-.562.218-.132Z" transform="translate(-372.962 -393.214)" fill="#fff"/>
                <path id="Path_1394" data-name="Path 1394" d="M395.021,432.589l-.218.132-1.011-1.674.174-.1,1.57.4a.927.927,0,0,0,.784-.036c.276-.167.329-.465.109-.829a.948.948,0,0,0-.66-.49l.045-.264a1.253,1.253,0,0,1,.852.639c.292.484.232.939-.167,1.18a1.149,1.149,0,0,1-.984.059l-1.288-.33Z" transform="translate(-374.185 -396.59)" fill="#fff"/>
                <path id="Path_1395" data-name="Path 1395" d="M399.782,438.523c-.4.241-.881.137-1.228-.44a1.451,1.451,0,0,1-.213-1.044l.266,0a1.222,1.222,0,0,0,.171.907c.239.4.555.5.851.323s.353-.487.084-.931l-.1-.171.181-.109,1.228.161-.737-1.22.218-.132.927,1.534-.174.105L400,437.346A.8.8,0,0,1,399.782,438.523Z" transform="translate(-377.185 -400.666)" fill="#fff"/>
              </g>
              <g id="Group_4268" data-name="Group 4268" transform="translate(16.93 33.871)">
                <rect id="Rectangle_5014" data-name="Rectangle 5014" width="1.211" height="22.337" transform="matrix(0.856, -0.517, 0.517, 0.856, 0, 0.626)" fill="#fff"/>
              </g>
              <g id="Group_4269" data-name="Group 4269" transform="translate(20.489 44.432)">
                <rect id="Rectangle_5015" data-name="Rectangle 5015" width="1.211" height="11.457" transform="matrix(0.856, -0.517, 0.517, 0.856, 0, 0.626)" fill="#fff"/>
              </g>
              <g id="Group_4270" data-name="Group 4270" transform="translate(13.226 7.973)">
                <path id="Path_1396" data-name="Path 1396" d="M351.706,326.2l-3.12-5.164a1.669,1.669,0,0,1,.566-2.292l3.135-1.894a1.67,1.67,0,0,1,2.292.566l3.12,5.164a1.67,1.67,0,0,1-.565,2.292L354,326.767A1.67,1.67,0,0,1,351.706,326.2Z" transform="translate(-348.345 -316.61)" fill="#e0e0e0"/>
              </g>
              <g id="Group_4271" data-name="Group 4271" transform="translate(14.263 8.46)">
                <path id="Path_1397" data-name="Path 1397" d="M351.427,319.566l.385-.232,2.5,4.13a1.01,1.01,0,1,0,1.729-1.044l-2.5-4.131.385-.232,2.5,4.13a1.459,1.459,0,1,1-2.5,1.509Z" transform="translate(-351.427 -318.057)" fill="#ebebeb"/>
              </g>
              <g id="Group_4272" data-name="Group 4272" transform="translate(18.463 14.284)">
                <rect id="Rectangle_5016" data-name="Rectangle 5016" width="0.449" height="3.312" transform="matrix(0.856, -0.516, 0.516, 0.856, 0, 0.232)" fill="#ebebeb"/>
              </g>
              <g id="Group_4273" data-name="Group 4273" transform="translate(22.337 5.317)">
                <rect id="Rectangle_5017" data-name="Rectangle 5017" width="24.104" height="2.069" transform="translate(1.771 0) rotate(58.861)" fill="#fff"/>
              </g>
            </g>
          </g>
        </g>
      </g>
    </g>
    <g id="Floor" transform="translate(34.586 218.445)">
      <g id="Group_4319" data-name="Group 4319">
        <g id="Group_4318" data-name="Group 4318">
          <path id="Path_1424" data-name="Path 1424" d="M179.506,463.58c0,.048-32.444.087-72.457.087s-72.464-.039-72.464-.087,32.437-.087,72.464-.087S179.506,463.532,179.506,463.58Z" transform="translate(-34.586 -463.493)" fill="#263238"/>
        </g>
      </g>
    </g>
    <g id="Character" transform="translate(35.427 98.314)">
      <g id="Group_4476" data-name="Group 4476" transform="translate(0 0)">
        <g id="Group_4342" data-name="Group 4342" transform="translate(30.396)">
          <g id="Group_4320" data-name="Group 4320" transform="translate(0 6.11)">
            <path id="Path_1425" data-name="Path 1425" d="M132.173,124.523l.026,1.348s.547,10.432.514,11.994-5.264,10.512-5.264,10.512l3.194,5.234,7.671-13.8-1.838-14.8-.045-.365" transform="translate(-127.449 -124.523)" fill="#ffbe9d"/>
          </g>
          <g id="Group_4341" data-name="Group 4341" transform="translate(3.047)">
            <g id="Group_4340" data-name="Group 4340">
              <g id="Group_4321" data-name="Group 4321" transform="translate(0.468 0.699)">
                <path id="Path_1426" data-name="Path 1426" d="M143,112.236c-.028-.11-1.048-3.8-1.048-3.8l-4.053,2.337a27.853,27.853,0,0,0,1.209,3.074l.7.725s3.506-.37,3.582-.406A15.857,15.857,0,0,0,143,112.236Z" transform="translate(-137.9 -108.437)" fill="#ffbe9d"/>
              </g>
              <g id="Group_4335" data-name="Group 4335">
                <g id="Group_4332" data-name="Group 4332">
                  <g id="Group_4322" data-name="Group 4322" transform="translate(3.604 0.463)">
                    <path id="Path_1427" data-name="Path 1427" d="M148.281,108.241c.008,0,.023.031.041.08.154.411.6,2.264.4,2.4-.23.153-.9.172-1-.06s-.494-2.347-.494-2.347-.04-.338.49-.56C148.039,107.619,148.281,108.241,148.281,108.241Z" transform="translate(-147.221 -107.736)" fill="#ffbe9d"/>
                  </g>
                  <g id="Group_4323" data-name="Group 4323" transform="translate(2.325 0.085)">
                    <path id="Path_1428" data-name="Path 1428" d="M144.481,107.118c.008,0,.023.031.041.08.154.411.6,2.264.4,2.4-.23.153-.9.172-1-.06s-.494-2.347-.494-2.347-.04-.338.49-.56C144.239,106.5,144.481,107.118,144.481,107.118Z" transform="translate(-143.421 -106.613)" fill="#ffbe9d"/>
                  </g>
                  <g id="Group_4324" data-name="Group 4324" transform="translate(1.157 0.034)">
                    <path id="Path_1429" data-name="Path 1429" d="M141.009,106.964c.008,0,.023.031.041.08.154.411.6,2.264.4,2.4-.23.153-.9.172-1-.06s-.494-2.347-.494-2.347-.04-.338.489-.56C140.767,106.341,141.009,106.964,141.009,106.964Z" transform="translate(-139.949 -106.459)" fill="#ffbe9d"/>
                  </g>
                  <g id="Group_4325" data-name="Group 4325">
                    <path id="Path_1430" data-name="Path 1430" d="M137.568,106.864c.008,0,.023.031.041.08.154.411.6,2.264.4,2.4-.23.153-.9.172-1-.06s-.494-2.347-.494-2.347-.04-.338.489-.56C137.326,106.241,137.568,106.864,137.568,106.864Z" transform="translate(-136.508 -106.359)" fill="#ffbe9d"/>
                  </g>
                  <g id="Group_4327" data-name="Group 4327" transform="translate(3.54 1.051)">
                    <g id="Group_4326" data-name="Group 4326">
                      <path id="Path_1431" data-name="Path 1431" d="M147.443,111.284a3.76,3.76,0,0,0-.145-.92,3.539,3.539,0,0,0-.258-.881,3.743,3.743,0,0,0,.145.921A3.573,3.573,0,0,0,147.443,111.284Z" transform="translate(-147.032 -109.482)" fill="#eb996e"/>
                    </g>
                  </g>
                  <g id="Group_4329" data-name="Group 4329" transform="translate(2.289 0.557)">
                    <g id="Group_4328" data-name="Group 4328">
                      <path id="Path_1432" data-name="Path 1432" d="M143.889,110.6a14.6,14.6,0,0,0-.569-2.582,14.6,14.6,0,0,0,.569,2.582Z" transform="translate(-143.314 -108.016)" fill="#eb996e"/>
                    </g>
                  </g>
                  <g id="Group_4331" data-name="Group 4331" transform="translate(1.161 0.751)" opacity="0.78">
                    <g id="Group_4330" data-name="Group 4330">
                      <path id="Path_1433" data-name="Path 1433" d="M140.533,111.174a14.6,14.6,0,0,0-.569-2.582,14.6,14.6,0,0,0,.569,2.582Z" transform="translate(-139.958 -108.592)" fill="#eb996e"/>
                    </g>
                  </g>
                </g>
                <g id="Group_4334" data-name="Group 4334" transform="translate(0.348 1.744)">
                  <g id="Group_4333" data-name="Group 4333">
                    <path id="Path_1434" data-name="Path 1434" d="M139.805,115.54l-1.226-.99a2.671,2.671,0,0,1-.971-1.739l-.067-.522,3.681-.744s.018,1.374-1.042,1.391l1.3.66Z" transform="translate(-137.542 -111.544)" fill="#ffbe9d"/>
                  </g>
                </g>
              </g>
              <g id="Group_4337" data-name="Group 4337" transform="translate(0.356 1.641)">
                <g id="Group_4336" data-name="Group 4336">
                  <path id="Path_1435" data-name="Path 1435" d="M141.338,113.671c-.017.01-.1-.15-.319-.356a1.707,1.707,0,0,0-1.125-.454l-.395,0,.371-.137.857-.317-.017.008a1.02,1.02,0,0,0,.533-.954.6.6,0,0,0-.017-.086l.1.057c-1.032.255-1.968.471-2.652.587-.341.06-.619.1-.811.12a1,1,0,0,1-.3.014,9.941,9.941,0,0,1,1.089-.255c.675-.147,1.6-.381,2.634-.637l.08-.02.024.077a.738.738,0,0,1,.025.12,1.025,1.025,0,0,1-.157.673,1.449,1.449,0,0,1-.46.443l-.008.005-.009,0-.864.3-.023-.142a1.718,1.718,0,0,1,1.182.54A.933.933,0,0,1,141.338,113.671Z" transform="translate(-137.567 -111.238)" fill="#eb996e"/>
                </g>
              </g>
              <g id="Group_4339" data-name="Group 4339" transform="translate(3.898 0.769)">
                <g id="Group_4338" data-name="Group 4338">
                  <path id="Path_1436" data-name="Path 1436" d="M148.1,110.238c.029-.018.09.166.278.336a.324.324,0,0,0,.368.053.485.485,0,0,0,.163-.458c-.044-.416-.066-.808-.106-1.077a1.81,1.81,0,0,1-.056-.449c.021-.007.106.148.178.425a8.1,8.1,0,0,1,.159,1.092.626.626,0,0,1-.255.606.449.449,0,0,1-.535-.1.768.768,0,0,1-.176-.3C148.1,110.287,148.091,110.243,148.1,110.238Z" transform="translate(-148.096 -108.643)" fill="#eb996e"/>
                </g>
              </g>
            </g>
          </g>
        </g>
        <g id="Group_4394" data-name="Group 4394" transform="translate(14.819 13.966)">
          <g id="Group_4343" data-name="Group 4343" transform="translate(6.9 0.596)">
            <path id="Path_1437" data-name="Path 1437" d="M104.706,149.653a3.143,3.143,0,0,1,2.344,1.142c.617.652,1.1,1.428,1.736,2.056a5.819,5.819,0,0,1,1.347,1.474c.46.961.075,2.2.656,3.1.327.5.907.8,1.244,1.294a3.152,3.152,0,0,1,.3,2.183,2.539,2.539,0,0,1-.526,1.446,2.5,2.5,0,0,1-1.059.587,15.141,15.141,0,0,1-9.089.194" transform="translate(-101.652 -149.65)" fill="#263238"/>
          </g>
          <g id="Group_4383" data-name="Group 4383" transform="translate(3.75 1.398)">
            <g id="Group_4344" data-name="Group 4344">
              <path id="Path_1438" data-name="Path 1438" d="M92.324,157.234a4.624,4.624,0,0,1,4.156-5.178A4.716,4.716,0,0,1,101.5,156.1a48.272,48.272,0,0,1,.592,5.1,3.768,3.768,0,0,1-1.981,3.574,3.078,3.078,0,0,1-.624.155h0a.016.016,0,0,0-.013.018l.527,2.724a3.066,3.066,0,0,1-2.539,3.636,3.143,3.143,0,0,1-3.458-2.9Z" transform="translate(-92.288 -152.035)" fill="#ffbe9d"/>
            </g>
            <g id="Group_4350" data-name="Group 4350" transform="translate(7.329 5.16)">
              <g id="Group_4349" data-name="Group 4349">
                <g id="Group_4348" data-name="Group 4348">
                  <g id="Group_4347" data-name="Group 4347">
                    <g id="Group_4346" data-name="Group 4346">
                      <g id="Group_4345" data-name="Group 4345">
                        <path id="Path_1439" data-name="Path 1439" d="M115.555,167.672c-.039.055-.353-.113-.754-.053s-.667.3-.717.261c-.025-.019.01-.113.124-.225a1.035,1.035,0,0,1,.565-.269.994.994,0,0,1,.609.1C115.52,167.565,115.574,167.646,115.555,167.672Z" transform="translate(-114.076 -167.375)" fill="#263238"/>
                      </g>
                    </g>
                  </g>
                </g>
              </g>
            </g>
            <g id="Group_4356" data-name="Group 4356" transform="translate(3.755 5.934)">
              <g id="Group_4355" data-name="Group 4355">
                <g id="Group_4354" data-name="Group 4354">
                  <g id="Group_4353" data-name="Group 4353">
                    <g id="Group_4352" data-name="Group 4352">
                      <g id="Group_4351" data-name="Group 4351">
                        <path id="Path_1440" data-name="Path 1440" d="M104.931,169.974c-.039.056-.353-.112-.754-.053s-.667.3-.717.26c-.025-.018.009-.113.124-.225a1.035,1.035,0,0,1,.565-.269,1,1,0,0,1,.609.1C104.9,169.867,104.95,169.948,104.931,169.974Z" transform="translate(-103.452 -169.677)" fill="#263238"/>
                      </g>
                    </g>
                  </g>
                </g>
              </g>
            </g>
            <g id="Group_4361" data-name="Group 4361" transform="translate(5.95 4.809)">
              <g id="Group_4360" data-name="Group 4360">
                <g id="Group_4359" data-name="Group 4359">
                  <g id="Group_4358" data-name="Group 4358">
                    <g id="Group_4357" data-name="Group 4357">
                      <path id="Path_1441" data-name="Path 1441" d="M110.65,169.653a2.7,2.7,0,0,1,.635-.213c.1-.026.2-.06.2-.133a.527.527,0,0,0-.113-.294l-.417-.737a13.521,13.521,0,0,1-.979-1.944,13.594,13.594,0,0,1,1.133,1.86l.4.743a.6.6,0,0,1,.112.395.261.261,0,0,1-.147.175.707.707,0,0,1-.171.049A2.661,2.661,0,0,1,110.65,169.653Z" transform="translate(-109.976 -166.333)" fill="#263238"/>
                    </g>
                  </g>
                </g>
              </g>
            </g>
            <g id="Group_4365" data-name="Group 4365" transform="translate(3.545 12.371)">
              <g id="Group_4364" data-name="Group 4364">
                <g id="Group_4363" data-name="Group 4363">
                  <g id="Group_4362" data-name="Group 4362">
                    <path id="Path_1442" data-name="Path 1442" d="M106.469,189.341a6.463,6.463,0,0,1-3.642-.53s.911,1.961,3.784,1.264Z" transform="translate(-102.827 -188.811)" fill="#eb996e"/>
                  </g>
                </g>
              </g>
            </g>
            <g id="Group_4369" data-name="Group 4369" transform="translate(5.43 8.924)">
              <g id="Group_4368" data-name="Group 4368">
                <g id="Group_4367" data-name="Group 4367">
                  <g id="Group_4366" data-name="Group 4366">
                    <path id="Path_1443" data-name="Path 1443" d="M109.6,178.764a.732.732,0,0,0-.688-.174.667.667,0,0,0-.42.311.423.423,0,0,0,.038.483.492.492,0,0,0,.546.057,1.539,1.539,0,0,0,.469-.381.446.446,0,0,0,.1-.136.135.135,0,0,0-.023-.149" transform="translate(-108.429 -178.566)" fill="#eb996e"/>
                  </g>
                </g>
              </g>
            </g>
            <g id="Group_4374" data-name="Group 4374" transform="translate(5.442 8.579)">
              <g id="Group_4373" data-name="Group 4373">
                <g id="Group_4372" data-name="Group 4372">
                  <g id="Group_4371" data-name="Group 4371">
                    <g id="Group_4370" data-name="Group 4370">
                      <path id="Path_1444" data-name="Path 1444" d="M108.507,177.54c.065-.013.129.422.548.677s.875.14.888.2c.01.027-.091.1-.287.134a1.1,1.1,0,0,1-.737-.142.955.955,0,0,1-.431-.572C108.444,177.658,108.477,177.542,108.507,177.54Z" transform="translate(-108.466 -177.54)" fill="#263238"/>
                    </g>
                  </g>
                </g>
              </g>
            </g>
            <g id="Group_4378" data-name="Group 4378" transform="translate(3.15 4.718)">
              <g id="Group_4377" data-name="Group 4377">
                <g id="Group_4376" data-name="Group 4376">
                  <g id="Group_4375" data-name="Group 4375">
                    <path id="Path_1445" data-name="Path 1445" d="M103.46,166.267c-.024.115-.432.122-.9.247s-.825.309-.9.221c-.035-.043.016-.155.155-.283a1.613,1.613,0,0,1,1.369-.357C103.369,166.139,103.469,166.213,103.46,166.267Z" transform="translate(-101.652 -166.061)" fill="#263238"/>
                  </g>
                </g>
              </g>
            </g>
            <g id="Group_4382" data-name="Group 4382" transform="translate(7.023 3.894)">
              <g id="Group_4381" data-name="Group 4381">
                <g id="Group_4380" data-name="Group 4380">
                  <g id="Group_4379" data-name="Group 4379">
                    <path id="Path_1446" data-name="Path 1446" d="M114.545,163.935c-.058.1-.348.047-.681.091s-.605.151-.684.065c-.035-.042,0-.14.106-.244a1,1,0,0,1,1.1-.126C114.518,163.8,114.57,163.886,114.545,163.935Z" transform="translate(-113.166 -163.61)" fill="#263238"/>
                  </g>
                </g>
              </g>
            </g>
          </g>
          <g id="Group_4384" data-name="Group 4384" transform="translate(5.153)">
            <path id="Path_1447" data-name="Path 1447" d="M104.738,152.813c-.491.749-2.05.287-2.991-.228a2.238,2.238,0,0,1-3.055-.633,1.236,1.236,0,0,1-2.031-.314,2.441,2.441,0,0,1,.373-2.513,3.51,3.51,0,0,1,2.14-1.164,4.963,4.963,0,0,1,5.042,2.077,3.323,3.323,0,0,1,.521,2.774" transform="translate(-96.459 -147.877)" fill="#263238"/>
          </g>
          <g id="Group_4385" data-name="Group 4385" transform="translate(0 1.153)">
            <path id="Path_1448" data-name="Path 1448" d="M87.009,151.347a3.475,3.475,0,0,0-3.645,2.681c-.306,2.185-.011,2.458-.411,3.506-.259.68-1.157,1.378-1.512,2.08a4.26,4.26,0,0,0-.115,2.833c.223.677,1.134,2.568,1.134,2.568a25.2,25.2,0,0,0,3.968-.429,2.225,2.225,0,0,0,.948-.443c.254-.231-.272-1.033-.224-1.372.138-.969.863-1.529.656-2.485-.275-1.269-1.274-1.334-1.252-2.633.012-.69,1.039-1.679,1.134-2.362s.491-3.063-.681-3.943" transform="translate(-81.14 -151.305)" fill="#263238"/>
          </g>
          <g id="Group_4387" data-name="Group 4387" transform="translate(1.213 3.616)">
            <g id="Group_4386" data-name="Group 4386">
              <path id="Path_1449" data-name="Path 1449" d="M86.415,169.953c.009-.009-.128-.147-.349-.416a5.7,5.7,0,0,1-.781-1.241,4.129,4.129,0,0,1-.382-2.106,3.334,3.334,0,0,1,1.162-2.286c.363-.3.779-.517,1.133-.813a2.2,2.2,0,0,0,.735-1.1,6.824,6.824,0,0,0,.218-1.166,5.308,5.308,0,0,1,.2-.991,1.718,1.718,0,0,1,.9-1.08,1.5,1.5,0,0,1,.52-.109.365.365,0,0,0-.141-.02,1.014,1.014,0,0,0-.4.073,1.75,1.75,0,0,0-.978,1.1,5.18,5.18,0,0,0-.225,1.009,6.958,6.958,0,0,1-.226,1.14,2.064,2.064,0,0,1-.7,1.024c-.339.282-.754.5-1.134.81a3.447,3.447,0,0,0-1.206,2.393,4.163,4.163,0,0,0,.425,2.165,5.213,5.213,0,0,0,.835,1.234,3.94,3.94,0,0,0,.285.288C86.374,169.926,86.412,169.957,86.415,169.953Z" transform="translate(-84.746 -158.628)" fill="#455a64"/>
            </g>
          </g>
          <g id="Group_4389" data-name="Group 4389" transform="translate(12.821 3.702)">
            <g id="Group_4388" data-name="Group 4388">
              <path id="Path_1450" data-name="Path 1450" d="M122.153,168.978s.027-.03.066-.095a2.408,2.408,0,0,0,.148-.3,3.139,3.139,0,0,0,.229-1.191,3.205,3.205,0,0,0-.494-1.728,7.785,7.785,0,0,0-.663-.83,2.257,2.257,0,0,1-.526-.949,14.463,14.463,0,0,1,.035-2.165,3.632,3.632,0,0,0-.485-1.732,2.909,2.909,0,0,0-.821-.893,2.284,2.284,0,0,0-.282-.172c-.067-.035-.1-.051-.106-.046s.131.089.351.266a3.076,3.076,0,0,1,.763.9,3.612,3.612,0,0,1,.437,1.683,7.334,7.334,0,0,1-.065,1.042,3.539,3.539,0,0,0,.022,1.152,2.381,2.381,0,0,0,.56,1.012,8.029,8.029,0,0,1,.66.81,3.165,3.165,0,0,1,.5,1.652,3.355,3.355,0,0,1-.176,1.169C122.216,168.833,122.139,168.971,122.153,168.978Z" transform="translate(-119.254 -158.882)" fill="#455a64"/>
            </g>
          </g>
          <g id="Group_4391" data-name="Group 4391" transform="translate(8.247 0.275)">
            <g id="Group_4390" data-name="Group 4390">
              <path id="Path_1451" data-name="Path 1451" d="M105.656,148.771a7.833,7.833,0,0,1,1.138.064,4.146,4.146,0,0,1,2.358,1.268,5.149,5.149,0,0,1,1.133,2.455,6.72,6.72,0,0,1,.058,1.138,1.023,1.023,0,0,0,.064-.3,3.617,3.617,0,0,0-.014-.849A4.943,4.943,0,0,0,109.268,150a4.062,4.062,0,0,0-2.458-1.274,3.547,3.547,0,0,0-.849-.014A.981.981,0,0,0,105.656,148.771Z" transform="translate(-105.656 -148.694)" fill="#455a64"/>
            </g>
          </g>
          <g id="Group_4393" data-name="Group 4393" transform="translate(6.067 0.498)">
            <g id="Group_4392" data-name="Group 4392">
              <path id="Path_1452" data-name="Path 1452" d="M103.893,152.7a.766.766,0,0,0,.037-.267,2.684,2.684,0,0,0-.076-.733,3.013,3.013,0,0,0-3.784-2.228,2.675,2.675,0,0,0-.677.288.769.769,0,0,0-.215.162,5.588,5.588,0,0,1,.92-.344,3.008,3.008,0,0,1,3.651,2.15A5.615,5.615,0,0,1,103.893,152.7Z" transform="translate(-99.177 -149.359)" fill="#455a64"/>
            </g>
          </g>
        </g>
        <g id="Group_4410" data-name="Group 4410" transform="translate(12.624 22.569)">
          <g id="Group_4405" data-name="Group 4405">
            <g id="Group_4396" data-name="Group 4396">
              <g id="Group_4395" data-name="Group 4395">
                <path id="Path_1453" data-name="Path 1453" d="M79.978,195.251a13.037,13.037,0,0,1,1.1,3.908,43.242,43.242,0,0,1-1.267,5.33l14.224,1.331.066-3.29L93.669,189l7.931-12.066-6-3.478-5.834,7.908-1.477-.573-6.381.809v1.128l-.183.022a13.038,13.038,0,0,0-3.976,1.558,6.654,6.654,0,0,0-3.046,6.75,10.235,10.235,0,0,0,1.731,4.707C78.285,197.931,79.978,195.251,79.978,195.251Z" transform="translate(-74.614 -173.454)" fill="#096b66"/>
              </g>
            </g>
            <g id="Group_4397" data-name="Group 4397" transform="translate(2.791 9.536)">
              <path id="Path_1454" data-name="Path 1454" d="M83.467,207.748s-.728-4.131-.517-4.428a12.3,12.3,0,0,1,3.285-1.508l.657,4.542Z" transform="translate(-82.912 -201.802)" fill="#fafafa"/>
            </g>
            <g id="Group_4398" data-name="Group 4398" transform="translate(15.129 15.711)">
              <path id="Path_1455" data-name="Path 1455" d="M119.931,220.161l-.34,7.922h2.991v-7.922Z" transform="translate(-119.591 -220.161)" fill="#fafafa"/>
            </g>
            <g id="Group_4400" data-name="Group 4400" transform="translate(10.091 19.614)">
              <g id="Group_4399" data-name="Group 4399">
                <path id="Path_1456" data-name="Path 1456" d="M105.042,231.822a.859.859,0,0,1,.17-.012l.515-.014,1.967-.031h.057v.058c.018,1.9.03,4.744.03,7.922v.087h-.261l-2.818,0h-.089l0-.088c.114-2.284.212-4.267.284-5.7.039-.684.071-1.237.094-1.641.012-.175.022-.318.03-.433a.662.662,0,0,1,.017-.142,1.059,1.059,0,0,1,0,.163c0,.119-.005.268-.008.451-.012.409-.028.969-.047,1.662-.051,1.423-.122,3.387-.2,5.65l-.084-.088,2.818,0h.173l-.087.087c0-3.178.012-6.02.03-7.922l.057.057-1.933-.031-.527-.014A1.373,1.373,0,0,1,105.042,231.822Z" transform="translate(-104.613 -231.764)" fill="#fafafa"/>
              </g>
            </g>
            <g id="Group_4401" data-name="Group 4401" transform="translate(18.898 4.769)">
              <path id="Path_1457" data-name="Path 1457" d="M133.954,193.672l-3.158-1.994,2.773-4.044,3.233,1.875Z" transform="translate(-130.796 -187.633)" fill="#fafafa"/>
            </g>
            <g id="Group_4402" data-name="Group 4402" transform="translate(9.638 11.053)" opacity="0.4">
              <rect id="Rectangle_5018" data-name="Rectangle 5018" width="9.26" height="3.003" fill="#fff"/>
            </g>
            <g id="Group_4404" data-name="Group 4404" transform="translate(18.125 12.312)">
              <g id="Group_4403" data-name="Group 4403">
                <path id="Path_1458" data-name="Path 1458" d="M129.136,216.967a.875.875,0,0,1,.016-.278c.023-.176.052-.432.08-.747a13.429,13.429,0,0,0-.45-4.9c-.171-.61-.308-.98-.282-.991a.864.864,0,0,1,.13.247,7.387,7.387,0,0,1,.27.708,11.123,11.123,0,0,1,.454,4.947,7.362,7.362,0,0,1-.136.745A.847.847,0,0,1,129.136,216.967Z" transform="translate(-128.497 -210.055)" fill="#263238"/>
              </g>
            </g>
          </g>
          <g id="Group_4407" data-name="Group 4407" transform="translate(18.898 1.315)">
            <g id="Group_4406" data-name="Group 4406">
              <path id="Path_1459" data-name="Path 1459" d="M135.151,177.363a4.394,4.394,0,0,1-.541.7c-.351.414-.844.979-1.4,1.6l-.594.656-.049.054-.06-.04c-.508-.345-.942-.647-1.247-.867a2.5,2.5,0,0,1-.468-.374,2.486,2.486,0,0,1,.526.287c.321.2.767.479,1.281.815l-.109.014.588-.661c.553-.616,1.062-1.168,1.436-1.561A4.4,4.4,0,0,1,135.151,177.363Z" transform="translate(-130.795 -177.363)" fill="#fafafa"/>
            </g>
          </g>
          <g id="Group_4409" data-name="Group 4409" transform="translate(20.352 0.85)">
            <g id="Group_4408" data-name="Group 4408">
              <path id="Path_1460" data-name="Path 1460" d="M141.292,179.308a6.01,6.01,0,0,1-.933-.433c-.566-.287-1.342-.694-2.195-1.153s-1.619-.884-2.17-1.2a5.992,5.992,0,0,1-.875-.542,6.009,6.009,0,0,1,.933.433c.566.287,1.342.694,2.195,1.153s1.619.884,2.17,1.2A6.009,6.009,0,0,1,141.292,179.308Z" transform="translate(-135.119 -175.98)" fill="#263238"/>
            </g>
          </g>
        </g>
        <g id="Group_4429" data-name="Group 4429" transform="translate(2.763 109.24)">
          <g id="Group_4427" data-name="Group 4427">
            <g id="Group_4411" data-name="Group 4411">
              <path id="Path_1461" data-name="Path 1461" d="M49.689,431.116l-1.525,6.892-2.778,5.1a.723.723,0,0,0,.334,1h0a.718.718,0,0,0,.661-.03c1.292-.747,6.033-3.517,6.116-4.028.1-.591,2.091-7.163,2.091-7.163Z" transform="translate(-45.298 -431.116)" fill="#096b66"/>
            </g>
            <g id="Group_4412" data-name="Group 4412" transform="translate(0.422 8.478)" opacity="0.6">
              <path id="Path_1462" data-name="Path 1462" d="M46.552,460.841l6.891-4.52-.071.29a1.089,1.089,0,0,1-.419.624c-.561.4-2.134,1.488-5.719,3.581a.722.722,0,0,1-.682.025Z" transform="translate(-46.552 -456.321)" fill="#fff"/>
            </g>
            <g id="Group_4414" data-name="Group 4414" transform="translate(6.176 5.893)" opacity="0.6">
              <g id="Group_4413" data-name="Group 4413">
                <path id="Path_1463" data-name="Path 1463" d="M63.932,448.664a.438.438,0,0,0-.253.526.421.421,0,0,0,.52.255.461.461,0,0,0,.264-.559.437.437,0,0,0-.57-.205" transform="translate(-63.66 -448.636)" fill="#fff"/>
              </g>
            </g>
            <g id="Group_4416" data-name="Group 4416" transform="translate(1.501 9.324)">
              <g id="Group_4415" data-name="Group 4415">
                <path id="Path_1464" data-name="Path 1464" d="M50.983,459.9a1.56,1.56,0,0,0-1.222-1.025c0-.018.1-.05.264-.034a1.153,1.153,0,0,1,.946.793C51.016,459.794,51,459.9,50.983,459.9Z" transform="translate(-49.761 -458.835)" fill="#fff"/>
              </g>
            </g>
            <g id="Group_4418" data-name="Group 4418" transform="translate(0.827 10.451)">
              <g id="Group_4417" data-name="Group 4417">
                <path id="Path_1465" data-name="Path 1465" d="M48.94,462.921c-.04.022-.205-.255-.535-.444a5.969,5.969,0,0,0-.648-.251.8.8,0,0,1,.727.117C48.857,462.56,48.98,462.911,48.94,462.921Z" transform="translate(-47.756 -462.186)" fill="#fff"/>
              </g>
            </g>
            <g id="Group_4420" data-name="Group 4420" transform="translate(2.183 8.194)">
              <g id="Group_4419" data-name="Group 4419">
                <path id="Path_1466" data-name="Path 1466" d="M53.526,456.715a7.228,7.228,0,0,0-.779-.741,7.162,7.162,0,0,0-.959-.486,1.978,1.978,0,0,1,1.738,1.227Z" transform="translate(-51.788 -455.475)" fill="#fff"/>
              </g>
            </g>
            <g id="Group_4422" data-name="Group 4422" transform="translate(2.79 6.793)">
              <g id="Group_4421" data-name="Group 4421">
                <path id="Path_1467" data-name="Path 1467" d="M55.362,451.9c-.028.037-.368-.215-.857-.353s-.908-.116-.913-.162a1.8,1.8,0,0,1,1.769.515Z" transform="translate(-53.592 -451.311)" fill="#fff"/>
              </g>
            </g>
            <g id="Group_4424" data-name="Group 4424" transform="translate(3.211 4.789)">
              <g id="Group_4423" data-name="Group 4423">
                <path id="Path_1468" data-name="Path 1468" d="M56.691,445.93a2.3,2.3,0,0,0-1.847-.386c-.008-.017.088-.085.269-.137a1.574,1.574,0,0,1,1.387.29C56.644,445.817,56.7,445.917,56.691,445.93Z" transform="translate(-54.844 -445.353)" fill="#fff"/>
              </g>
            </g>
            <g id="Group_4426" data-name="Group 4426" transform="translate(3.391 3.274)">
              <g id="Group_4425" data-name="Group 4425">
                <path id="Path_1469" data-name="Path 1469" d="M56.271,442.17a.61.61,0,0,1,.054-.262,1.855,1.855,0,0,1,.373-.629.822.822,0,0,1,.436-.3.291.291,0,0,1,.3.141.474.474,0,0,1,.033.336,1.022,1.022,0,0,1-1.1.705,1.186,1.186,0,0,1-.984-.88.411.411,0,0,1,.063-.337.285.285,0,0,1,.326-.075,1.011,1.011,0,0,1,.394.345,2.063,2.063,0,0,1,.337.647.622.622,0,0,1,.047.263,3.292,3.292,0,0,0-.47-.841.949.949,0,0,0-.351-.293.152.152,0,0,0-.178.04.283.283,0,0,0-.028.224,1.059,1.059,0,0,0,.861.753.887.887,0,0,0,.938-.585.342.342,0,0,0-.013-.235.157.157,0,0,0-.166-.08.742.742,0,0,0-.374.245A2.763,2.763,0,0,0,56.271,442.17Z" transform="translate(-55.38 -440.85)" fill="#fff"/>
              </g>
            </g>
          </g>
          <g id="Group_4428" data-name="Group 4428" transform="translate(4.008)" opacity="0.3">
            <path id="Path_1470" data-name="Path 1470" d="M57.418,431.864l-.2.982,4.866,1.426.416-1.378-4.9-1.778Z" transform="translate(-57.213 -431.116)"/>
          </g>
        </g>
        <g id="Group_4448" data-name="Group 4448" transform="translate(23.817 111.569)">
          <g id="Group_4442" data-name="Group 4442">
            <g id="Group_4430" data-name="Group 4430" transform="translate(0)">
              <path id="Path_1471" data-name="Path 1471" d="M113.527,438.261l-.412,5.507s5.46,2.269,5.483,3.294l-10.707-.415.29-8.607Z" transform="translate(-107.89 -438.039)" fill="#096b66"/>
            </g>
            <g id="Group_4432" data-name="Group 4432" transform="translate(1.604 5.122)" opacity="0.6">
              <g id="Group_4431" data-name="Group 4431">
                <path id="Path_1472" data-name="Path 1472" d="M112.986,453.281a.437.437,0,0,0-.322.487.421.421,0,0,0,.48.323.462.462,0,0,0,.338-.518.437.437,0,0,0-.537-.281" transform="translate(-112.658 -453.267)" fill="#fff"/>
              </g>
            </g>
            <g id="Group_4433" data-name="Group 4433" transform="translate(0 7.741)" opacity="0.6">
              <path id="Path_1473" data-name="Path 1473" d="M107.89,461.919l.063-.867,10.242.722s.469.226.4.56Z" transform="translate(-107.89 -461.052)" fill="#fff"/>
            </g>
            <g id="Group_4435" data-name="Group 4435" transform="translate(4.402 5.626)">
              <g id="Group_4434" data-name="Group 4434">
                <path id="Path_1474" data-name="Path 1474" d="M121.974,454.82c0,.052-.266.066-.53.224s-.409.372-.457.35.042-.322.365-.508S121.987,454.772,121.974,454.82Z" transform="translate(-120.975 -454.764)" fill="#fff"/>
              </g>
            </g>
            <g id="Group_4437" data-name="Group 4437" transform="translate(5.768 6.166)">
              <g id="Group_4436" data-name="Group 4436">
                <path id="Path_1475" data-name="Path 1475" d="M125.775,456.393c.01.051-.22.131-.406.345s-.247.446-.3.442-.074-.3.163-.563S125.776,456.343,125.775,456.393Z" transform="translate(-125.038 -456.369)" fill="#fff"/>
              </g>
            </g>
            <g id="Group_4439" data-name="Group 4439" transform="translate(7.035 6.672)">
              <g id="Group_4438" data-name="Group 4438">
                <path id="Path_1476" data-name="Path 1476" d="M128.861,458.759c-.048.009-.111-.255.035-.536s.394-.385.415-.341-.137.192-.253.424S128.913,458.756,128.861,458.759Z" transform="translate(-128.805 -457.873)" fill="#fff"/>
              </g>
            </g>
            <g id="Group_4441" data-name="Group 4441" transform="translate(4.24 4.207)">
              <g id="Group_4440" data-name="Group 4440">
                <path id="Path_1477" data-name="Path 1477" d="M121.609,450.756c-.024.047-.261-.035-.557-.026s-.53.093-.556.047.2-.224.552-.229S121.636,450.715,121.609,450.756Z" transform="translate(-120.494 -450.547)" fill="#fff"/>
              </g>
            </g>
          </g>
          <g id="Group_4443" data-name="Group 4443" transform="translate(0.221 0.907)" opacity="0.3">
            <path id="Path_1478" data-name="Path 1478" d="M113.88,441.14l-.072.982-5.261-.252.035-1.135Z" transform="translate(-108.547 -440.735)"/>
          </g>
          <g id="Group_4445" data-name="Group 4445" transform="translate(3.814 2.388)">
            <g id="Group_4444" data-name="Group 4444">
              <path id="Path_1479" data-name="Path 1479" d="M120.831,446.054a1.006,1.006,0,0,1-.536-.024,2.415,2.415,0,0,1-.554-.194,2.548,2.548,0,0,1-.3-.175.668.668,0,0,1-.157-.132.228.228,0,0,1-.013-.279.287.287,0,0,1,.234-.111.693.693,0,0,1,.2.036,1.916,1.916,0,0,1,.329.127,1.888,1.888,0,0,1,.482.344c.239.24.317.438.3.448s-.139-.152-.384-.352a2.146,2.146,0,0,0-.468-.288,2.008,2.008,0,0,0-.3-.107c-.112-.034-.209-.039-.24.01-.011.019-.013.026.009.061a.528.528,0,0,0,.115.1,2.792,2.792,0,0,0,.277.173,2.986,2.986,0,0,0,.511.219A3.69,3.69,0,0,1,120.831,446.054Z" transform="translate(-119.227 -445.139)" fill="#fff"/>
            </g>
          </g>
          <g id="Group_4447" data-name="Group 4447" transform="translate(5.225 1.69)">
            <g id="Group_4446" data-name="Group 4446">
              <path id="Path_1480" data-name="Path 1480" d="M123.544,444.749a.854.854,0,0,1-.121-.523,1.733,1.733,0,0,1,.245-.9.443.443,0,0,1,.353-.257.251.251,0,0,1,.218.158.721.721,0,0,1,.047.2,1.19,1.19,0,0,1-.014.361,1.23,1.23,0,0,1-.251.545c-.22.269-.441.323-.444.305s.17-.121.34-.381a1.235,1.235,0,0,0,.189-.5,1.1,1.1,0,0,0,0-.31c-.012-.114-.051-.208-.095-.2s-.147.079-.194.169a1.773,1.773,0,0,0-.144.286,1.923,1.923,0,0,0-.124.531C123.525,444.544,123.573,444.742,123.544,444.749Z" transform="translate(-123.423 -443.064)" fill="#fff"/>
            </g>
          </g>
        </g>
        <g id="Group_4462" data-name="Group 4462" transform="translate(12.863 25.96)">
          <g id="Group_4454" data-name="Group 4454" transform="translate(0.157)">
            <g id="Group_4450" data-name="Group 4450" transform="translate(0 0.086)">
              <g id="Group_4449" data-name="Group 4449">
                <path id="Path_1481" data-name="Path 1481" d="M78.66,198.994l2.771.153a13.954,13.954,0,0,0,.783,2.272A46.027,46.027,0,0,0,86.6,190.277c-.063-.208-.137-.439-.229-.7a2.958,2.958,0,0,1,.035-1.172c.075-.464.2-1.089.244-1.377.119-.881.261-1.019.568-.919.418.136-.171,2.474.171,2.524.184.027.409-.774.474-1.431a10.711,10.711,0,0,1,.58-2.814c.319-.2.6.115.516.77s-.184,2.638.163,2.664.629-3.325.629-3.325-.054-.729.348-.712c.725.032.159,3.565.1,3.9-.043.233.333.275.367.023s.209-3.352.948-3.327c.567.019-.439,2.912-.121,3.583s.54-2.278,1.081-2.237c.2.015.35.054-.02,1.723a37.628,37.628,0,0,1-1.294,3.91c-.858,4.626-4.622,19.425-10.523,16.716-3.3-1.516-4.843-9.021-4.843-9.021Z" transform="translate(-75.792 -183.788)" fill="#ffbe9d"/>
              </g>
            </g>
            <g id="Group_4453" data-name="Group 4453" transform="translate(10.503)">
              <g id="Group_4452" data-name="Group 4452">
                <g id="Group_4451" data-name="Group 4451">
                  <path id="Path_1482" data-name="Path 1482" d="M111.88,191.2a.476.476,0,0,1,.028-.1l.1-.291.386-1.117c.164-.486.366-1.08.567-1.779.1-.349.186-.727.264-1.132.038-.2.076-.411.1-.625a2.145,2.145,0,0,0,.015-.321c-.008-.11-.025-.2-.112-.2-.09-.024-.15.05-.212.143a1.741,1.741,0,0,0-.14.313c-.079.222-.141.459-.2.7s-.118.491-.192.745a1.159,1.159,0,0,1-.169.389.154.154,0,0,1-.077.047.129.129,0,0,1-.106-.024.337.337,0,0,1-.078-.106.75.75,0,0,1-.06-.215,6.937,6.937,0,0,1,.167-1.682c.048-.283.1-.57.137-.86a3.975,3.975,0,0,0,.035-.435c.005-.134-.018-.314-.077-.34s-.2.055-.272.174a1.784,1.784,0,0,0-.185.4,6.144,6.144,0,0,0-.217.9c-.054.31-.1.627-.13.948l-.047.484-.021.245a.366.366,0,0,1-.112.285.289.289,0,0,1-.334.013.233.233,0,0,1-.1-.16.3.3,0,0,1,0-.09l.01-.06q.038-.246.075-.493c.046-.331.087-.666.119-1s.055-.679.06-1.021a3.4,3.4,0,0,0-.1-1,.343.343,0,0,0-.142-.2.176.176,0,0,0-.19.061.945.945,0,0,0-.106.548v.014c-.06.663-.133,1.315-.228,1.955-.049.32-.1.637-.182.95-.02.078-.044.156-.072.235a.489.489,0,0,1-.16.244.172.172,0,0,1-.207-.045.406.406,0,0,1-.077-.127,1.254,1.254,0,0,1-.063-.243,9.141,9.141,0,0,1-.017-1.848,5.059,5.059,0,0,0,.046-.865.474.474,0,0,0-.157-.321.179.179,0,0,0-.145-.022.337.337,0,0,0-.079.033c-.026.021-.02.013-.04.049a3.865,3.865,0,0,0-.222.785c-.056.27-.1.538-.146.8s-.081.527-.115.785-.053.515-.1.767a4.123,4.123,0,0,1-.2.73,1.466,1.466,0,0,1-.081.173c-.039.053-.062.122-.17.155a.142.142,0,0,1-.143-.06.354.354,0,0,1-.044-.1,1.042,1.042,0,0,1-.023-.188c-.006-.481.065-.922.089-1.347a3.324,3.324,0,0,0,0-.613c-.013-.09-.042-.2-.094-.218a.261.261,0,0,0-.23-.005.813.813,0,0,0-.209.462c-.04.174-.058.347-.09.514-.117.667-.242,1.24-.3,1.708a2.283,2.283,0,0,0-.009.621c.039.171.1.322.129.44l.081.272a.4.4,0,0,1,.022.095.43.43,0,0,1-.038-.089l-.1-.267c-.039-.12-.1-.258-.146-.442a2.259,2.259,0,0,1-.007-.638c.051-.477.165-1.045.273-1.714.03-.166.046-.343.085-.522a2.056,2.056,0,0,1,.074-.273.5.5,0,0,1,.177-.259.366.366,0,0,1,.333,0c.132.076.137.2.16.3a3.381,3.381,0,0,1,.008.637c-.021.428-.087.878-.078,1.334a.938.938,0,0,0,.02.161c.012.055.04.076.034.065.01,0,.053-.047.077-.091a1.3,1.3,0,0,0,.072-.156,4.035,4.035,0,0,0,.185-.705c.047-.244.063-.5.1-.76s.069-.523.111-.79.088-.537.143-.811a3.835,3.835,0,0,1,.236-.833.269.269,0,0,1,.1-.109.485.485,0,0,1,.119-.049.34.34,0,0,1,.269.042.62.62,0,0,1,.23.431,1.731,1.731,0,0,1,0,.461c-.017.145-.029.292-.039.44a9.04,9.04,0,0,0,.02,1.807,1.109,1.109,0,0,0,.054.209.257.257,0,0,0,.042.073.028.028,0,0,0,.014.011h0c0,.066,0,.014,0,.027,0-.012,0-.01-.011-.024a.539.539,0,0,0,.082-.155q.037-.106.066-.219c.077-.3.128-.616.177-.933.094-.635.165-1.286.225-1.944v.014a1.077,1.077,0,0,1,.143-.669.35.35,0,0,1,.394-.115.5.5,0,0,1,.242.309,3.511,3.511,0,0,1,.109,1.064c-.005.349-.03.694-.062,1.035s-.074.678-.121,1.011l-.077.5c-.021.1-.016.108.015.139a.119.119,0,0,0,.131-.005c.036-.024.04-.073.048-.165l.022-.245c.016-.163.033-.326.049-.487.036-.323.079-.643.134-.958a6.3,6.3,0,0,1,.226-.927,1.938,1.938,0,0,1,.205-.438.632.632,0,0,1,.181-.187.313.313,0,0,1,.293-.042.329.329,0,0,1,.154.249,1.332,1.332,0,0,1,.015.24,4.149,4.149,0,0,1-.038.454c-.039.3-.092.583-.142.867a6.951,6.951,0,0,0-.175,1.635.61.61,0,0,0,.045.172.256.256,0,0,0,.036.056s0-.005-.007.012,0-.005,0,0c-.011-.017,0-.012,0-.019a1.145,1.145,0,0,0,.138-.331c.073-.246.132-.5.2-.738s.127-.482.211-.711a1.878,1.878,0,0,1,.154-.335.567.567,0,0,1,.128-.149.262.262,0,0,1,.1-.05.323.323,0,0,1,.108,0,.219.219,0,0,1,.178.131.541.541,0,0,1,.036.187,2.254,2.254,0,0,1-.019.341c-.026.22-.067.429-.107.633-.082.406-.171.789-.279,1.138-.211.7-.422,1.292-.6,1.774s-.318.855-.417,1.106l-.115.285A.449.449,0,0,1,111.88,191.2Z" transform="translate(-107.017 -183.533)" fill="#eb996e"/>
                </g>
              </g>
            </g>
          </g>
          <g id="Group_4455" data-name="Group 4455" transform="translate(0.126 13.088)">
            <path id="Path_1483" data-name="Path 1483" d="M75.7,224.967c.536,1.891,1.583,4.813,2.709,7.893a.534.534,0,0,0,.985.046l2.76-5.835s-.665-4.793-.608-4.624-5.694.62-5.694.62Z" transform="translate(-75.698 -222.442)" fill="#096b66"/>
          </g>
          <g id="Group_4457" data-name="Group 4457" transform="translate(5.475 12.428)">
            <g id="Group_4456" data-name="Group 4456">
              <path id="Path_1484" data-name="Path 1484" d="M93.712,224.127c-.012.012-.072-.054-.211-.095a.529.529,0,0,0-.533.141l-.073.083-.041-.1c-.148-.375-.332-.865-.524-1.4a16.232,16.232,0,0,1-.723-2.272,16.3,16.3,0,0,1,.888,2.213c.193.536.363,1.031.487,1.415l-.114-.023a.572.572,0,0,1,.365-.17.6.6,0,0,1,.295.048C93.68,224.032,93.721,224.123,93.712,224.127Z" transform="translate(-91.602 -220.478)" fill="#263238"/>
            </g>
          </g>
          <g id="Group_4459" data-name="Group 4459" transform="translate(3.672 16.19)">
            <g id="Group_4458" data-name="Group 4458">
              <path id="Path_1485" data-name="Path 1485" d="M86.242,237.1a4.8,4.8,0,0,1,.4-.827c.267-.5.646-1.184,1.073-1.935s.824-1.426,1.118-1.91a4.8,4.8,0,0,1,.508-.766,4.816,4.816,0,0,1-.4.827c-.267.5-.646,1.185-1.073,1.936s-.824,1.426-1.118,1.91A4.78,4.78,0,0,1,86.242,237.1Z" transform="translate(-86.24 -231.664)" fill="#263238"/>
            </g>
          </g>
          <g id="Group_4461" data-name="Group 4461" transform="translate(0 14.16)">
            <g id="Group_4460" data-name="Group 4460">
              <path id="Path_1486" data-name="Path 1486" d="M77.161,232.22a3.022,3.022,0,0,1,.481-.335c.315-.2.768-.484,1.318-.82l-.03.091L77.884,228.7c-.478-1.137-.906-2.176-1.217-2.955l.092.032c-.436.237-.791.426-1.039.553a1.947,1.947,0,0,1-.395.181,1.921,1.921,0,0,1,.359-.244c.237-.146.583-.353,1.011-.6l.062-.036.03.068c.338.768.781,1.8,1.259,2.938l1.02,2.465.025.059-.054.032c-.558.323-1.023.587-1.35.767A3.091,3.091,0,0,1,77.161,232.22Z" transform="translate(-75.324 -225.628)" fill="#fafafa"/>
            </g>
          </g>
        </g>
        <g id="Group_4475" data-name="Group 4475" transform="translate(0 51.001)">
          <g id="Group_4464" data-name="Group 4464">
            <g id="Group_4463" data-name="Group 4463">
              <path id="Path_1487" data-name="Path 1487" d="M66.751,320.156a1.977,1.977,0,0,0,1.914-1.854c.577-9.311,3.167-51.663,2.646-52.993-.585-1.494-2.12-6.685-2.12-6.685l-13.734-.645s-3.42,5.4-3.912,7.47c-.441,1.853-12.884,41.059-14.432,49.4a1.7,1.7,0,0,0,1.187,1.943Z" transform="translate(-37.085 -257.979)" fill="#263238"/>
            </g>
          </g>
          <g id="Group_4466" data-name="Group 4466" transform="translate(1.686 0.301)">
            <g id="Group_4465" data-name="Group 4465">
              <path id="Path_1488" data-name="Path 1488" d="M61.494,258.873s-.018.051-.062.147l-.2.423-.765,1.622-.5,1.2c-.185.436-.387.909-.57,1.432s-.4,1.071-.608,1.663l-.614,1.888-.608,2.1c-.2.733-.388,1.5-.594,2.293l-.572,2.472c-.179.854-.378,1.729-.555,2.633-.369,1.8-.731,3.7-1.116,5.671s-.791,4-1.275,6.076c-.227,1.039-.5,2.056-.747,3.062-.275,1-.54,1.986-.835,2.945-.585,1.92-1.223,3.749-1.876,5.473-1.317,3.445-2.678,6.476-3.868,9s-2.209,4.533-2.916,5.922l-.822,1.6-.218.412c-.05.092-.08.138-.08.138s.019-.051.064-.146l.2-.42.792-1.61c.688-1.4,1.687-3.42,2.865-5.944s2.523-5.558,3.83-9c.648-1.723,1.282-3.549,1.863-5.466.293-.958.557-1.943.831-2.94.249-1,.518-2.019.745-3.057.482-2.069.884-4.1,1.277-6.07s.753-3.866,1.127-5.67c.18-.9.381-1.78.563-2.634l.581-2.473c.209-.793.4-1.561.6-2.294l.62-2.1.627-1.888c.21-.592.428-1.143.622-1.662s.395-.994.585-1.429l.516-1.191c.336-.7.613-1.243.8-1.61l.212-.416C61.466,258.919,61.494,258.873,61.494,258.873Z" transform="translate(-42.097 -258.873)" fill="#455a64"/>
            </g>
          </g>
          <g id="Group_4468" data-name="Group 4468" transform="translate(8.956 0.301)">
            <g id="Group_4467" data-name="Group 4467">
              <path id="Path_1489" data-name="Path 1489" d="M63.711,318.2s.009-.053.035-.154l.12-.447.476-1.716,1.752-6.309c.733-2.665,1.589-5.843,2.516-9.378l1.43-5.553,1.493-5.972,1.44-5.987,1.3-5.585c.813-3.564,1.525-6.777,2.109-9.479l1.366-6.4.371-1.741.1-.452c.024-.1.04-.153.04-.153s0,.053-.023.156l-.084.455-.339,1.747-.555,2.762-.757,3.653c-.568,2.706-1.267,5.923-2.072,9.489-.408,1.782-.831,3.653-1.292,5.589L71.7,288.714l-1.5,5.972c-.487,1.928-.978,3.783-1.441,5.551-.936,3.533-1.8,6.709-2.553,9.37L65.194,313.2l-.786,2.705-.508,1.706-.136.443C63.732,318.15,63.711,318.2,63.711,318.2Z" transform="translate(-63.711 -258.873)" fill="#455a64"/>
            </g>
          </g>
          <g id="Group_4470" data-name="Group 4470" transform="translate(14.94 0.326)">
            <g id="Group_4469" data-name="Group 4469">
              <path id="Path_1490" data-name="Path 1490" d="M91.882,258.947s.011.052.026.156l.058.462.088.752c.034.3.041.643.067,1.032q.016.292.034.615,0,.324,0,.679t0,.741c0,.257-.022.523-.033.8s-.029.562-.044.857-.055.6-.083.909c-.046.626-.152,1.28-.236,1.971-.209,1.375-.486,2.875-.837,4.472s-.769,3.293-1.2,5.079-.875,3.662-1.248,5.624-.682,4.008-.948,6.11-.5,4.161-.713,6.148-.436,3.905-.666,5.729q-.187,1.366-.365,2.662c-.14.86-.264,1.7-.4,2.5s-.287,1.582-.443,2.325-.316,1.454-.476,2.131l-.5,1.919c-.17.6-.358,1.164-.519,1.692-.084.263-.158.52-.243.762l-.258.694-.452,1.213c-.3.718-.555,1.265-.72,1.64l-.193.423c-.044.1-.071.142-.071.142s.016-.052.055-.149l.177-.431c.154-.379.4-.93.688-1.65l.437-1.216.25-.695c.083-.242.154-.5.236-.762.156-.529.34-1.089.505-1.692l.491-1.918.464-2.129c.152-.742.282-1.52.432-2.323s.259-1.641.4-2.5l.357-2.66c.225-1.823.441-3.739.656-5.727s.441-4.047.71-6.152.585-4.153.953-6.12.825-3.844,1.259-5.63.856-3.479,1.215-5.072.64-3.088.856-4.459c.087-.688.2-1.34.247-1.964l.089-.906q.026-.441.05-.854c.013-.275.036-.541.04-.8s0-.5.007-.738,0-.462.006-.677-.017-.42-.026-.614c-.02-.388-.022-.733-.05-1.03l-.071-.753-.04-.464C91.882,259,91.882,258.947,91.882,258.947Z" transform="translate(-81.499 -258.947)" fill="#455a64"/>
            </g>
          </g>
          <g id="Group_4472" data-name="Group 4472" transform="translate(23.091 0.718)">
            <g id="Group_4471" data-name="Group 4471">
              <path id="Path_1491" data-name="Path 1491" d="M106.464,321.171s-.015-.052-.036-.155l-.087-.458-.136-.747c-.051-.3-.123-.635-.159-1.024l-.149-1.29c-.064-.471-.068-.988-.108-1.54-.014-.276-.036-.563-.046-.858s0-.6-.006-.915,0-.637-.006-.969l.037-1.02q.021-.523.043-1.07l.089-1.115c.05-.76.145-1.546.24-2.361s.229-1.652.347-2.517c.147-.861.283-1.75.457-2.655.663-3.627,1.583-7.574,2.421-11.739a117.756,117.756,0,0,0,1.767-11.844c.362-3.664.5-6.981.548-9.765.016-1.392.011-2.652-.005-3.758s-.048-2.059-.081-2.837-.064-1.382-.079-1.792c-.008-.2-.014-.354-.019-.466s0-.159,0-.159.009.053.018.158.021.267.036.465c.027.409.078,1.012.112,1.791s.08,1.731.111,2.838.039,2.368.031,3.762c-.03,2.787-.157,6.108-.511,9.779a115.154,115.154,0,0,1-1.756,11.863c-.839,4.17-1.764,8.114-2.434,11.734-.176.9-.314,1.79-.464,2.649-.12.863-.267,1.7-.355,2.511s-.2,1.6-.249,2.355q-.048.568-.094,1.112l-.048,1.067q-.022.521-.043,1.018,0,.5,0,.967t0,.913c.008.3.027.58.039.856.035.551.034,1.067.093,1.538s.093.9.133,1.289.1.728.143,1.024l.119.749.07.462C106.46,321.117,106.464,321.171,106.464,321.171Z" transform="translate(-105.731 -260.114)" fill="#455a64"/>
            </g>
          </g>
          <g id="Group_4474" data-name="Group 4474" transform="translate(27.938 0.609)">
            <g id="Group_4473" data-name="Group 4473">
              <path id="Path_1492" data-name="Path 1492" d="M123.563,259.79s.02.05.05.15l.13.446.205.728a10.218,10.218,0,0,1,.237,1c.074.381.177.8.252,1.268l.215,1.523q.066.825.141,1.762c.009.625.05,1.287.036,1.981a44.555,44.555,0,0,1-.292,4.532c-.192,1.621-.455,3.347-.78,5.152l-1.056,5.656c-.368,1.96-.692,4-.984,6.094s-.532,4.147-.727,6.132-.336,3.9-.453,5.733c-.1,1.83-.184,3.57-.217,5.2s-.052,3.148-.047,4.534.027,2.64.063,3.741.073,2.048.1,2.824.067,1.367.088,1.783c.008.2.015.352.02.464s0,.158,0,.158-.009-.053-.018-.157-.021-.265-.037-.463c-.029-.407-.077-1.008-.12-1.782s-.1-1.722-.132-2.824-.073-2.356-.088-3.743-.012-2.907.026-4.538.1-3.374.2-5.206c.113-1.831.244-3.753.443-5.741s.427-4.043.725-6.139.618-4.139.989-6.1l1.066-5.654c.329-1.8.6-3.524.795-5.14s.293-3.132.313-4.517c.019-.692-.018-1.351-.023-1.975q-.067-.932-.127-1.757l-.2-1.52c-.07-.466-.167-.886-.236-1.267s-.138-.718-.221-1.005l-.189-.731-.113-.451C123.571,259.844,123.563,259.79,123.563,259.79Z" transform="translate(-120.14 -259.79)" fill="#455a64"/>
            </g>
          </g>
        </g>
      </g>
    </g>
    <g id="Device" transform="translate(79.314 94.236)">
      <g id="Group_4611" data-name="Group 4611" transform="translate(0 0)">
        <g id="Group_4517" data-name="Group 4517">
          <g id="Group_4516" data-name="Group 4516">
            <g id="Group_4515" data-name="Group 4515">
              <g id="Group_4514" data-name="Group 4514">
                <g id="Group_4511" data-name="Group 4511">
                  <g id="Group_4510" data-name="Group 4510">
                    <path id="Path_1507" data-name="Path 1507" d="M219.062,218.985l-42.326-.2a9.22,9.22,0,0,1-9.177-9.259l.449-106.113a9.22,9.22,0,0,1,9.262-9.181l42.326.2a9.22,9.22,0,0,1,9.177,9.259L228.324,209.8A9.22,9.22,0,0,1,219.062,218.985Z" transform="translate(-167.558 -94.236)" fill="#263238"/>
                  </g>
                </g>
                <g id="Group_4513" data-name="Group 4513" transform="translate(2.46 2.981)">
                  <g id="Group_4512" data-name="Group 4512">
                    <path id="Path_1508" data-name="Path 1508" d="M224.038,103.292l-8.206-.038a2.039,2.039,0,0,0-2,2.074l-.007,1.488a2.038,2.038,0,0,1-2,2.074l-16-.074a2.041,2.041,0,0,1-1.984-2.092l.006-1.488a2.041,2.041,0,0,0-1.984-2.092l-2.886-.013L181.8,103.1a6.457,6.457,0,0,0-6.487,6.43L174.871,213.1a6.458,6.458,0,0,0,6.427,6.485l42.242.195a6.458,6.458,0,0,0,6.487-6.43l.438-103.575A6.457,6.457,0,0,0,224.038,103.292Z" transform="translate(-174.871 -103.097)" fill="#fafafa"/>
                  </g>
                </g>
              </g>
            </g>
          </g>
        </g>
        <g id="Group_4518" data-name="Group 4518" transform="translate(7.558 12.561)">
          <path id="Path_1509" data-name="Path 1509" d="M190.84,133.2a.168.168,0,0,1-.121-.052l-.643-.672a.168.168,0,0,1,.005-.238l.643-.616a.168.168,0,0,1,.232.243l-.522.5.527.55a.168.168,0,0,1-.005.238A.164.164,0,0,1,190.84,133.2Z" transform="translate(-190.028 -131.578)" fill="#263238"/>
        </g>
        <g id="Group_4521" data-name="Group 4521" transform="translate(7.914 101.715)">
          <g id="Group_4519" data-name="Group 4519">
            <path id="Path_1510" data-name="Path 1510" d="M231.429,408.437H196.508a5.423,5.423,0,0,1-5.423-5.423v-.97a5.423,5.423,0,0,1,5.423-5.423h34.921a5.423,5.423,0,0,1,5.423,5.423v.97A5.424,5.424,0,0,1,231.429,408.437Z" transform="translate(-191.085 -396.62)" fill="#096b66"/>
          </g>
          <g id="Group_4520" data-name="Group 4520" transform="translate(17.44 4.516)">
            <path id="Path_1511" data-name="Path 1511" d="M242.933,410.112H244a1.309,1.309,0,1,1,0,2.612h-1.064Zm1.048,2.373a1.07,1.07,0,1,0,0-2.135h-.772v2.135Z" transform="translate(-242.933 -410.09)" fill="#fafafa"/>
            <path id="Path_1512" data-name="Path 1512" d="M251.4,411.374a1.372,1.372,0,1,1,1.373,1.328A1.315,1.315,0,0,1,251.4,411.374Zm2.466,0a1.1,1.1,0,1,0-1.093,1.082A1.058,1.058,0,0,0,253.87,411.374Z" transform="translate(-248.555 -410.046)" fill="#fafafa"/>
            <path id="Path_1513" data-name="Path 1513" d="M263.577,410.112v2.612h-.228l-1.679-2.12v2.12h-.276v-2.612h.228l1.683,2.12v-2.12Z" transform="translate(-255.184 -410.09)" fill="#fafafa"/>
            <path id="Path_1514" data-name="Path 1514" d="M272.257,412.484v.239H270.41v-2.612H272.2v.239h-1.515v.929h1.351v.235h-1.351v.97Z" transform="translate(-261.167 -410.089)" fill="#fafafa"/>
          </g>
        </g>
        <g id="Group_4522" data-name="Group 4522" transform="translate(11.654 65.265)">
          <path id="Path_1515" data-name="Path 1515" d="M203.957,289.473c0,.477-.345.764-.915.764h-.6v.707H202.2v-2.238h.838C203.611,288.706,203.957,288.994,203.957,289.473Zm-.236,0c0-.358-.237-.563-.685-.563h-.595v1.119h.595C203.483,290.03,203.72,289.825,203.72,289.473Z" transform="translate(-202.204 -288.556)" fill="#263238"/>
          <path id="Path_1516" data-name="Path 1516" d="M210.374,290.36v1.682h-.217v-.307a.67.67,0,0,1-.6.323.651.651,0,0,1-.71-.723v-.975h.227v.953a.471.471,0,0,0,.505.54.547.547,0,0,0,.573-.611v-.882h.227Z" transform="translate(-206.609 -289.653)" fill="#263238"/>
          <path id="Path_1517" data-name="Path 1517" d="M216.136,290.322v.22c-.019,0-.038,0-.054,0a.544.544,0,0,0-.566.62v.857h-.227v-1.682h.217v.329A.635.635,0,0,1,216.136,290.322Z" transform="translate(-210.887 -289.628)" fill="#263238"/>
          <path id="Path_1518" data-name="Path 1518" d="M218.474,291.176a.828.828,0,0,1,.867-.854.734.734,0,0,1,.659.332l-.17.115a.572.572,0,0,0-.489-.25.656.656,0,0,0,0,1.311.568.568,0,0,0,.489-.246l.17.115a.742.742,0,0,1-.659.333A.831.831,0,0,1,218.474,291.176Z" transform="translate(-213.001 -289.628)" fill="#263238"/>
          <path id="Path_1519" data-name="Path 1519" d="M225.8,289.7v.975h-.227v-.953a.47.47,0,0,0-.505-.537.551.551,0,0,0-.588.608v.883h-.227V288.3h.227v.985a.71.71,0,0,1,.63-.307A.644.644,0,0,1,225.8,289.7Z" transform="translate(-216.838 -288.29)" fill="#263238"/>
          <path id="Path_1520" data-name="Path 1520" d="M231.683,290.974v1.042h-.217v-.262a.632.632,0,0,1-.579.278c-.38,0-.614-.2-.614-.489,0-.259.166-.476.649-.476h.534v-.1c0-.288-.163-.444-.477-.444a.859.859,0,0,0-.56.2l-.1-.17a1.068,1.068,0,0,1,.685-.227A.6.6,0,0,1,231.683,290.974Zm-.227.537v-.275h-.527c-.326,0-.432.128-.432.3,0,.2.157.317.425.317A.538.538,0,0,0,231.456,291.511Z" transform="translate(-220.831 -289.628)" fill="#263238"/>
          <path id="Path_1521" data-name="Path 1521" d="M235.608,291.825l.1-.179a1.017,1.017,0,0,0,.6.189c.32,0,.451-.109.451-.275,0-.438-1.091-.092-1.091-.758,0-.275.237-.48.665-.48a1.141,1.141,0,0,1,.595.157l-.1.182a.86.86,0,0,0-.5-.144c-.3,0-.438.118-.438.278,0,.454,1.091.112,1.091.758,0,.291-.256.48-.694.48A1.122,1.122,0,0,1,235.608,291.825Z" transform="translate(-224.372 -289.628)" fill="#263238"/>
          <path id="Path_1522" data-name="Path 1522" d="M242.08,291.246h-1.407a.622.622,0,0,0,.662.585.663.663,0,0,0,.515-.22l.128.147a.89.89,0,0,1-1.532-.582.81.81,0,0,1,.822-.854.8.8,0,0,1,.815.854C242.084,291.195,242.08,291.22,242.08,291.246Zm-1.407-.17h1.193a.6.6,0,0,0-1.193,0Z" transform="translate(-227.582 -289.628)" fill="#263238"/>
          <path id="Path_1523" data-name="Path 1523" d="M251.079,290.36l-.637,1.682h-.214l-.531-1.378-.531,1.378h-.214l-.633-1.682h.217l.527,1.429.541-1.429h.2l.537,1.429.534-1.429Z" transform="translate(-232.807 -289.653)" fill="#263238"/>
          <path id="Path_1524" data-name="Path 1524" d="M258.382,290.974v1.042h-.218v-.262a.632.632,0,0,1-.579.278c-.38,0-.614-.2-.614-.489,0-.259.167-.476.649-.476h.534v-.1c0-.288-.163-.444-.476-.444a.858.858,0,0,0-.56.2l-.1-.17a1.067,1.067,0,0,1,.684-.227A.6.6,0,0,1,258.382,290.974Zm-.227.537v-.275h-.527c-.326,0-.432.128-.432.3,0,.2.157.317.425.317A.538.538,0,0,0,258.155,291.511Z" transform="translate(-238.549 -289.628)" fill="#263238"/>
          <path id="Path_1525" data-name="Path 1525" d="M262.306,291.825l.1-.179a1.016,1.016,0,0,0,.6.189c.32,0,.451-.109.451-.275,0-.438-1.09-.092-1.09-.758,0-.275.236-.48.665-.48a1.139,1.139,0,0,1,.595.157l-.1.182a.861.861,0,0,0-.5-.144c-.3,0-.438.118-.438.278,0,.454,1.091.112,1.091.758,0,.291-.256.48-.694.48A1.123,1.123,0,0,1,262.306,291.825Z" transform="translate(-242.089 -289.628)" fill="#263238"/>
          <path id="Path_1526" data-name="Path 1526" d="M269.448,291.825l.1-.179a1.016,1.016,0,0,0,.6.189c.32,0,.451-.109.451-.275,0-.438-1.09-.092-1.09-.758,0-.275.236-.48.665-.48a1.14,1.14,0,0,1,.595.157l-.1.182a.861.861,0,0,0-.5-.144c-.3,0-.438.118-.438.278,0,.454,1.091.112,1.091.758,0,.291-.256.48-.694.48A1.123,1.123,0,0,1,269.448,291.825Z" transform="translate(-246.829 -289.628)" fill="#263238"/>
          <path id="Path_1527" data-name="Path 1527" d="M276.276,290.36v1.682h-.217v-.307a.67.67,0,0,1-.6.323.652.652,0,0,1-.71-.723v-.975h.227v.953a.471.471,0,0,0,.505.54.547.547,0,0,0,.573-.611v-.882h.227Z" transform="translate(-250.343 -289.653)" fill="#263238"/>
          <path id="Path_1528" data-name="Path 1528" d="M280.686,291.176a.828.828,0,0,1,.866-.854.734.734,0,0,1,.659.332l-.17.115a.571.571,0,0,0-.489-.25.656.656,0,0,0,0,1.311.568.568,0,0,0,.489-.246l.17.115a.742.742,0,0,1-.659.333A.831.831,0,0,1,280.686,291.176Z" transform="translate(-254.287 -289.628)" fill="#263238"/>
          <path id="Path_1529" data-name="Path 1529" d="M285.954,291.176a.828.828,0,0,1,.866-.854.734.734,0,0,1,.659.332l-.17.115a.571.571,0,0,0-.489-.25.656.656,0,0,0,0,1.311.568.568,0,0,0,.489-.246l.17.115a.742.742,0,0,1-.659.333A.831.831,0,0,1,285.954,291.176Z" transform="translate(-257.783 -289.628)" fill="#263238"/>
          <path id="Path_1530" data-name="Path 1530" d="M292.855,291.246h-1.407a.622.622,0,0,0,.662.585.663.663,0,0,0,.515-.22l.128.147a.89.89,0,0,1-1.532-.582.81.81,0,0,1,.822-.854.8.8,0,0,1,.815.854C292.858,291.195,292.855,291.22,292.855,291.246Zm-1.407-.17h1.193a.6.6,0,0,0-1.193,0Z" transform="translate(-261.278 -289.628)" fill="#263238"/>
          <path id="Path_1531" data-name="Path 1531" d="M296.774,291.825l.1-.179a1.016,1.016,0,0,0,.6.189c.32,0,.451-.109.451-.275,0-.438-1.09-.092-1.09-.758,0-.275.236-.48.665-.48a1.14,1.14,0,0,1,.595.157l-.1.182a.861.861,0,0,0-.5-.144c-.3,0-.438.118-.438.278,0,.454,1.091.112,1.091.758,0,.291-.256.48-.694.48A1.123,1.123,0,0,1,296.774,291.825Z" transform="translate(-264.963 -289.628)" fill="#263238"/>
          <path id="Path_1532" data-name="Path 1532" d="M301.423,291.825l.1-.179a1.016,1.016,0,0,0,.6.189c.32,0,.451-.109.451-.275,0-.438-1.09-.092-1.09-.758,0-.275.236-.48.665-.48a1.141,1.141,0,0,1,.595.157l-.1.182a.861.861,0,0,0-.5-.144c-.3,0-.438.118-.438.278,0,.454,1.091.112,1.091.758,0,.291-.256.48-.694.48A1.124,1.124,0,0,1,301.423,291.825Z" transform="translate(-268.048 -289.628)" fill="#263238"/>
          <path id="Path_1533" data-name="Path 1533" d="M306.508,288.767v.2h.518v.192h-.511v1.49h-.227v-1.49h-.3v-.192h.3v-.208a.463.463,0,0,1,.508-.5.531.531,0,0,1,.336.106l-.077.17a.384.384,0,0,0-.25-.083C306.611,288.45,306.508,288.559,306.508,288.767Z" transform="translate(-271.077 -288.259)" fill="#263238"/>
          <path id="Path_1534" data-name="Path 1534" d="M311.475,290.36v1.682h-.218v-.307a.67.67,0,0,1-.6.323.651.651,0,0,1-.71-.723v-.975h.227v.953a.471.471,0,0,0,.505.54.547.547,0,0,0,.573-.611v-.882h.227Z" transform="translate(-273.702 -289.653)" fill="#263238"/>
          <path id="Path_1535" data-name="Path 1535" d="M316.39,288.306h.227v2.373h-.227Z" transform="translate(-277.981 -288.29)" fill="#263238"/>
        </g>
        <g id="Group_4523" data-name="Group 4523" transform="translate(13.356 56.111)">
          <path id="Path_1536" data-name="Path 1536" d="M208.684,262.486h-1.421v-.673H210.9v.673H209.48V266.1h-.8Z" transform="translate(-207.263 -261.555)" fill="#096b66"/>
          <path id="Path_1537" data-name="Path 1537" d="M222.86,263.718v1.874H222.1v-1.776c0-.582-.288-.863-.778-.863a.868.868,0,0,0-.912.986v1.653h-.765v-4.543h.765V262.7a1.456,1.456,0,0,1,1.09-.416A1.277,1.277,0,0,1,222.86,263.718Z" transform="translate(-215.477 -261.048)" fill="#096b66"/>
          <path id="Path_1538" data-name="Path 1538" d="M234.385,266.115v1.917h-.723v-.4a1.158,1.158,0,0,1-1.029.441c-.747,0-1.218-.41-1.218-.98,0-.545.367-.974,1.36-.974h.845v-.049c0-.447-.269-.71-.814-.71a1.618,1.618,0,0,0-.992.325l-.3-.557a2.3,2.3,0,0,1,1.384-.4C233.84,264.725,234.385,265.172,234.385,266.115Zm-.766.894v-.38h-.79c-.52,0-.661.2-.661.435,0,.275.233.453.625.453A.834.834,0,0,0,233.619,267.009Z" transform="translate(-223.291 -263.488)" fill="#096b66"/>
          <path id="Path_1539" data-name="Path 1539" d="M246.375,266.159v1.874h-.765v-1.776c0-.582-.288-.863-.778-.863a.868.868,0,0,0-.912.986v1.653h-.765v-3.27h.729v.423a1.421,1.421,0,0,1,1.127-.459A1.277,1.277,0,0,1,246.375,266.159Z" transform="translate(-231.082 -263.488)" fill="#096b66"/>
          <path id="Path_1540" data-name="Path 1540" d="M256.956,264.188l-.569.539v.863h-.765v-4.543h.765v2.743l1.586-1.47h.918l-1.366,1.371,1.494,1.9h-.931Z" transform="translate(-239.355 -261.047)" fill="#096b66"/>
          <path id="Path_1541" data-name="Path 1541" d="M274.084,264.833l-1.531,3.533a1.269,1.269,0,0,1-1.261.967,1.353,1.353,0,0,1-.876-.3l.306-.563a.83.83,0,0,0,.563.227c.269,0,.429-.128.576-.453l.055-.129-1.427-3.282h.8l1.029,2.419,1.035-2.419h.735Z" transform="translate(-249.173 -263.56)" fill="#096b66"/>
          <path id="Path_1542" data-name="Path 1542" d="M281.664,266.4a1.744,1.744,0,1,1,1.739,1.677A1.646,1.646,0,0,1,281.664,266.4Zm2.713,0a.972.972,0,1,0-.974,1.023A.952.952,0,0,0,284.377,266.4Z" transform="translate(-256.637 -263.488)" fill="#096b66"/>
          <path id="Path_1543" data-name="Path 1543" d="M297.322,264.833v3.27h-.729v-.416a1.335,1.335,0,0,1-1.053.459,1.293,1.293,0,0,1-1.408-1.445v-1.868h.765V266.6c0,.594.282.876.765.876a.861.861,0,0,0,.894-.986v-1.653h.766Z" transform="translate(-264.911 -263.559)" fill="#096b66"/>
          <path id="Path_1544" data-name="Path 1544" d="M306.18,265.664a.474.474,0,0,1,.5-.472.467.467,0,0,1,.484.472.472.472,0,0,1-.484.477A.479.479,0,0,1,306.18,265.664Zm.043-3.852h.906l-.153,2.866h-.606Z" transform="translate(-272.907 -261.555)" fill="#096b66"/>
        </g>
        <g id="Group_4574" data-name="Group 4574" transform="translate(12.155 19.048)">
          <g id="Group_4527" data-name="Group 4527" transform="translate(10.139 13.291)">
            <g id="Group_4524" data-name="Group 4524">
              <path id="Path_1957" data-name="Path 1957" d="M8.807,0A8.807,8.807,0,1,1,0,8.807,8.807,8.807,0,0,1,8.807,0Z" fill="#096b66"/>
            </g>
            <g id="Group_4526" data-name="Group 4526" transform="translate(5.068 5.088)">
              <g id="Group_4525" data-name="Group 4525">
                <path id="Path_1545" data-name="Path 1545" d="M256.977,205.505a36.237,36.237,0,0,1-3.674,4.941l-1.3,1.574-.177.215-.19-.2a20.686,20.686,0,0,1-2.733-3.084,20.682,20.682,0,0,1,3.084,2.733l-.368.019,1.274-1.592A36.25,36.25,0,0,1,256.977,205.505Z" transform="translate(-248.901 -205.502)" fill="#fff"/>
              </g>
            </g>
          </g>
          <g id="Group_4528" data-name="Group 4528" transform="translate(29.992 17.712)">
            <path id="Path_1546" data-name="Path 1546" d="M294.319,204.358c-.261-.925-1.464-.835-1.464-.835l.033.643c.695-.12,1.127.695,1.127.695Z" transform="translate(-292.855 -203.52)" fill="#e8505b"/>
          </g>
          <g id="Group_4529" data-name="Group 4529" transform="translate(4.484 19.652)">
            <path id="Path_1547" data-name="Path 1547" d="M218.487,210.125c-.261-.925-1.464-.835-1.464-.835l.033.643c.695-.12,1.127.695,1.127.695Z" transform="translate(-217.023 -209.287)" fill="#e0e0e0"/>
          </g>
          <g id="Group_4530" data-name="Group 4530" transform="translate(19.604 6.024)">
            <path id="Path_1548" data-name="Path 1548" d="M262.366,170.44c1.395.422,2.262-1.186,2.262-1.186l-.848-.483c-.415.985-1.808.871-1.808.871Z" transform="translate(-261.972 -168.771)" fill="#e0e0e0"/>
          </g>
          <g id="Group_4531" data-name="Group 4531" transform="translate(11.531 9.425)">
            <path id="Path_1549" data-name="Path 1549" d="M238.7,178.881c-.649.069-.727.884-.727.884l.434.051c0-.479.594-.675.594-.675Z" transform="translate(-237.973 -178.881)" fill="#e8505b"/>
          </g>
          <g id="Group_4532" data-name="Group 4532" transform="translate(38.178 14.46)">
            <path id="Path_1550" data-name="Path 1550" d="M318.025,194.774c.094-.646-.676-.923-.676-.923l-.158.408c.464.118.506.743.506.743Z" transform="translate(-317.191 -193.851)" fill="#e0e0e0"/>
          </g>
          <g id="Group_4533" data-name="Group 4533" transform="translate(15.211)">
            <path id="Path_1551" data-name="Path 1551" d="M249.747,151.786c.094-.646-.676-.923-.676-.923l-.158.408c.464.118.506.743.506.743Z" transform="translate(-248.913 -150.863)" fill="#e8505b"/>
          </g>
          <g id="Group_4534" data-name="Group 4534" transform="translate(0 10.915)">
            <path id="Path_1552" data-name="Path 1552" d="M203.7,183.738c-.117,1.012,1.225,1.258,1.225,1.258l.242-.663c-.8-.073-.921-1.021-.921-1.021Z" transform="translate(-203.692 -183.312)" fill="#e8505b"/>
          </g>
          <g id="Group_4535" data-name="Group 4535" transform="translate(29.609 6.795)">
            <path id="Path_1553" data-name="Path 1553" d="M291.969,171.941c.652.037.86-.754.86-.754l-.42-.121c-.077.473-.7.569-.7.569Z" transform="translate(-291.714 -171.065)" fill="#e8505b"/>
          </g>
          <g id="Group_4554" data-name="Group 4554" transform="translate(32.348 8.865)">
            <g id="Group_4540" data-name="Group 4540">
              <g id="Group_4537" data-name="Group 4537" transform="translate(0 1.411)">
                <g id="Group_4536" data-name="Group 4536">
                  <path id="Path_1554" data-name="Path 1554" d="M300.934,181.464a2.785,2.785,0,0,1-1.076,0,2.785,2.785,0,0,1,1.076,0Z" transform="translate(-299.858 -181.412)" fill="#e0e0e0"/>
                </g>
              </g>
              <g id="Group_4539" data-name="Group 4539" transform="translate(1.595)">
                <g id="Group_4538" data-name="Group 4538">
                  <path id="Path_1555" data-name="Path 1555" d="M304.652,177.217a2.865,2.865,0,1,1-.052.546A1.468,1.468,0,0,1,304.652,177.217Z" transform="translate(-304.6 -177.217)" fill="#e0e0e0"/>
                </g>
              </g>
            </g>
            <g id="Group_4545" data-name="Group 4545" transform="translate(1.632 1.376)">
              <g id="Group_4542" data-name="Group 4542" transform="translate(0.624)">
                <g id="Group_4541" data-name="Group 4541">
                  <path id="Path_1556" data-name="Path 1556" d="M306.565,181.36a2.784,2.784,0,0,1,1.076,0,2.784,2.784,0,0,1-1.076,0Z" transform="translate(-306.565 -181.308)" fill="#e0e0e0"/>
                </g>
              </g>
              <g id="Group_4544" data-name="Group 4544" transform="translate(0 0.424)">
                <g id="Group_4543" data-name="Group 4543">
                  <path id="Path_1557" data-name="Path 1557" d="M304.762,183.661a2.865,2.865,0,1,1,.052-.546A1.467,1.467,0,0,1,304.762,183.661Z" transform="translate(-304.71 -182.569)" fill="#e0e0e0"/>
                </g>
              </g>
            </g>
            <g id="Group_4547" data-name="Group 4547" transform="translate(2.167 1.804)">
              <g id="Group_4546" data-name="Group 4546">
                <path id="Path_1558" data-name="Path 1558" d="M306.688,183.04c-.022.018-.126-.069-.232-.2s-.173-.244-.151-.263.126.069.232.2S306.711,183.022,306.688,183.04Z" transform="translate(-306.301 -182.58)" fill="#e0e0e0"/>
              </g>
            </g>
            <g id="Group_4549" data-name="Group 4549" transform="translate(2.104 0.601)">
              <g id="Group_4548" data-name="Group 4548">
                <path id="Path_1559" data-name="Path 1559" d="M306.512,179.007c.021.021-.051.127-.161.237s-.215.184-.236.163.051-.127.161-.237S306.492,178.987,306.512,179.007Z" transform="translate(-306.112 -179.004)" fill="#e0e0e0"/>
              </g>
            </g>
            <g id="Group_4551" data-name="Group 4551" transform="translate(0.89 0.708)">
              <g id="Group_4550" data-name="Group 4550">
                <path id="Path_1560" data-name="Path 1560" d="M302.884,179.641c-.018.022-.118-.03-.223-.117s-.174-.176-.155-.2.118.03.223.117S302.9,179.618,302.884,179.641Z" transform="translate(-302.503 -179.321)" fill="#e0e0e0"/>
              </g>
            </g>
            <g id="Group_4553" data-name="Group 4553" transform="translate(0.858 1.756)">
              <g id="Group_4552" data-name="Group 4552">
                <path id="Path_1561" data-name="Path 1561" d="M302.773,182.44c.022.02-.042.124-.141.233s-.2.182-.219.162.042-.124.142-.233S302.751,182.42,302.773,182.44Z" transform="translate(-302.409 -182.437)" fill="#e0e0e0"/>
              </g>
            </g>
          </g>
          <g id="Group_4573" data-name="Group 4573" transform="translate(3.045 5.866)">
            <g id="Group_4559" data-name="Group 4559">
              <g id="Group_4556" data-name="Group 4556" transform="translate(0 1.411)">
                <g id="Group_4555" data-name="Group 4555">
                  <path id="Path_1562" data-name="Path 1562" d="M213.819,172.55a2.784,2.784,0,0,1-1.076,0,2.784,2.784,0,0,1,1.076,0Z" transform="translate(-212.743 -172.498)" fill="#e8505b"/>
                </g>
              </g>
              <g id="Group_4558" data-name="Group 4558" transform="translate(1.595)">
                <g id="Group_4557" data-name="Group 4557">
                  <path id="Path_1563" data-name="Path 1563" d="M217.536,168.3a2.865,2.865,0,0,1,0,1.092,2.867,2.867,0,0,1,0-1.092Z" transform="translate(-217.484 -168.303)" fill="#e8505b"/>
                </g>
              </g>
            </g>
            <g id="Group_4564" data-name="Group 4564" transform="translate(1.632 1.376)">
              <g id="Group_4561" data-name="Group 4561" transform="translate(0.624)">
                <g id="Group_4560" data-name="Group 4560">
                  <path id="Path_1564" data-name="Path 1564" d="M219.45,172.446a2.784,2.784,0,0,1,1.076,0,2.784,2.784,0,0,1-1.076,0Z" transform="translate(-219.45 -172.394)" fill="#e8505b"/>
                </g>
              </g>
              <g id="Group_4563" data-name="Group 4563" transform="translate(0 0.424)">
                <g id="Group_4562" data-name="Group 4562">
                  <path id="Path_1565" data-name="Path 1565" d="M217.647,174.747a2.865,2.865,0,0,1,0-1.092,2.867,2.867,0,0,1,0,1.092Z" transform="translate(-217.595 -173.655)" fill="#e8505b"/>
                </g>
              </g>
            </g>
            <g id="Group_4566" data-name="Group 4566" transform="translate(2.167 1.804)">
              <g id="Group_4565" data-name="Group 4565">
                <path id="Path_1566" data-name="Path 1566" d="M219.573,174.126c-.022.018-.126-.069-.231-.2s-.173-.244-.151-.263.126.069.231.2S219.6,174.108,219.573,174.126Z" transform="translate(-219.186 -173.666)" fill="#e8505b"/>
              </g>
            </g>
            <g id="Group_4568" data-name="Group 4568" transform="translate(2.103 0.601)">
              <g id="Group_4567" data-name="Group 4567">
                <path id="Path_1567" data-name="Path 1567" d="M219.4,170.094c.021.021-.051.127-.161.237s-.215.184-.236.163.051-.127.161-.237S219.376,170.074,219.4,170.094Z" transform="translate(-218.996 -170.091)" fill="#e8505b"/>
              </g>
            </g>
            <g id="Group_4570" data-name="Group 4570" transform="translate(0.889 0.708)">
              <g id="Group_4569" data-name="Group 4569">
                <path id="Path_1568" data-name="Path 1568" d="M215.768,170.727c-.018.022-.118-.03-.223-.117s-.174-.176-.155-.2.118.03.223.117S215.787,170.7,215.768,170.727Z" transform="translate(-215.387 -170.407)" fill="#e8505b"/>
              </g>
            </g>
            <g id="Group_4572" data-name="Group 4572" transform="translate(0.857 1.756)">
              <g id="Group_4571" data-name="Group 4571">
                <path id="Path_1569" data-name="Path 1569" d="M215.656,173.526c.022.02-.042.124-.142.233s-.2.182-.219.162.042-.124.142-.233S215.635,173.506,215.656,173.526Z" transform="translate(-215.292 -173.523)" fill="#e8505b"/>
              </g>
            </g>
          </g>
        </g>
        <g id="Group_4581" data-name="Group 4581" transform="translate(48.752 12.296)">
          <g id="Group_4576" data-name="Group 4576">
            <g id="Group_4575" data-name="Group 4575">
              <path id="Path_1570" data-name="Path 1570" d="M317.242,130.876a32.313,32.313,0,0,1-4.751,0,32.307,32.307,0,0,1,4.751,0Z" transform="translate(-312.491 -130.789)" fill="#263238"/>
            </g>
          </g>
          <g id="Group_4578" data-name="Group 4578" transform="translate(0 0.99)">
            <g id="Group_4577" data-name="Group 4577">
              <path id="Path_1571" data-name="Path 1571" d="M317.242,133.818a32.307,32.307,0,0,1-4.751,0,32.313,32.313,0,0,1,4.751,0Z" transform="translate(-312.491 -133.731)" fill="#263238"/>
            </g>
          </g>
          <g id="Group_4580" data-name="Group 4580" transform="translate(0 1.98)">
            <g id="Group_4579" data-name="Group 4579">
              <path id="Path_1572" data-name="Path 1572" d="M317.242,136.761a32.313,32.313,0,0,1-4.751,0,32.307,32.307,0,0,1,4.751,0Z" transform="translate(-312.491 -136.674)" fill="#263238"/>
            </g>
          </g>
        </g>
        <g id="Group_4610" data-name="Group 4610" transform="translate(17.431 73.07)">
          <g id="Group_4595" data-name="Group 4595">
            <g id="Group_4582" data-name="Group 4582" transform="translate(8.265 8.631)">
              <rect id="Rectangle_5023" data-name="Rectangle 5023" width="11.077" height="13.982" transform="translate(11.077 14.068) rotate(-179.553)" fill="#ebebeb"/>
            </g>
            <g id="Group_4583" data-name="Group 4583" transform="translate(13.177 9.117)">
              <path id="Path_1573" data-name="Path 1573" d="M260.5,338.581l-.2,13.538-1.75-.013.375-13.537Z" transform="translate(-258.55 -338.569)" fill="#fafafa"/>
            </g>
            <g id="Group_4584" data-name="Group 4584" transform="translate(1.917 9.027)">
              <path id="Path_1574" data-name="Path 1574" d="M225.178,338.3l6.355.05,11.077.086L231.521,339.9l-.094,11.993-6.352-.05Z" transform="translate(-225.075 -338.301)" fill="#e0e0e0"/>
            </g>
            <g id="Group_4585" data-name="Group 4585" transform="translate(3.341 9.04)">
              <path id="Path_1575" data-name="Path 1575" d="M231.447,338.353l-.252,13.537-1.886-.015.308-13.537Z" transform="translate(-229.309 -338.339)" fill="#fafafa"/>
            </g>
            <g id="Group_4590" data-name="Group 4590" transform="translate(5.236)">
              <g id="Group_4587" data-name="Group 4587" transform="translate(0 0.56)">
                <g id="Group_4586" data-name="Group 4586">
                  <path id="Path_1576" data-name="Path 1576" d="M240.215,317.5c0,.085-.183.174-.523.257a8.188,8.188,0,0,1-1.468.2,8.489,8.489,0,0,1-1.044-.011c-.189-.015-.386-.034-.588-.067a4.857,4.857,0,0,1-.649-.138,1.862,1.862,0,0,1-.4-.172,1.243,1.243,0,0,1-.42-.395,1.166,1.166,0,0,1-.182-.609,1.926,1.926,0,0,1,.053-.471,8.15,8.15,0,0,1,.425-1.4,3.785,3.785,0,0,1,.4-.714,3.411,3.411,0,0,1,.274-.323,2.024,2.024,0,0,1,.369-.3,1.515,1.515,0,0,1,.5-.2,1.333,1.333,0,0,1,.574.014,1.919,1.919,0,0,1,.758.419,6.113,6.113,0,0,1,1.455,1.787,4.376,4.376,0,0,1,.49,1.455c.042.362,0,.568-.081.586-.179.043-.439-.67-1.145-1.567a7.2,7.2,0,0,0-1.422-1.362.847.847,0,0,0-.322-.167.133.133,0,0,0-.061.007.4.4,0,0,0-.1.051.931.931,0,0,0-.14.125c-.049.055-.107.127-.157.2a2.845,2.845,0,0,0-.267.486,9.1,9.1,0,0,0-.38,1.188,1.043,1.043,0,0,0-.034.174v.015l-.034.008c-.039.01-.049.02-.023,0a.437.437,0,0,0,.04-.03.008.008,0,0,0,0,.006.139.139,0,0,0,.032.029.736.736,0,0,0,.157.082,4.643,4.643,0,0,0,.493.149c.172.046.342.082.508.116.332.067.65.115.944.154.588.078,1.079.131,1.42.2S240.212,317.417,240.215,317.5Z" transform="translate(-234.942 -313.128)" fill="#e0e0e0"/>
                </g>
              </g>
              <g id="Group_4589" data-name="Group 4589" transform="translate(4.97)">
                <g id="Group_4588" data-name="Group 4588">
                  <path id="Path_1577" data-name="Path 1577" d="M249.79,316.5c-.031-.176.8-.435,2.091-.815a18.072,18.072,0,0,0,2.18-.782,2.12,2.12,0,0,0,.472-.263c.051-.041.074-.079.068-.075s-.013.05-.015.026a1.154,1.154,0,0,0-.079-.194l-.159-.33a5.537,5.537,0,0,0-.337-.6,2.492,2.492,0,0,0-.395-.471,2.076,2.076,0,0,0-.223-.178,1.026,1.026,0,0,0-.2-.109.507.507,0,0,0-.327-.031,1.114,1.114,0,0,0-.391.227,8.59,8.59,0,0,0-1.514,1.645c-.742,1.056-.938,1.881-1.123,1.854-.081-.011-.142-.236-.113-.643a4.716,4.716,0,0,1,.478-1.649,7.236,7.236,0,0,1,1.519-2.064,2.189,2.189,0,0,1,.784-.5,1.678,1.678,0,0,1,1.1.016,2.18,2.18,0,0,1,.462.226,3.124,3.124,0,0,1,.375.285,3.531,3.531,0,0,1,.6.705,6.011,6.011,0,0,1,.413.749l.162.356a1.985,1.985,0,0,1,.164.508,1.151,1.151,0,0,1-.124.735,1.389,1.389,0,0,1-.411.452,3.038,3.038,0,0,1-.757.378,11.327,11.327,0,0,1-2.427.581C250.673,316.712,249.818,316.661,249.79,316.5Z" transform="translate(-249.716 -311.465)" fill="#ebebeb"/>
                </g>
              </g>
            </g>
            <g id="Group_4591" data-name="Group 4591" transform="translate(0 4.381)">
              <rect id="Rectangle_5024" data-name="Rectangle 5024" width="16.282" height="4.628" transform="translate(16.282 4.755) rotate(-179.553)" fill="#e0e0e0"/>
            </g>
            <g id="Group_4592" data-name="Group 4592" transform="translate(5.987 4.428)">
              <rect id="Rectangle_5025" data-name="Rectangle 5025" width="14.717" height="4.628" transform="translate(14.717 4.743) rotate(-179.553)" fill="#ebebeb"/>
            </g>
            <g id="Group_4593" data-name="Group 4593" transform="translate(14.408 4.497)">
              <path id="Path_1578" data-name="Path 1578" d="M264.031,324.846l-.1,4.649-1.716-.036.12-4.627Z" transform="translate(-262.211 -324.833)" fill="#fafafa"/>
            </g>
            <g id="Group_4594" data-name="Group 4594" transform="translate(1.98 4.4)">
              <path id="Path_1579" data-name="Path 1579" d="M227.316,324.582l-.166,4.608-1.887-.015.1-4.631Z" transform="translate(-225.263 -324.544)" fill="#fafafa"/>
            </g>
          </g>
          <g id="Group_4609" data-name="Group 4609" transform="translate(15.58 9.424)">
            <g id="Group_4596" data-name="Group 4596" transform="translate(4.684 5.011)">
              <rect id="Rectangle_5026" data-name="Rectangle 5026" width="6.277" height="7.923" transform="translate(6.277 7.972) rotate(-179.553)" fill="#ebebeb"/>
            </g>
            <g id="Group_4597" data-name="Group 4597" transform="translate(7.469 5.288)">
              <path id="Path_1580" data-name="Path 1580" d="M289,355.209l-.112,7.671-.992-.008.213-7.67Z" transform="translate(-287.899 -355.202)" fill="#fafafa"/>
            </g>
            <g id="Group_4598" data-name="Group 4598" transform="translate(1.088 5.237)">
              <path id="Path_1581" data-name="Path 1581" d="M268.989,355.05l3.6.028,6.277.049-6.283.826-.053,6.8-3.6-.028Z" transform="translate(-268.93 -355.05)" fill="#e0e0e0"/>
            </g>
            <g id="Group_4599" data-name="Group 4599" transform="translate(1.895 5.244)">
              <path id="Path_1582" data-name="Path 1582" d="M272.542,355.08l-.143,7.671-1.069-.008.175-7.671Z" transform="translate(-271.33 -355.072)" fill="#fafafa"/>
            </g>
            <g id="Group_4604" data-name="Group 4604" transform="translate(2.884)">
              <g id="Group_4601" data-name="Group 4601" transform="translate(0 0.355)">
                <g id="Group_4600" data-name="Group 4600">
                  <path id="Path_1583" data-name="Path 1583" d="M277.343,343.1c0,.116-.412.259-1.131.318a4.089,4.089,0,0,1-1.316-.108.893.893,0,0,1-.508-.353.746.746,0,0,1-.117-.388,1.2,1.2,0,0,1,.031-.288,4.56,4.56,0,0,1,.244-.81,2.209,2.209,0,0,1,.239-.421,1.434,1.434,0,0,1,.389-.373.877.877,0,0,1,.674-.115,1.148,1.148,0,0,1,.46.255,3.428,3.428,0,0,1,.827,1.042c.339.686.29,1.173.18,1.19-.125.029-.294-.366-.7-.855a4.208,4.208,0,0,0-.8-.742.359.359,0,0,0-.152-.076h0v-.018l0,.022a.285.285,0,0,1-.026.018.725.725,0,0,0-.144.161,1.54,1.54,0,0,0-.142.259,5.284,5.284,0,0,0-.212.658l-.018.078c.013,0-.043,0-.056.005a.336.336,0,0,0-.049.009c-.022.006-.028.011-.013,0a.331.331,0,0,0,.062-.055l.018-.02h0a.029.029,0,0,0,.006.006.3.3,0,0,0,.072.04,6.053,6.053,0,0,0,1.078.252C276.9,342.9,277.341,342.973,277.343,343.1Z" transform="translate(-274.27 -340.536)" fill="#e0e0e0"/>
                </g>
              </g>
              <g id="Group_4603" data-name="Group 4603" transform="translate(2.856)">
                <g id="Group_4602" data-name="Group 4602">
                  <path id="Path_1584" data-name="Path 1584" d="M282.847,342.456c-.023-.134.443-.313,1.166-.549a11.579,11.579,0,0,0,1.21-.464,1.035,1.035,0,0,0,.238-.137c.021-.017.02-.029,0,0a.182.182,0,0,0-.023.092l-.126-.262a3.08,3.08,0,0,0-.183-.326,1.308,1.308,0,0,0-.2-.243.75.75,0,0,0-.2-.14.183.183,0,0,0-.107-.019.476.476,0,0,0-.182.1,5.108,5.108,0,0,0-.857.889c-.432.57-.575,1.024-.714,1.006-.12,0-.221-.558.13-1.344a4.029,4.029,0,0,1,.861-1.212,1.339,1.339,0,0,1,.485-.309,1.074,1.074,0,0,1,.7.007,1.352,1.352,0,0,1,.288.14,1.906,1.906,0,0,1,.228.173,2.1,2.1,0,0,1,.364.423,3.456,3.456,0,0,1,.242.44l.092.2a1.27,1.27,0,0,1,.1.32.777.777,0,0,1-.084.494.9.9,0,0,1-.268.3,1.793,1.793,0,0,1-.458.226,6.065,6.065,0,0,1-1.4.309C283.357,342.642,282.869,342.582,282.847,342.456Z" transform="translate(-282.761 -339.481)" fill="#e0e0e0"/>
                </g>
              </g>
            </g>
            <g id="Group_4605" data-name="Group 4605" transform="translate(0 2.603)">
              <rect id="Rectangle_5027" data-name="Rectangle 5027" width="9.226" height="2.622" transform="translate(9.226 2.694) rotate(-179.553)" fill="#e0e0e0"/>
            </g>
            <g id="Group_4606" data-name="Group 4606" transform="translate(3.392 2.63)">
              <rect id="Rectangle_5028" data-name="Rectangle 5028" width="8.34" height="2.622" transform="translate(8.34 2.687) rotate(-179.553)" fill="#ebebeb"/>
            </g>
            <g id="Group_4607" data-name="Group 4607" transform="translate(8.166 2.67)">
              <path id="Path_1585" data-name="Path 1585" d="M291,347.426l-.059,2.635-.973-.02.068-2.622Z" transform="translate(-289.973 -347.418)" fill="#fafafa"/>
            </g>
            <g id="Group_4608" data-name="Group 4608" transform="translate(1.124 2.615)">
              <path id="Path_1586" data-name="Path 1586" d="M270.2,347.277l-.094,2.611-1.069-.008.057-2.624Z" transform="translate(-269.037 -347.255)" fill="#fafafa"/>
            </g>
          </g>
        </g>
      </g>
    </g>
    <g id="Plant" transform="translate(156.898 196.332)">
      <g id="Group_4627" data-name="Group 4627" transform="translate(0 0)">
        <g id="Group_4613" data-name="Group 4613" transform="translate(5.444)">
          <g id="Group_4612" data-name="Group 4612">
            <path id="Path_1587" data-name="Path 1587" d="M417.1,397.775a4.172,4.172,0,0,1,2.162,2.449,7.366,7.366,0,0,1,.287,3.318,13,13,0,0,1-2.785,6.047c-1.813-1.582-2.23-4.342-2.354-5.756-.2-2.235.808-6.391,2.689-6.058" transform="translate(-414.387 -397.756)" fill="#096b66"/>
          </g>
        </g>
        <g id="Group_4615" data-name="Group 4615" transform="translate(9.847 10.897)">
          <g id="Group_4614" data-name="Group 4614">
            <path id="Path_1588" data-name="Path 1588" d="M427.559,434.641a3.56,3.56,0,0,1,1.15-3.384,4.726,4.726,0,0,1,3.486-1.089,1.99,1.99,0,0,1,1.53.687,1.522,1.522,0,0,1,.024,1.543,3.087,3.087,0,0,1-1.142,1.125c-1.571.986-3.272,1.651-5.048,1.118" transform="translate(-427.477 -430.153)" fill="#12919f"/>
          </g>
        </g>
        <g id="Group_4618" data-name="Group 4618" transform="translate(7.601 13.023)">
          <g id="Group_4617" data-name="Group 4617">
            <g id="Group_4616" data-name="Group 4616">
              <path id="Path_1589" data-name="Path 1589" d="M420.8,445.435a2.513,2.513,0,0,1,.065-.442c.057-.311.131-.713.219-1.2a12.5,12.5,0,0,1,1.234-3.82,7.649,7.649,0,0,1,2.741-2.913,5.206,5.206,0,0,1,1.118-.494,3.126,3.126,0,0,1,.322-.082.323.323,0,0,1,.115-.016,8.111,8.111,0,0,0-1.5.687,7.9,7.9,0,0,0-2.661,2.894,13.455,13.455,0,0,0-1.262,3.765c-.11.5-.2.907-.268,1.186A2.407,2.407,0,0,1,420.8,445.435Z" transform="translate(-420.801 -436.471)" fill="#fff"/>
            </g>
          </g>
        </g>
        <g id="Group_4621" data-name="Group 4621" transform="translate(7.582 3.251)">
          <g id="Group_4620" data-name="Group 4620">
            <g id="Group_4619" data-name="Group 4619">
              <path id="Path_1590" data-name="Path 1590" d="M420.833,407.422a.915.915,0,0,1,.022.193c.008.143.02.327.033.555.026.482.054,1.18.082,2.042.056,1.725.1,4.109.089,6.743s-.076,5.019-.147,6.743c-.035.862-.07,1.56-.1,2.041l-.038.554c-.01.127.005,0,0,0,.024-.193-.032.126-.032,0,0-.144,0-.328.008-.556.012-.5.029-1.195.05-2.042.042-1.725.089-4.107.1-6.741s-.015-5.015-.043-6.74c-.013-.848-.024-1.541-.032-2.043,0-.228,0-.412,0-.556A.909.909,0,0,1,420.833,407.422Z" transform="translate(-420.743 -407.422)" fill="#fff"/>
            </g>
          </g>
        </g>
        <g id="Group_4623" data-name="Group 4623" transform="translate(0 10.299)">
          <g id="Group_4622" data-name="Group 4622">
            <path id="Path_1591" data-name="Path 1591" d="M405,434.77a8.327,8.327,0,0,0-4.547-6.1,1.756,1.756,0,0,0-1.895-.029,1.724,1.724,0,0,0-.143,1.888,7.114,7.114,0,0,0,6.542,4.417" transform="translate(-398.204 -428.373)" fill="#12919f"/>
          </g>
        </g>
        <g id="Group_4626" data-name="Group 4626" transform="translate(2.539 12.638)">
          <g id="Group_4625" data-name="Group 4625">
            <g id="Group_4624" data-name="Group 4624">
              <path id="Path_1592" data-name="Path 1592" d="M405.751,435.328a2.131,2.131,0,0,1,.385.168,3.979,3.979,0,0,1,.435.232c.163.1.36.2.553.347a7.245,7.245,0,0,1,.633.477,8.213,8.213,0,0,1,.674.612,9.251,9.251,0,0,1,1.28,1.645,9.078,9.078,0,0,1,.844,1.907,7.925,7.925,0,0,1,.213.886,6.729,6.729,0,0,1,.109.785,6.183,6.183,0,0,1,.03.653,3.729,3.729,0,0,1-.015.492,2.168,2.168,0,0,1-.046.417c-.035,0,.026-.6-.079-1.551a7.188,7.188,0,0,0-.126-.772,8.393,8.393,0,0,0-.223-.868,9.419,9.419,0,0,0-.84-1.869,9.626,9.626,0,0,0-1.249-1.625,8.676,8.676,0,0,0-.654-.614c-.208-.19-.422-.341-.613-.485C406.281,435.607,405.736,435.358,405.751,435.328Z" transform="translate(-405.751 -435.327)" fill="#fff"/>
            </g>
          </g>
        </g>
      </g>
    </g>
  </g>
</svg>
