<svg xmlns="http://www.w3.org/2000/svg" xmlns:xlink="http://www.w3.org/1999/xlink" width="88" height="88.122" viewBox="0 0 88 88.122">
  <defs>
    <clipPath id="clip-path">
      <path id="Path_30" data-name="Path 30" d="M0,1H81.019V88.7H0ZM0,1" transform="translate(0 -1)" fill="#fff"/>
    </clipPath>
    <clipPath id="clip-path-2">
      <path id="Path_38" data-name="Path 38" d="M15,72H25.8V85.711H15Zm0,0" transform="translate(-15 -72)" fill="#fff"/>
    </clipPath>
    <clipPath id="clip-path-3">
      <path id="Path_37" data-name="Path 37" d="M22.031,73.675a2.943,2.943,0,0,0-.613,2.452c.14.678.86,1.24,2.146,1.586A20.525,20.525,0,0,1,20.1,81.555c-1.277,1.172-2.654,2.363-3.931,3.535-.329.37-.407.487-.386.585l.019.1a4.1,4.1,0,0,0,.639-.334c1.881-1.193,2.869-1.8,3.045-1.935a20.665,20.665,0,0,0,2.808-2.6,12.642,12.642,0,0,0,2.009-3.04c.565.289,1.013.5,1.246.656a4.375,4.375,0,0,0,.459-1.714,3.074,3.074,0,0,0-1.344-.636,7.859,7.859,0,0,0,.011-2.43c-.14-.678-.531-1.105-.938-1.122a1,1,0,0,0-.386,0,2.458,2.458,0,0,0-1.319,1.052m.278,1.36c-.019-.1.057-.214.211-.448a4,4,0,0,1,.544-.313c.291-.058.526.1.721.56a2.136,2.136,0,0,1,.122,1.089c-1.071-.287-1.539-.6-1.6-.888" transform="translate(-15.777 -72.603)" fill="#fff"/>
    </clipPath>
    <clipPath id="clip-path-4">
      <path id="Path_42" data-name="Path 42" d="M155,57h9.972V67.8H155Zm0,0" transform="translate(-155 -57)" fill="#fff"/>
    </clipPath>
    <clipPath id="clip-path-5">
      <path id="Path_41" data-name="Path 41" d="M161.742,58.612a2.487,2.487,0,0,0-.753,2c.05.584.6,1.126,1.646,1.542a17.44,17.44,0,0,1-3.285,2.887c-1.188.859-2.46,1.725-3.649,2.584-.312.278-.388.368-.381.453l.008.083a3.355,3.355,0,0,0,.57-.218c1.7-.816,2.586-1.23,2.746-1.328a17.49,17.49,0,0,0,2.611-1.905,10.727,10.727,0,0,0,1.985-2.357c.446.3.8.521.982.674a3.71,3.71,0,0,0,.555-1.394,2.6,2.6,0,0,0-1.066-.665,6.6,6.6,0,0,0,.245-2.04c-.049-.583-.336-.98-.676-1.034a.838.838,0,0,0-.325-.034,2.088,2.088,0,0,0-1.212.753m.1,1.17c-.007-.084.07-.175.222-.355a3.093,3.093,0,0,1,.487-.209c.25-.023.432.13.55.54a1.8,1.8,0,0,1,0,.925c-.87-.346-1.234-.651-1.254-.9" transform="translate(-155.319 -57.855)" fill="#fff"/>
    </clipPath>
    <clipPath id="clip-path-6">
      <path id="Path_56" data-name="Path 56" d="M206,86h2.41v7.063H206Zm0,0" transform="translate(-206 -86)" fill="#fff"/>
    </clipPath>
    <clipPath id="clip-path-7">
      <path id="Path_68" data-name="Path 68" d="M46,0H63.866V8.31H46Zm0,0" transform="translate(-46)" fill="#fff"/>
    </clipPath>
    <clipPath id="clip-path-8">
      <path id="Path_67" data-name="Path 67" d="M63.8.043C58.186,2.161,52.681,4.172,47.5,6.077a6.687,6.687,0,0,0-.636,1.905C53.21,5.337,58.821,3.219,63.584,1.421a2.987,2.987,0,0,0,.529-1.06.818.818,0,0,0,.105-.318A.149.149,0,0,0,64.11,0c-.08,0-.174.047-.315.047" transform="translate(-46.859 0.004)" fill="#fff"/>
    </clipPath>
    <clipPath id="clip-path-9">
      <path id="Path_72" data-name="Path 72" d="M131,102h6.232v4.155H131Zm0,0" transform="translate(-131 -102)" fill="#fff"/>
    </clipPath>
    <clipPath id="clip-path-10">
      <path id="Path_71" data-name="Path 71" d="M136.834,102.511c-1.868,1.092-3.707,2.142-5.437,3.134a2.449,2.449,0,0,0-.112.716c2.1-1.326,3.97-2.418,5.557-3.347a1.1,1.1,0,0,0,.125-.41.289.289,0,0,0,.018-.118.052.052,0,0,0-.042-.01c-.027,0-.058.026-.108.036" transform="translate(-131.285 -102.474)" fill="#fff"/>
    </clipPath>
  </defs>
  <g id="surface1" transform="translate(0 0.004)">
    <g id="Group_2" data-name="Group 2" transform="translate(0 0.413)" clip-path="url(#clip-path)">
      <path id="Path_29" data-name="Path 29" d="M65.684,60.268a10.216,10.216,0,0,0,1.675,5.482,9.109,9.109,0,0,0,3.691-2.629,5.74,5.74,0,0,0-.967-3.906c-.563-.863-1.445-1.81-2.584-1.617A2.809,2.809,0,0,0,65.684,60.268Zm-57.121-6.7a5.086,5.086,0,0,1-1.621.544c-1.258,2.71-2.676,6.182-2.524,9.231a6.2,6.2,0,0,0,1.605,4.064,3.27,3.27,0,0,0,3.121.717c2.162-.683,3.571-2.574,5.064-4.157A28.76,28.76,0,0,1,25.02,57.33C29.5,55.6,34.183,54.1,38.058,51.156c-1.78-5.406-6.492-9-10.689-12.513C20.45,42.787,15.9,50.035,8.563,53.568Zm.166-29.483a29.234,29.234,0,0,0-2.748,4.283c-.8,1.529-1.373,4.147-.3,5.02.315.45,1.569.415,2.746-1.344-.222,2.035-2.152,5.348-3.684,4.861a37.279,37.279,0,0,0-3.173,7.161c-.467,2.06-.45,4.46.917,6.187a4.157,4.157,0,0,0,5.025.461C14.055,46.94,19.1,41.2,24.631,36.175,19.323,32.151,14.044,28.094,8.729,24.085ZM48.419,1.952c1.49-.284,3.368.219,3.952,1.756.37,1.962-.591,3.868-1.537,5.528-2.19,3.821-5.562,6.737-8.271,10.162a2.718,2.718,0,0,1-.448.385,8.391,8.391,0,0,1,1.3-3.014c1.964-3,4.78-5.3,6.924-8.162A1.945,1.945,0,0,0,49.066,5.5c-4.934-.232-9.6,1.639-14.2,3.153-1.063.419-2.206.6-3.252,1.061-7.527,3-15.324,5.568-22.224,9.912C15.8,24.165,22.3,28.586,28.722,33.117c.252.162.542.5.855.269a16.739,16.739,0,0,1,8.459-1.711c-.86-4.415-2.738-8.633-2.931-13.172A6.543,6.543,0,0,1,36.2,13.95c1.079,2.092,2.086,4.221,3.113,6.336a14.881,14.881,0,0,0-1.62-.612,23.245,23.245,0,0,0,2.063,8.693,13,13,0,0,0,5,5.479c.591.333.6,1.089.651,1.686a6.075,6.075,0,0,1-.355,2.843,11.153,11.153,0,0,0-9.74-3.066,5.283,5.283,0,0,0-2.063.721c4.541,3.569,8.967,7.29,13.3,11.116,1.709,1.529,3.407,3.264,5.637,3.984-.825-10.214-2.576-20.323-3.5-30.525a4.248,4.248,0,0,1,.815-2.727,22.954,22.954,0,0,1,3.887,8.636c-.657-.461-1.241-1.016-1.9-1.467.829,8.652,2.236,17.236,3.111,25.882a2.372,2.372,0,0,0,.13.617c1.344.636,2.866.1,4.129-.48a5.629,5.629,0,0,0,2.365-1.849q-.53-5.6-1.324-11.182Q58.362,26.52,56.811,15C56.5,11.718,55.7,8.5,55.4,5.219a8.96,8.96,0,0,1,.857-2.938c1.514,2.793,3.417,5.5,3.972,8.686-.693-.443-1.289-1.022-1.986-1.459-.07,4.1.815,8.139,1.282,12.2q1.623,11.875,3.249,23.754a8.721,8.721,0,0,1-1.527,6.877c-1.5,1.741-3.7,2.569-5.81,3.306.206,4.587.4,9.394-1.445,13.713a87.493,87.493,0,0,0-.961-13.876c-3.319-1.084-5.921-3.515-8.357-5.916-3.325-3.1-6.552-6.408-10.47-8.761-.114.419.326.651.55.932,2,2.184,3.793,4.773,4.186,7.777a8.17,8.17,0,0,1-.549,4.139A8.4,8.4,0,0,1,35,56.546c-3.769,2.116-8.105,2.837-12.021,4.608a18.108,18.108,0,0,0-6.859,4.875,1.67,1.67,0,0,0-.562,1.071,11.584,11.584,0,0,0,1.715,7.2,8.754,8.754,0,0,0,5.353,3.34,15.846,15.846,0,0,0,8.978-.6,58.823,58.823,0,0,1,2.7-6.729c-.633-.82-1.534-1.4-2.121-2.253a3.763,3.763,0,0,1,1.391-2.308c.328-.443.811-.03,1.19.112a22.593,22.593,0,0,0,5.187-5.715c-1.711-.615-1.441-2.782-.651-4.035.347-.693,1.44-1.058,1.936-.32,1.037,1.113.542,2.689.44,4.021.558.557,1.133,1.42.408,2.115A11.057,11.057,0,0,1,40.878,60.8a50.835,50.835,0,0,1-5.518,5.476c.484.708,1.339,1.164,1.66,1.967-.344,1.357-1.571,2.267-2.225,3.476a10.461,10.461,0,0,0-1.488,4.75,43.809,43.809,0,0,0,14.282-8.592c.263-.294.756-.591.511-1.042-1.143-3.424-2.908-6.59-4.373-9.879-.281-.7-.8-1.4-.6-2.185a3.579,3.579,0,0,1,1.021-2.5q2.167,2.408,4.325,4.824c.075.071.208.35-.013.316-.734.226-1.276-.471-1.974-.536.313,2.263,1.831,4.087,2.547,6.21a7.491,7.491,0,0,1,.068,5.331,12.471,12.471,0,0,1-3.77,4.885,44.7,44.7,0,0,1-12.5,6.81,7.3,7.3,0,0,0,1.672,5.9,3.213,3.213,0,0,0,3.837.557c4.057-2.1,6.451-6.145,9.423-9.436a22.993,22.993,0,0,1,7.219-5.487c3.4-1.7,7.031-2.891,10.378-4.7-.839-3.494-1.733-7.468.118-10.8a3.357,3.357,0,0,1,4.4-1.589,6.978,6.978,0,0,1,2.285,3.572,9.509,9.509,0,0,1-2.593,9.663c-.305.346-.745.589-.958,1.006a5.171,5.171,0,0,0,3.363,2.534,8.209,8.209,0,0,0,7.469-2.394C78.6,58.476,77.09,48.09,75.826,37.682c-.992-7.716-1.933-15.441-2.941-23.15A7.233,7.233,0,0,1,73.917,11.9,25.765,25.765,0,0,1,77.7,20.726c-.8-.237-1.167-1.034-1.748-1.561.452,8.758,1.667,17.452,2.71,26.153q1,8.528,2.055,17.048a18.893,18.893,0,0,1-.057,5.729A7.437,7.437,0,0,1,77.1,73.773c-2.092.93-4.6,1.563-6.786.566-1.79-.885-2.793-2.723-3.7-4.41a93.985,93.985,0,0,0-12.468,5.492c-4.32,2.272-7.052,6.469-10.248,9.994-1.449,1.445-2.673,3.209-4.846,3.771a6.269,6.269,0,0,1-4.6-1.454c-1.943-1.519-2.688-4.033-2.941-6.39.029-.781-.9-.331-1.363-.325-4,.549-8.657,1.008-12.026-1.7-3.274-2.8-3.707-7.425-3.683-11.452-1.586.859-2.68,2.712-4.637,2.79-3.363.1-6.023-3.012-6.477-6.15-.55-3.671,1.152-7.117,2.405-10.457A6.51,6.51,0,0,1,1.089,50.86C-.269,48.816.028,45.567.028,45.567A23.2,23.2,0,0,1,3.3,37.134c.187-.342.508-.711.321-1.118a7.568,7.568,0,0,1-.226-4.356c.755-3.173,2.9-5.752,4.822-8.3a10.233,10.233,0,0,1,.725-6.021c.221-.644.956-.82,1.474-1.159,11.809-6.737,24.811-11.129,38-14.23" transform="translate(0 -1.513)" fill="#fff"/>
    </g>
    <path id="Path_31" data-name="Path 31" d="M159.969,37.109c.052-.052-1.886-13.963-2.592-19.859.774.294,1.219,1.078,1.939,1.47-.632-3.3-2.329-6.237-3.973-9.115a6.583,6.583,0,0,0-1.105,3.069c1.6,8.267,4.827,33.4,5.1,36.99,1.686-3.954,1.172-8.412.633-12.556" transform="translate(-90.155 -5.617)" fill="#fff"/>
    <path id="Path_32" data-name="Path 32" d="M49.688,148.572c4.054-1.664,8.069-3.417,12.077-5.189a2.7,2.7,0,0,1-1.592,1.977c-3.788,1.808-7.82,3.126-11.426,5.3.4.69,1.156,1.339.912,2.222-.745.154-1.193-.526-1.646-.987a2.883,2.883,0,0,1,1.675-3.324" transform="translate(-28.011 -83.812)" fill="#fff"/>
    <path id="Path_33" data-name="Path 33" d="M97.094,152.581a3.468,3.468,0,0,0-.045,2.269c.826.494,1.8-.1,2.466-.631A2.732,2.732,0,0,0,97.094,152.581Zm-.114-1.413a3.334,3.334,0,0,1,3.231,2.21,2.755,2.755,0,0,1-1.725,2.806c-.786.3-2,.143-2.206-.833a13.255,13.255,0,0,1,.7-4.184" transform="translate(-56.278 -88.362)" fill="#fff"/>
    <path id="Path_34" data-name="Path 34" d="M124.019,27.49a3.017,3.017,0,0,0-.039,1.97c.718.428,1.566-.086,2.141-.549A2.37,2.37,0,0,0,124.019,27.49Zm-.1-1.229a2.9,2.9,0,0,1,2.8,1.92,2.391,2.391,0,0,1-1.5,2.436c-.683.261-1.74.125-1.917-.722a11.5,11.5,0,0,1,.608-3.634" transform="translate(-72.078 -15.353)" fill="#fff"/>
    <path id="Path_35" data-name="Path 35" d="M22.031,73.675a2.943,2.943,0,0,0-.613,2.452c.14.678.86,1.24,2.146,1.586A20.525,20.525,0,0,1,20.1,81.555c-1.277,1.172-2.654,2.363-3.931,3.535-.329.37-.407.487-.386.585l.019.1a4.1,4.1,0,0,0,.639-.334c1.881-1.193,2.869-1.8,3.045-1.935a20.665,20.665,0,0,0,2.808-2.6,12.642,12.642,0,0,0,2.009-3.04c.565.289,1.013.5,1.246.656a4.375,4.375,0,0,0,.459-1.714,3.074,3.074,0,0,0-1.344-.636,7.859,7.859,0,0,0,.011-2.43c-.14-.678-.531-1.105-.938-1.122a1,1,0,0,0-.386,0,2.458,2.458,0,0,0-1.319,1.052m.278,1.36c-.019-.1.057-.214.211-.448a4,4,0,0,1,.544-.313c.291-.058.526.1.721.56a2.136,2.136,0,0,1,.122,1.089c-1.071-.287-1.539-.6-1.6-.888" transform="translate(-9.222 -42.44)" fill="#fff"/>
    <g id="Group_4" data-name="Group 4" transform="translate(6.232 29.913)" clip-path="url(#clip-path-2)">
      <g id="Group_3" data-name="Group 3" transform="translate(0.323 0.25)" clip-path="url(#clip-path-3)">
        <path id="Path_36" data-name="Path 36" d="M10.359,74.161,21.915,71.8l2.274,11.142L12.633,85.3,10.359,74.161" transform="translate(-12.611 -72.134)" fill="#fff"/>
      </g>
    </g>
    <path id="Path_39" data-name="Path 39" d="M161.742,58.612a2.487,2.487,0,0,0-.753,2c.05.584.6,1.126,1.646,1.542a17.44,17.44,0,0,1-3.285,2.887c-1.188.859-2.46,1.725-3.649,2.584-.312.278-.388.368-.381.453l.008.083a3.355,3.355,0,0,0,.57-.218c1.7-.816,2.586-1.23,2.746-1.328a17.49,17.49,0,0,0,2.611-1.905,10.727,10.727,0,0,0,1.985-2.357c.446.3.8.521.982.674a3.71,3.71,0,0,0,.555-1.394,2.6,2.6,0,0,0-1.066-.665,6.6,6.6,0,0,0,.245-2.04c-.049-.583-.336-.98-.676-1.034a.838.838,0,0,0-.325-.034,2.088,2.088,0,0,0-1.212.753m.1,1.17c-.007-.084.07-.175.222-.355a3.093,3.093,0,0,1,.487-.209c.25-.023.432.13.55.54a1.8,1.8,0,0,1,0,.925c-.87-.346-1.234-.651-1.254-.9" transform="translate(-90.786 -33.82)" fill="#fff"/>
    <g id="Group_6" data-name="Group 6" transform="translate(64.4 23.68)" clip-path="url(#clip-path-4)">
      <g id="Group_5" data-name="Group 5" transform="translate(0.133 0.355)" clip-path="url(#clip-path-5)">
        <path id="Path_40" data-name="Path 40" d="M153.363,58.405l9.936-.85.82,9.579-9.934.85-.821-9.579" transform="translate(-154.176 -57.68)" fill="#fff"/>
      </g>
    </g>
    <path id="Path_43" data-name="Path 43" d="M98.978,54.321a2.048,2.048,0,0,1,1.985.631,7.959,7.959,0,0,1,1.922,2.644l.065.23.058-.016c-.016-.057.025-.131-.006-.247-.094-.784-.1-1.907-.152-3.449.172-1.17.506-1.763,1.027-1.909a1.045,1.045,0,0,1,.9.312,1.318,1.318,0,0,1,.542.6,2.7,2.7,0,0,1,.046.61c-.02.38-.086.586-.2.618-.057.016-.2-.068-.5-.235a.732.732,0,0,0-.675-.185c-.462.13-.576,1.284-.4,3.478a10.5,10.5,0,0,1,.029,2.113c-.111.279-.177.485-.292.518-.059.016-.15-.084-.229-.373a9.2,9.2,0,0,0-1.234-1.962c-.753-.912-1.188-1.352-1.362-1.3-.116.032-.174.049-.2.18a.351.351,0,0,1-.256.2,1.268,1.268,0,0,1-.881-.253c-.428-.193-.609-.391-.656-.565a4.77,4.77,0,0,1,.136-.849c.161-.544.286-.766.342-.782" transform="translate(-57.573 -30.506)" fill="#fff"/>
    <path id="Path_44" data-name="Path 44" d="M63.015,51.83A2.049,2.049,0,0,1,65,52.462a7.978,7.978,0,0,1,1.922,2.644l.065.23.057-.015c-.016-.058.026-.133-.007-.248-.094-.784-.1-1.905-.151-3.449.172-1.17.5-1.763,1.026-1.909a1.051,1.051,0,0,1,.9.312,1.321,1.321,0,0,1,.54.6,2.617,2.617,0,0,1,.045.61c-.018.38-.086.586-.2.618-.058.016-.206-.068-.5-.235a.733.733,0,0,0-.675-.185c-.463.13-.578,1.284-.4,3.478a10.466,10.466,0,0,1,.028,2.113c-.109.279-.177.485-.292.518-.058.016-.148-.083-.229-.373a9.218,9.218,0,0,0-1.233-1.962c-.753-.912-1.188-1.352-1.362-1.3-.115.032-.174.049-.2.18a.359.359,0,0,1-.258.2,1.263,1.263,0,0,1-.881-.253c-.427-.193-.607-.391-.656-.565a4.876,4.876,0,0,1,.138-.849c.159-.544.284-.766.342-.782" transform="translate(-36.551 -29.051)" fill="#fff"/>
    <path id="Path_45" data-name="Path 45" d="M31.885,121.9a2.051,2.051,0,0,1,1.983.632,7.956,7.956,0,0,1,1.922,2.644l.065.232.058-.016c-.016-.059.026-.133-.006-.248-.094-.784-.1-1.905-.153-3.449.172-1.17.506-1.762,1.027-1.907a1.047,1.047,0,0,1,.9.31,1.327,1.327,0,0,1,.54.6,2.716,2.716,0,0,1,.045.612c-.019.378-.086.584-.2.617-.057.016-.2-.066-.5-.234a.733.733,0,0,0-.675-.187c-.463.13-.576,1.284-.4,3.48a10.332,10.332,0,0,1,.028,2.111c-.109.279-.175.485-.291.518-.058.017-.149-.083-.229-.371a9.244,9.244,0,0,0-1.233-1.964c-.755-.912-1.188-1.352-1.362-1.3-.115.032-.174.049-.2.18a.348.348,0,0,1-.256.2,1.253,1.253,0,0,1-.881-.253c-.428-.192-.609-.391-.657-.565a5.077,5.077,0,0,1,.138-.849c.161-.543.286-.766.344-.782" transform="translate(-18.354 -70.009)" fill="#fff"/>
    <path id="Path_46" data-name="Path 46" d="M55.117,162.812a2.045,2.045,0,0,1,1.983.631,7.982,7.982,0,0,1,1.923,2.644c.032.116.049.174.063.232l.058-.016c-.016-.059.026-.133-.006-.248-.094-.784-.1-1.907-.153-3.449.174-1.17.506-1.763,1.027-1.907a1.043,1.043,0,0,1,.9.31,1.329,1.329,0,0,1,.54.6,2.617,2.617,0,0,1,.045.61c-.019.38-.086.586-.2.618-.058.016-.206-.068-.5-.234a.73.73,0,0,0-.675-.187c-.464.13-.578,1.284-.4,3.48a10.369,10.369,0,0,1,.029,2.112c-.11.279-.177.485-.292.518-.058.016-.148-.083-.229-.374a9.25,9.25,0,0,0-1.233-1.962c-.753-.912-1.188-1.352-1.362-1.3-.115.032-.174.049-.2.18a.359.359,0,0,1-.258.2,1.253,1.253,0,0,1-.881-.253c-.427-.192-.607-.391-.656-.565a4.783,4.783,0,0,1,.136-.849c.161-.543.286-.766.344-.782" transform="translate(-31.934 -93.922)" fill="#fff"/>
    <path id="Path_47" data-name="Path 47" d="M137.218,180.021a2.047,2.047,0,0,1,1.984.632,7.981,7.981,0,0,1,1.923,2.644c.032.116.047.174.063.231l.059-.016c-.016-.057.026-.132-.007-.247-.094-.784-.1-1.907-.151-3.449.172-1.17.5-1.762,1.026-1.908a1.046,1.046,0,0,1,.9.312,1.323,1.323,0,0,1,.541.6,2.632,2.632,0,0,1,.045.61c-.018.38-.086.586-.2.617-.059.016-.206-.066-.5-.233a.734.734,0,0,0-.675-.185c-.465.13-.578,1.284-.4,3.478a10.362,10.362,0,0,1,.029,2.113c-.109.279-.177.485-.292.518-.059.016-.148-.085-.229-.374a9.212,9.212,0,0,0-1.234-1.962c-.753-.912-1.188-1.352-1.362-1.3-.115.032-.174.049-.2.18a.36.36,0,0,1-.258.2,1.27,1.27,0,0,1-.881-.253c-.427-.193-.607-.393-.656-.565a4.78,4.78,0,0,1,.136-.849c.161-.543.286-.766.344-.782" transform="translate(-79.924 -103.98)" fill="#fff"/>
    <path id="Path_48" data-name="Path 48" d="M47.153,39.171c0-.065.065-.13.065-.195h.065a.122.122,0,0,1,0,.195c-.325,1.879-.909,2.852-1.621,2.852-.842,0-1.232-.712-1.232-2.074a11.5,11.5,0,0,1,1.427-5.317c.26-.454.388-.648.454-.648a6.158,6.158,0,0,1-.195.777,14.927,14.927,0,0,0-.974,3.955c0,1.1.26,1.621.844,1.621q.487,0,1.167-1.167" transform="translate(-25.97 -19.867)" fill="#fff"/>
    <path id="Path_49" data-name="Path 49" d="M64.964,34.628c0-.065.065-.13.065-.195h.065a.122.122,0,0,1,0,.195c-.323,1.879-.907,2.852-1.62,2.852-.844,0-1.232-.713-1.232-2.074a11.493,11.493,0,0,1,1.425-5.317c.26-.454.39-.648.454-.648a5.843,5.843,0,0,1-.195.777,14.97,14.97,0,0,0-.972,3.955c0,1.1.26,1.621.842,1.621q.487,0,1.167-1.167" transform="translate(-36.382 -17.211)" fill="#fff"/>
    <path id="Path_50" data-name="Path 50" d="M98.807,22.8c0-.055.055-.112.055-.167h.057a.105.105,0,0,1,0,.167c-.281,1.628-.786,2.47-1.4,2.47-.729,0-1.066-.617-1.066-1.8a9.938,9.938,0,0,1,1.235-4.6c.224-.393.337-.562.393-.562a4.836,4.836,0,0,1-.169.674,12.9,12.9,0,0,0-.841,3.425c0,.953.224,1.4.729,1.4q.421,0,1.011-1.011" transform="translate(-56.376 -10.704)" fill="#fff"/>
    <path id="Path_51" data-name="Path 51" d="M150.181,41.383c-.008-.055.041-.118.032-.174l.055-.008a.106.106,0,0,1,.025.167c-.057,1.651-.443,2.553-1.055,2.637-.722.1-1.139-.466-1.3-1.634a9.942,9.942,0,0,1,.6-4.728c.169-.419.257-.6.313-.609a5.248,5.248,0,0,1-.076.69,12.913,12.913,0,0,0-.367,3.507c.13.945.414,1.358.914,1.29q.416-.058.863-1.139" transform="translate(-86.427 -21.65)" fill="#fff"/>
    <path id="Path_52" data-name="Path 52" d="M134.184,74.867c-.013-.06.032-.133.021-.192l.058-.013a.113.113,0,0,1,.039.179c.083,1.8-.258,2.814-.915,2.957-.777.172-1.281-.407-1.556-1.662a10.851,10.851,0,0,1,.238-5.19c.148-.471.227-.677.288-.688a5.5,5.5,0,0,1-.021.755,14.09,14.09,0,0,0-.1,3.843c.222,1.016.567,1.443,1.105,1.324q.448-.1.839-1.313" transform="translate(-76.933 -41.069)" fill="#fff"/>
    <path id="Path_53" data-name="Path 53" d="M175.116,88.295c-.007-.06.049-.127.044-.188l.06,0a.114.114,0,0,1,.018.182c-.145,1.8-.609,2.759-1.279,2.821-.792.073-1.219-.565-1.336-1.844a10.833,10.833,0,0,1,.883-5.119c.206-.45.31-.643.371-.649a5.735,5.735,0,0,1-.117.748,14.143,14.143,0,0,0-.573,3.8c.094,1.035.381,1.5.93,1.451q.458-.041,1-1.2" transform="translate(-100.879 -48.805)" fill="#fff"/>
    <path id="Path_54" data-name="Path 54" d="M181.464,145.58c-.006-.061.049-.128.044-.188l.061-.007a.115.115,0,0,1,.016.184c-.142,1.795-.608,2.759-1.279,2.821-.792.071-1.219-.565-1.336-1.846a10.849,10.849,0,0,1,.885-5.119c.2-.448.309-.643.37-.648a5.542,5.542,0,0,1-.115.747,14.089,14.089,0,0,0-.575,3.8c.094,1.037.383,1.5.932,1.451q.455-.042,1-1.2" transform="translate(-104.59 -82.289)" fill="#fff"/>
    <g id="Group_7" data-name="Group 7" transform="translate(85.59 35.729)" clip-path="url(#clip-path-6)">
      <path id="Path_55" data-name="Path 55" d="M208.4,90.965c-.008-.052.036-.112.028-.166l.054-.008a.1.1,0,0,1,.022.157c-.032,1.555-.384,2.41-.959,2.5-.68.1-1.079-.425-1.245-1.522a9.356,9.356,0,0,1,.5-4.46c.154-.4.235-.571.287-.578a4.764,4.764,0,0,1-.061.651,12.23,12.23,0,0,0-.3,3.306c.135.889.408,1.276.878,1.2.261-.039.527-.4.8-1.083" transform="translate(-206.125 -86.518)" fill="#fff"/>
    </g>
    <path id="Path_57" data-name="Path 57" d="M113.876,93.317c0-.057.046-.117.041-.174l.055,0a.106.106,0,0,1,.016.169c-.132,1.652-.56,2.54-1.177,2.6-.73.066-1.123-.519-1.23-1.7a9.99,9.99,0,0,1,.813-4.715c.188-.412.285-.591.341-.6a4.654,4.654,0,0,1-.106.69,12.973,12.973,0,0,0-.529,3.5c.088.954.352,1.383.857,1.336q.421-.039.919-1.1" transform="translate(-65.201 -51.963)" fill="#fff"/>
    <path id="Path_58" data-name="Path 58" d="M23.919,137.411c0-.057.045-.117.041-.174l.057,0a.106.106,0,0,1,.015.169c-.131,1.652-.56,2.54-1.177,2.6-.729.067-1.123-.519-1.23-1.7a10.008,10.008,0,0,1,.813-4.715c.19-.412.286-.591.342-.6a5.116,5.116,0,0,1-.107.69,12.98,12.98,0,0,0-.529,3.5c.088.954.354,1.383.859,1.336q.419-.039.917-1.1" transform="translate(-12.62 -77.736)" fill="#fff"/>
    <path id="Path_59" data-name="Path 59" d="M29.591,170.829c0-.046.037-.1.034-.141l.045,0a.085.085,0,0,1,.011.136c-.107,1.345-.454,2.068-.958,2.115-.594.054-.914-.424-1-1.383a8.138,8.138,0,0,1,.662-3.837c.154-.336.232-.48.279-.485a4.456,4.456,0,0,1-.088.56,10.578,10.578,0,0,0-.43,2.849c.071.777.287,1.125.7,1.087q.343-.032.747-.9" transform="translate(-16.188 -97.751)" fill="#fff"/>
    <path id="Path_60" data-name="Path 60" d="M68.2,198.291c0-.047.037-.1.034-.141l.045,0a.087.087,0,0,1,.013.138c-.107,1.344-.456,2.066-.958,2.113-.594.054-.914-.424-1-1.383a8.108,8.108,0,0,1,.662-3.835c.153-.337.232-.482.278-.487a4.145,4.145,0,0,1-.088.562,10.561,10.561,0,0,0-.43,2.847c.071.777.287,1.126.7,1.087.229-.02.477-.32.747-.9" transform="translate(-38.756 -113.802)" fill="#fff"/>
    <path id="Path_61" data-name="Path 61" d="M162.1,179.838c0-.054.046-.113.041-.169l.055-.007a.105.105,0,0,1,.016.166c-.13,1.626-.552,2.5-1.159,2.554-.718.065-1.1-.511-1.209-1.67a9.812,9.812,0,0,1,.8-4.636c.185-.406.281-.581.336-.586a4.786,4.786,0,0,1-.106.677,12.766,12.766,0,0,0-.519,3.441c.086.938.346,1.359.844,1.313.275-.025.576-.386.9-1.084" transform="translate(-93.411 -102.58)" fill="#fff"/>
    <path id="Path_62" data-name="Path 62" d="M141.524,143.818a1.363,1.363,0,0,1-.362.828c-.516.31-1.756,1.136-3.616,2.428-.052.052-.156.1-.258.206-.052-.05-.052-.05-.052-.1l.1-.672q0-.234.93-.93c-.724-.26-1.086-.57-1.086-.982a1.928,1.928,0,0,1,.568-1.344c.724-.93,1.344-1.344,1.86-1.344.414,0,.672.208.672.724a2.472,2.472,0,0,1-.362,1.034c-.052.1-.154.052-.206-.052a.528.528,0,0,0-.516-.414,1.008,1.008,0,0,0-.672.258c-.206.156-.362.312-.362.414,0,.156.156.31.464.466a1.767,1.767,0,0,0,.724.258,2.017,2.017,0,0,0,.878-.362,8.381,8.381,0,0,1,.88-.568c.258-.156.362-.208.412-.156.052,0,.052.1,0,.31" transform="translate(-80.186 -82.949)" fill="#fff"/>
    <path id="Path_63" data-name="Path 63" d="M58.011,110.92l1.079-2.232c.073-.143.144-.216.289-.216a8.98,8.98,0,0,1,1.8,1.081c1.081.719,1.584,1.151,1.584,1.3a8.127,8.127,0,0,1-1.367,2.951c-.144.216-.289.289-.36.145-.936-.648-2.016-1.368-3.168-2.161a17.049,17.049,0,0,1-1.151,2.3c-.144.145-.216.216-.36.145-1.079-.865-2.16-1.584-3.239-2.3-.071,0-.071-.071,0-.216l1.3-2.806c.144-.145.217-.218.289-.218a6.119,6.119,0,0,1,1.584.936,12.949,12.949,0,0,1,1.727,1.3" transform="translate(-31.016 -63.406)" fill="#fff"/>
    <path id="Path_64" data-name="Path 64" d="M160.647,108.1l1.081-2.232c.071-.145.143-.216.287-.216a8.952,8.952,0,0,1,1.8,1.079c1.079.72,1.584,1.152,1.584,1.3a8.114,8.114,0,0,1-1.368,2.952c-.145.216-.287.287-.36.143-.935-.647-2.016-1.367-3.166-2.158a17.185,17.185,0,0,1-1.153,2.3c-.144.145-.216.216-.36.145-1.079-.863-2.158-1.584-3.24-2.3-.071,0-.071-.073,0-.216l1.3-2.808c.145-.144.216-.216.288-.216a6.054,6.054,0,0,1,1.584.936,12.645,12.645,0,0,1,1.727,1.3" transform="translate(-91.008 -61.758)" fill="#fff"/>
    <path id="Path_65" data-name="Path 65" d="M63.8.043C58.186,2.161,52.681,4.172,47.5,6.077a6.687,6.687,0,0,0-.636,1.905C53.21,5.337,58.821,3.219,63.584,1.421a2.987,2.987,0,0,0,.529-1.06.818.818,0,0,0,.105-.318A.149.149,0,0,0,64.11,0c-.08,0-.174.047-.315.047" transform="translate(-27.39)" fill="#fff"/>
    <g id="Group_9" data-name="Group 9" transform="translate(19.112 -0.002)" clip-path="url(#clip-path-7)">
      <g id="Group_8" data-name="Group 8" transform="translate(0.357 -0.002)" clip-path="url(#clip-path-8)">
        <path id="Path_66" data-name="Path 66" d="M46.859,0H64.219V7.983H46.859V0" transform="translate(-46.859 0.004)" fill="#fff"/>
      </g>
    </g>
    <path id="Path_69" data-name="Path 69" d="M136.834,102.511c-1.868,1.092-3.707,2.142-5.437,3.134a2.449,2.449,0,0,0-.112.716c2.1-1.326,3.97-2.418,5.557-3.347a1.1,1.1,0,0,0,.125-.41.289.289,0,0,0,.018-.118.052.052,0,0,0-.042-.01c-.027,0-.058.026-.108.036" transform="translate(-76.738 -59.9)" fill="#fff"/>
    <g id="Group_11" data-name="Group 11" transform="translate(54.428 42.377)" clip-path="url(#clip-path-9)">
      <g id="Group_10" data-name="Group 10" transform="translate(0.118 0.197)" clip-path="url(#clip-path-10)">
        <path id="Path_70" data-name="Path 70" d="M130.125,103.511l6.179-1.05.484,2.842-6.18,1.05-.482-2.842" transform="translate(-130.607 -102.466)" fill="#fff"/>
      </g>
    </g>
    <path id="Path_73" data-name="Path 73" d="M192.135,54.5a8.414,8.414,0,0,0-.673-2.962,10.957,10.957,0,0,1,.763-3.249c.084-.2.174-.3.271-.308s.2.084.315.368c.217.373.677,1.508,1.573,3.39.9,1.978,1.465,3.2,1.592,3.679a2.387,2.387,0,0,1,.146.766c.037.581-.469.224-1.607-.867-.109-.187-.2-.084-.18.206.007.1.542,3.941,1.513,11.538,1.066,7.592,1.626,11.823,1.689,12.789a20.91,20.91,0,0,1-.86,7.812,2.943,2.943,0,0,1-.42,1c-.073.393-.169.4-.278.212a10.074,10.074,0,0,1,0-1.456,33.962,33.962,0,0,0-.028-3.488c-.081-1.256-.781-6.156-1.922-14.907-1.134-8.654-1.836-13.555-1.9-14.521" transform="translate(-111.91 -28.05)" fill="#fff"/>
  </g>
</svg>
