<svg xmlns="http://www.w3.org/2000/svg" width="99.364" height="90.132" viewBox="0 0 99.364 90.132">
  <g id="_31198660_7800337" data-name="31198660_7800337" transform="translate(-8.154 -47.502)">
    <g id="Floor" transform="translate(8.154 80.267)">
      <path id="Floor_00000079461129701610602290000006308895280224059572_" d="M22.705,215.41c-19.4,11.2-19.4,29.363,0,40.565s50.859,11.2,70.261,0,19.4-29.363,0-40.565S42.107,204.209,22.705,215.41Z" transform="translate(-8.154 -207.009)" fill="#f5f5f5"/>
    </g>
    <g id="Shadows" transform="translate(17.461 83.168)">
      <path id="Shadow_00000069368536177989537710000014883931357908344464_" d="M53.913,272.558l24.623,14.216a2.4,2.4,0,0,0,2.176,0l39.722-22.934a.663.663,0,0,0,0-1.256L95.811,248.368a2.4,2.4,0,0,0-2.176,0L53.913,271.3A.663.663,0,0,0,53.913,272.558Z" transform="translate(-53.463 -242.567)" fill="#e0e0e0"/>
      <path id="Shadow_00000119826706111449120290000000394269519074279602_" d="M301.216,232.921l-7.007,4.046L273.8,225.181l7.007-4.046Z" transform="translate(-228.538 -221.135)" fill="#e0e0e0"/>
      <ellipse id="Shadow_00000127727135693870797120000015367067425563049881_" cx="10.613" cy="6.128" rx="10.613" ry="6.128" transform="translate(67.009 22.631)" fill="#e0e0e0"/>
      <ellipse id="Shadow_00000183217983935296436220000011623685496524366759_" cx="11.734" cy="6.775" rx="11.734" ry="6.775" transform="translate(49.929 32.994)" fill="#e0e0e0"/>
    </g>
    <g id="Quran" transform="translate(64.992 54.494)">
      <g id="Book_61_" transform="translate(0 0)">
        <path id="XMLID_5699_" d="M387.634,125.178v.673s-.259-.237-.274-.407S387.634,125.178,387.634,125.178Z" transform="translate(-366.304 -116.215)"/>
        <path id="XMLID_5696_" d="M379.755,124.385a.706.706,0,0,0,.519.9c.734.231,1.195,0,1.3.206s-3.482,2.277-3.482,2.277l.682-2.973Z" transform="translate(-358.944 -115.585)" fill="#ba68c8"/>
        <path id="XMLID_5693_" d="M379.755,124.385a.706.706,0,0,0,.519.9c.734.231,1.195,0,1.3.206s-3.482,2.277-3.482,2.277l.682-2.973Z" transform="translate(-358.944 -115.585)" fill="#096b66"/>
        <path id="XMLID_5690_" d="M324.788,123.047,309.31,114.16l.021-30.63c0-.429.235-.64.524-.472l.524.3,14.409,8.315-.013.126Z" transform="translate(-304.286 -82.7)" fill="#ba68c8"/>
        <path id="XMLID_5689_" d="M324.788,123.047,309.31,114.16l.021-30.63c0-.429.235-.64.524-.472l.524.3,14.409,8.315-.013.126Z" transform="translate(-304.286 -82.7)" fill="#096b66"/>
        <path id="XMLID_5688_" d="M366.455,132.935l-.757-.851,3.869-2.234c.584.44,1.032.675,1.555.455l-1.453.819Z" transform="translate(-349.092 -119.927)" fill="#096b66"/>
        <path id="XMLID_5511_" d="M310.157,95.34,295.887,87.1a.992.992,0,0,0-.9,0l-3.814,2.2,14.471,8.282a1.324,1.324,0,0,1,1.051.181c.426.344.4-.092.4-.092l3.252-1.878C310.087,95.441,310.157,95.34,310.157,95.34Z" transform="translate(-289.877 -85.874)" fill="#fff"/>
        <path id="XMLID_00000053534753204351552100000015864673769271641530_" d="M361.2,140.057c-.148-.085-.21-.183-.141-.224l.121-.07c.135-.078.01-.278-.282-.447a1.007,1.007,0,0,0-.771-.166l-.121.07c-.07.04-.324-.043-.57-.184l.088,29.9.361.207a.335.335,0,0,0,.211-.02l.121-.07a1,1,0,0,1,.769.162c.292.169.417.369.282.447l-.121.07c-.069.04-.007.138.141.223Z" transform="translate(-344.12 -127.227)" fill="#ba68c8"/>
        <path id="XMLID_5509_" d="M361.2,140.057c-.148-.085-.21-.183-.141-.224l.121-.07c.135-.078.01-.278-.282-.447a1.007,1.007,0,0,0-.771-.166l-.121.07c-.07.04-.324-.043-.57-.184l.088,29.9.361.207a.335.335,0,0,0,.211-.02l.121-.07a1,1,0,0,1,.769.162c.292.169.417.369.282.447l-.121.07c-.069.04-.007.138.141.223l-.081-27.278Z" transform="translate(-344.12 -127.227)" fill="#096b66"/>
        <path id="XMLID_00000090997912295170259550000000018155729786418103_" d="M300.624,135.833v.042l-.359-.207-15.411-8.9,0-29.069c0-.429.235-.64.524-.472l.524.3,14.719,8.139Z" transform="translate(-284.854 -93.962)" fill="#ba68c8"/>
        <path id="XMLID_5506_" d="M300.624,135.833v.042l-.359-.207-15.411-8.9,0-29.069c0-.429.235-.64.524-.472l.524.3,14.719,8.426Z" transform="translate(-284.854 -93.962)" fill="#096b66"/>
        <path id="Path_92" data-name="Path 92" d="M298.141,128.134c-1.829-1.056-3.312-4.2-3.312-7.011,0-2.283.975-3.653,2.319-3.526-.108-.077-.219-.15-.331-.214-2.11-1.218-3.82.43-3.82,3.678s1.71,6.871,3.82,8.089a2.133,2.133,0,0,0,3.205-.831A1.954,1.954,0,0,1,298.141,128.134Zm-.768-4.972.2,1.619.651-.786.991.739-.516-1.61.41-1.162-.97-.21-.737-1.458-.083,1.481-.865.261Zm-7.329-17.11v26.607l13.549,7.823V113.874Zm12.985,33.383-12.421-7.171V107.1l12.421,7.171Zm-.515-24.828-11.393-6.578v23.9l11.393,6.578Zm-.505,18.6c0,1.518-.263,1.965-1.375,1.384,0,1.771-1.943.91-3.816-.171S293,131.956,293,130.185c-1.11-.7-1.373-1.453-1.373-2.97V113.325c0-1.52.263-1.965,1.373-1.387,0-1.771,1.944-.908,3.817.174s3.816,2.462,3.816,4.233c1.112.705,1.375,1.454,1.375,2.973Z" transform="translate(-288.978 -101.017)" fill="#ba68c8"/>
        <path id="Path_93" data-name="Path 93" d="M298.141,128.134c-1.829-1.056-3.312-4.2-3.312-7.011,0-2.283.975-3.653,2.319-3.526-.108-.077-.219-.15-.331-.214-2.11-1.218-3.82.43-3.82,3.678s1.71,6.871,3.82,8.089a2.133,2.133,0,0,0,3.205-.831A1.954,1.954,0,0,1,298.141,128.134Zm-.768-4.972.2,1.619.651-.786.991.739-.516-1.61.41-1.162-.97-.21-.737-1.458-.083,1.481-.865.261Zm-7.329-17.11v26.607l13.549,7.823V113.874Zm12.985,33.383-12.421-7.171V107.1l12.421,7.171Zm-.515-24.828-11.393-6.578v23.9l11.393,6.578Zm-.505,18.6c0,1.518-.263,1.965-1.375,1.384,0,1.771-1.943.91-3.816-.171S293,131.956,293,130.185c-1.11-.7-1.373-1.453-1.373-2.97V113.325c0-1.52.263-1.965,1.373-1.387,0-1.771,1.944-.908,3.817.174a28.911,28.911,0,0,1,2.988,2.261,4.908,4.908,0,0,1,.827,1.972c1.112.705,1.375,1.454,1.375,2.973Z" transform="translate(-288.978 -101.017)" fill="#fff"/>
        <path id="XMLID_5489_" d="M367.2,173.048V143.122l.956.386v29.84a.9.9,0,0,1-.529-.052Z" transform="translate(-350.289 -130.473)" fill="#ba68c8"/>
        <path id="XMLID_5485_" d="M367.2,173.048V143.122l.956.386v29.84a.9.9,0,0,1-.529-.052Z" transform="translate(-350.289 -130.473)" fill="#096b66"/>
        <g id="XMLID_5482_" transform="translate(17.872 9.948)">
          <path id="XMLID_5484_" d="M377.009,159.821a.282.282,0,0,1-.005.051.072.072,0,0,1-.007.034.287.287,0,0,1-.03.071.171.171,0,0,1-.017.037.663.663,0,0,1-.082.116,1.284,1.284,0,0,1-.107.115c-.045.041-.09.08-.141.122-.025.02-.051.04-.077.058l-.073.051c-.053.037-.11.073-.171.108l-3.319,1.916a3.164,3.164,0,0,1-1.119.4v-29.84l5.152-3.087,0,29.84Z" transform="translate(-371.859 -129.972)" fill="#ba68c8"/>
        </g>
        <g id="XMLID_00000070119448827512809250000000428872141542872742_" transform="translate(17.872 9.948)">
          <path id="XMLID_00000174588941499257207050000005551303628450708610_" d="M377.009,159.821a.282.282,0,0,1-.005.051.072.072,0,0,1-.007.034.287.287,0,0,1-.03.071.171.171,0,0,1-.017.037.663.663,0,0,1-.082.116,1.284,1.284,0,0,1-.107.115c-.045.041-.09.08-.141.122-.025.02-.051.04-.077.058l-.073.051c-.053.037-.11.073-.171.108l-3.319,1.916a3.164,3.164,0,0,1-1.119.4v-29.84l5.152-3.087,0,29.84Z" transform="translate(-371.859 -129.972)" fill="#096b66"/>
        </g>
        <path id="Path_94" data-name="Path 94" d="M379.3,139.3l-3.552,2.05c0,.829.274,1.049.274,1.049a3.72,3.72,0,0,0-.274,1.469v22.259c0,.895.274,1.152.274,1.152a3.094,3.094,0,0,0-.274,1.365l3.552-2.05c0-.829-.274-1.049-.274-1.049a3.719,3.719,0,0,0,.274-1.469V141.818c0-.895-.274-1.152-.274-1.152A3.094,3.094,0,0,0,379.3,139.3Zm-.579,22.573a5.642,5.642,0,0,1-1.2,3.412,1.05,1.05,0,0,1-.87-.577,2.885,2.885,0,0,1-.327-1.453v-2.734a1.068,1.068,0,0,0,.919.186c-.033.192-.14.656-.426.756a.347.347,0,0,0,.509.081.972.972,0,0,0,.195.782,1.921,1.921,0,0,0,.208-.833.908.908,0,0,0-.014-.173s.266-.086.509-.669c-.286.23-.393-.111-.426-.264a4.556,4.556,0,0,0,.919-1.247v2.734Zm-2.393-15.8a5.642,5.642,0,0,1,1.2-3.412,1.05,1.05,0,0,1,.87.577,2.886,2.886,0,0,1,.327,1.453v2.734a1.068,1.068,0,0,0-.919-.186c.033-.192.14-.656.426-.756a.347.347,0,0,0-.509-.081.972.972,0,0,0-.195-.782,1.921,1.921,0,0,0-.208.833.906.906,0,0,0,.014.173s-.266.086-.509.669c.286-.23.393.111.426.264a4.561,4.561,0,0,0-.919,1.247v-2.734Z" transform="translate(-357.081 -127.437)" fill="#fff" opacity="0.3"/>
        <path id="Path_95" data-name="Path 95" d="M380.967,195.485q-1.2,2.45-2.393,1.382V188.94q1.2-1.959,2.393-1.382Z" transform="translate(-359.323 -165.677)" fill="#cee8eb"/>
        <g id="XMLID_5453_" transform="translate(0.199)">
          <g id="Group_42" data-name="Group 42">
            <path id="XMLID_00000162323656514102661110000007579652954619623067_" d="M304.615,105.439l-.259-.448a2.351,2.351,0,0,1-1.105.348.684.684,0,0,0-.091-.438,1.356,1.356,0,0,0-.5-.457,1.979,1.979,0,0,0-.754-.255.531.531,0,0,0-.056,0,.848.848,0,0,0-.461.087l-13.668-7.891-.465-.267-.592-.342a.313.313,0,0,0-.321-.024l-.525.3a.319.319,0,0,1,.328.02l.008,0,1.566.906,13.219,7.631c.246.142.5.227.571.187l.121-.07a.424.424,0,0,1,.274-.018,1.485,1.485,0,0,1,.5.18c.292.169.416.37.282.447l-.121.07c-.07.04-.007.138.141.223l.263.15A2.118,2.118,0,0,0,304.615,105.439Z" transform="translate(-285.821 -92.803)" fill="#ba68c8"/>
            <path id="XMLID_00000012444362646001424190000002433237457067431832_" d="M304.615,105.439l-.259-.448a2.351,2.351,0,0,1-1.105.348.684.684,0,0,0-.091-.438,1.356,1.356,0,0,0-.5-.457,1.979,1.979,0,0,0-.754-.255.531.531,0,0,0-.056,0,.848.848,0,0,0-.461.087l-13.668-7.891-.465-.267-.592-.342a.313.313,0,0,0-.321-.024l-.525.3a.319.319,0,0,1,.328.02l.008,0,1.566.906,13.219,7.631c.246.142.5.227.571.187l.121-.07a.424.424,0,0,1,.274-.018,1.485,1.485,0,0,1,.5.18c.292.169.416.37.282.447l-.121.07c-.07.04-.007.138.141.223l.263.15A2.118,2.118,0,0,0,304.615,105.439Z" transform="translate(-285.821 -92.803)" fill="#096b66"/>
            <path id="XMLID_00000157272903203490376600000013454515001021322409_" d="M323.864,93.731l3.319-1.917c.047-.027.093-.056.136-.085l.106-.076a.024.024,0,0,0,.01-.009,1.487,1.487,0,0,1-1.234-.19,1.3,1.3,0,0,1-.486-.449.693.693,0,0,1-.084-.487l-.046-.027-.092-.051-13.219-7.63-.758-.438c-.071-.04-.144-.084-.219-.125l-.64-.369a.3.3,0,0,0-.286,0l.144-.083.381-.22a.29.29,0,0,1,.268,0s0,0,.007,0c.076.043.154.091.236.135l.148.085c.086.052.174.1.255.146.057.032.11.062.157.091s.079.044.112.064l.2.111,10.5,6.064,3.352,1.935c.24.136.38.28.324.327a.141.141,0,0,1-.02.015l-.118.068c-.146.084-.028.288.263.455a.7.7,0,0,0,.664.095l.144-.083a.242.242,0,0,1,.209-.031c.021.012.049.028.077.045.046.027.1.06.166.1l.205.118a.209.209,0,0,1,.111.238.072.072,0,0,1-.007.034.286.286,0,0,1-.03.071h0a.142.142,0,0,1-.015.036.669.669,0,0,1-.082.116,1.259,1.259,0,0,1-.107.115c-.043.04-.087.077-.136.117a.713.713,0,0,1-.085.064l-.07.049c-.053.037-.111.073-.171.108l-3.319,1.917Z" transform="translate(-305.329 -81.543)" fill="#ba68c8"/>
            <path id="XMLID_00000084532349626352249540000016940832261647177407_" d="M323.864,93.731l3.319-1.917c.047-.027.093-.056.136-.085l.106-.076a.024.024,0,0,0,.01-.009,1.487,1.487,0,0,1-1.234-.19,1.3,1.3,0,0,1-.486-.449.693.693,0,0,1-.084-.487l-.046-.027-.092-.051-13.219-7.63-.758-.438c-.071-.04-.144-.084-.219-.125l-.64-.369a.3.3,0,0,0-.286,0l.144-.083.381-.22a.29.29,0,0,1,.268,0s0,0,.007,0c.076.043.154.091.236.135l.148.085c.086.052.174.1.255.146.057.032.11.062.157.091s.079.044.112.064l.2.111,10.5,6.064,3.352,1.935c.24.136.38.28.324.327a.141.141,0,0,1-.02.015l-.118.068c-.146.084-.028.288.263.455a.7.7,0,0,0,.664.095l.144-.083a.242.242,0,0,1,.209-.031c.021.012.049.028.077.045.046.027.1.06.166.1l.205.118a.209.209,0,0,1,.111.238.072.072,0,0,1-.007.034.286.286,0,0,1-.03.071h0a.142.142,0,0,1-.015.036.669.669,0,0,1-.082.116,1.259,1.259,0,0,1-.107.115c-.043.04-.087.077-.136.117a.713.713,0,0,1-.085.064l-.07.049c-.053.037-.111.073-.171.108l-3.319,1.917Z" transform="translate(-305.329 -81.543)" fill="#096b66"/>
          </g>
        </g>
      </g>
    </g>
    <g id="Device" transform="translate(15.38 55.208)">
      <g id="Laptop_00000167380072664386744440000017064752009763617676_" transform="translate(0 0)">
        <g id="Group_45" data-name="Group 45" transform="translate(3.082 32.377)">
          <g id="Group_43" data-name="Group 43">
            <path id="Path_96" data-name="Path 96" d="M58.334,265.9c0,.615.46,1.009,1.028,1.337l23.263,13.431a2.272,2.272,0,0,0,2.055,0L122.208,259a1.667,1.667,0,0,0,1.028-1.364c0-.615-.46-1-1.028-1.323L98.945,242.88a2.272,2.272,0,0,0-2.055,0L59.361,264.547C58.794,264.875,58.334,265.283,58.334,265.9Z" transform="translate(-58.334 -242.635)" fill="#37474f"/>
            <path id="Path_97" data-name="Path 97" d="M61.689,265.734l23.263,13.431a2.272,2.272,0,0,0,2.055,0L124.536,257.5a.626.626,0,0,0,0-1.187L101.273,242.88a2.272,2.272,0,0,0-2.055,0L61.689,264.547A.626.626,0,0,0,61.689,265.734Z" transform="translate(-60.662 -242.635)" fill="#455a64"/>
            <path id="Path_98" data-name="Path 98" d="M83.653,364.352v1.5a2.1,2.1,0,0,1-1.028-.244L59.361,352.174c-.567-.327-1.027-.722-1.027-1.336a1.6,1.6,0,0,1,.947-1.3.632.632,0,0,0,.08,1.141l23.263,13.431A2.1,2.1,0,0,0,83.653,364.352Z" transform="translate(-58.334 -327.575)" fill="#263238"/>
          </g>
          <path id="Path_99" data-name="Path 99" d="M78.012,272.692,112.5,252.781a1.071,1.071,0,0,1,.969,0l1.256.7a.3.3,0,0,1,0,.56L80.232,273.953a1.071,1.071,0,0,1-.969,0l-1.251-.7A.3.3,0,0,1,78.012,272.692Z" transform="translate(-73.81 -250.605)" fill="#263238"/>
          <g id="Group_44" data-name="Group 44" transform="translate(7.361 4.042)">
            <path id="Path_100" data-name="Path 100" d="M94.4,282.355l34.486-19.911a.989.989,0,0,1,.886-.048l8.976,5.183c.221.128.184.357-.084.511l-34.446,19.884a.994.994,0,0,1-.887.05l-9.014-5.159C94.091,282.738,94.128,282.509,94.4,282.355Z" transform="translate(-94.168 -262.312)" fill="#263238"/>
            <path id="Path_101" data-name="Path 101" d="M127.659,273.72l1.08-.623c.046-.026.05-.067.009-.091l-1.033-.6a.174.174,0,0,0-.157.005l-1.08.623c-.046.026-.05.067-.009.09l1.033.6A.174.174,0,0,0,127.659,273.72Zm-1.577-2.157-1.08.623c-.046.026-.05.067-.009.091l1.033.6a.174.174,0,0,0,.157-.005l1.08-.623c.046-.026.05-.067.009-.091l-1.033-.6A.173.173,0,0,0,126.082,271.563Zm-3.488,2.014-1.827,1.055c-.046.026-.05.067-.009.09l1.033.6a.173.173,0,0,0,.157-.005l1.827-1.055c.046-.026.05-.067.009-.091l-1.033-.6A.174.174,0,0,0,122.594,273.577Zm1.91-1.1-1.08.623c-.046.026-.05.067-.009.09l1.033.6a.174.174,0,0,0,.157-.005l1.08-.623c.046-.026.05-.067.009-.091l-1.033-.6A.174.174,0,0,0,124.5,272.474Zm-4.236,2.446-1.08.623c-.046.026-.05.067-.009.091l1.033.6a.174.174,0,0,0,.157-.005l1.08-.623c.046-.026.05-.067.009-.09l-1.033-.6A.172.172,0,0,0,120.268,274.92Zm-1.578.911-1.08.623c-.046.026-.05.067-.009.091l1.033.6a.173.173,0,0,0,.157-.005l1.08-.623c.046-.027.05-.067.009-.091l-1.033-.6A.173.173,0,0,0,118.69,275.831Zm4.049,2.434,1.08-.623c.046-.026.05-.067.009-.09l-1.033-.6a.174.174,0,0,0-.157.005l-1.08.623c-.046.026-.05.067-.009.091l1.033.6A.174.174,0,0,0,122.739,278.265Zm-1.578.911,1.08-.623c.046-.027.05-.067.009-.091l-1.033-.6a.175.175,0,0,0-.157.005l-1.08.623c-.046.026-.05.067-.009.091l1.033.6A.176.176,0,0,0,121.161,279.176Zm-1.578.911,1.08-.623c.046-.026.05-.067.009-.09l-1.033-.6a.175.175,0,0,0-.157.005l-1.08.623c-.046.026-.05.067-.009.091l1.033.6A.176.176,0,0,0,119.583,280.087ZM118,281l1.08-.623c.046-.026.05-.067.009-.091l-1.033-.6a.174.174,0,0,0-.157.005l-1.08.623c-.046.026-.05.067-.009.091l1.033.6A.173.173,0,0,0,118,281Zm8.076-6.367,1.08-.623c.046-.027.05-.067.009-.091l-1.033-.6a.173.173,0,0,0-.157.005l-1.08.623c-.046.027-.05.067-.009.091l1.033.6A.174.174,0,0,0,126.081,274.631Zm-1.764,2.722,2.409-1.391c.046-.026.05-.067.009-.091l-2.509-1.448a.174.174,0,0,0-.157.005l-1.246.719c-.046.027-.05.067-.009.091l1.328.767c.041.023.037.064-.009.091l-1,.576c-.046.026-.05.067-.009.09l1.033.6A.174.174,0,0,0,124.317,277.353Zm-7.205-.611-1.08.623c-.046.026-.05.067-.009.091l1.033.6a.173.173,0,0,0,.157-.005l1.08-.623c.046-.026.05-.067.009-.091l-1.033-.6A.175.175,0,0,0,117.112,276.742Zm-1.578.911-1.08.623c-.046.027-.05.067-.009.091l1.033.6a.174.174,0,0,0,.157-.005l1.08-.623c.046-.026.05-.067.009-.091l-1.033-.6A.175.175,0,0,0,115.534,277.653Zm-8.733,9.728a.175.175,0,0,0,.157-.005l1.08-.623c.046-.027.05-.067.009-.091l-1.033-.6a.175.175,0,0,0-.157.005l-1.08.623c-.046.027-.05.067-.009.091Zm-3.892-2.439-1.08.623c-.046.026-.05.067-.009.091l1.033.6a.174.174,0,0,0,.157-.005l1.08-.623c.046-.027.05-.067.009-.091l-1.033-.6A.175.175,0,0,0,102.909,284.942Zm2,1.827a.173.173,0,0,0,.157-.005l1.08-.624c.046-.026.05-.067.009-.09l-1.033-.6a.173.173,0,0,0-.157.005l-1.08.623c-.046.026-.05.067-.009.091Zm4.354.979,1.08-.623c.046-.027.05-.067.009-.091l-1.033-.6a.174.174,0,0,0-.157.006l-1.08.623c-.046.026-.05.067-.009.091l1.033.6A.174.174,0,0,0,109.264,287.748Zm-1.735.916a.173.173,0,0,0,.157-.005l1.08-.623c.046-.027.05-.067.009-.091l-1.033-.6a.173.173,0,0,0-.157.005l-1.08.623c-.046.026-.05.067-.009.09Zm-3.042-4.634-1.08.623c-.046.026-.05.067-.009.091l1.033.6a.174.174,0,0,0,.157-.005l1.08-.623c.046-.026.05-.067.009-.091l-1.033-.6A.175.175,0,0,0,104.487,284.031Zm7.891-4.555-1.08.623c-.046.026-.05.067-.009.091l1.033.6a.174.174,0,0,0,.157-.005l1.08-.623c.046-.026.05-.067.009-.091l-1.033-.6A.174.174,0,0,0,112.378,279.476Zm-6.313,3.644-1.08.623c-.046.026-.05.067-.009.09l1.033.6a.174.174,0,0,0,.157-.005l1.08-.623c.046-.026.05-.067.009-.091l-1.033-.6A.175.175,0,0,0,106.065,283.12Zm7.891-4.556-1.08.623c-.046.026-.05.067-.009.09l1.033.6a.174.174,0,0,0,.157-.005l1.08-.623c.046-.026.05-.067.009-.091l-1.033-.6A.175.175,0,0,0,113.956,278.564Zm-3.156,1.822-1.08.623c-.046.027-.05.067-.009.091l1.033.6a.174.174,0,0,0,.157-.005l1.08-.623c.046-.026.05-.067.009-.091l-1.033-.6A.174.174,0,0,0,110.8,280.387Zm-1.578.911-1.08.623c-.046.027-.05.067-.009.091l1.033.6a.174.174,0,0,0,.157-.005l1.08-.623c.046-.026.05-.067.009-.091l-1.033-.6A.174.174,0,0,0,109.221,281.3Zm-1.578.911-1.08.623c-.046.026-.05.067-.009.091l1.033.6a.174.174,0,0,0,.157-.005l1.08-.623c.046-.027.05-.067.009-.091l-1.033-.6A.174.174,0,0,0,107.643,282.209Zm7.205.611,1.08-.623c.046-.026.05-.067.009-.091l-1.033-.6a.174.174,0,0,0-.157.005l-1.08.623c-.046.026-.05.067-.009.091l1.033.6A.173.173,0,0,0,114.848,282.82Zm14.722-13.272-1.08.623c-.046.026-.05.067-.009.091l1.033.6a.174.174,0,0,0,.157-.005l1.08-.623c.046-.026.05-.067.009-.091l-1.033-.6A.175.175,0,0,0,129.571,269.549Zm-1.91,1.1-1.08.623c-.046.026-.05.067-.009.091l1.033.6a.174.174,0,0,0,.157-.005l1.08-.623c.046-.027.05-.067.009-.091l-1.033-.6A.174.174,0,0,0,127.66,270.652Zm3.489-2.014-1.08.623c-.046.026-.05.067-.009.091l1.033.6a.173.173,0,0,0,.157-.005l1.08-.623c.046-.026.05-.067.009-.091l-1.033-.6A.175.175,0,0,0,131.149,268.638Zm-8.723,8.1,1.08-.623c.046-.026.05-.067.009-.091l-1.033-.6a.174.174,0,0,0-.157.005l-1.08.623c-.046.026-.05.067-.009.091l1.033.6A.176.176,0,0,0,122.426,276.741Zm10.458-9.02a.174.174,0,0,0-.157.005l-1.08.623c-.046.026-.05.067-.009.091l1.033.6a.173.173,0,0,0,.157-.005l1.08-.623c.046-.026.05-.067.009-.091Zm-16.457,14.188,1.08-.623c.046-.026.05-.067.009-.091l-1.033-.6a.174.174,0,0,0-.157.005l-1.08.624c-.046.026-.05.067-.009.09l1.033.6A.173.173,0,0,0,116.427,281.909Zm19.353-11.173,1.08-.623c.046-.027.05-.067.009-.091l-1.033-.6a.174.174,0,0,0-.157.005l-1.08.623c-.046.026-.05.067-.009.091l1.033.6A.174.174,0,0,0,135.779,270.736Zm-3.054.059,1.08-.623c.046-.026.05-.067.009-.09l-1.033-.6a.174.174,0,0,0-.157.005l-1.08.623c-.046.026-.05.067-.009.091l1.033.6A.174.174,0,0,0,132.726,270.795Zm1.634-2.222a.174.174,0,0,0-.157.005l-1.08.623c-.046.026-.05.067-.009.091l1.033.6a.173.173,0,0,0,.157-.005l1.08-.623c.046-.026.05-.067.009-.091Zm.332-.192,2.509,1.448a.174.174,0,0,0,.157-.005l1.08-.623c.046-.026.05-.067.009-.091l-2.509-1.449a.175.175,0,0,0-.157.005l-1.08.623C134.655,268.317,134.651,268.358,134.692,268.382Zm-3.645,2.02-1.08.623c-.046.026-.05.067-.009.091l1.033.6a.175.175,0,0,0,.157-.005l1.08-.623c.046-.026.05-.067.009-.091l-1.033-.6A.174.174,0,0,0,131.047,270.4Zm-11.878,6.857-1.08.623c-.046.027-.05.067-.009.091l1.033.6a.173.173,0,0,0,.157-.005l1.08-.623c.046-.026.05-.067.009-.091l-1.033-.6A.175.175,0,0,0,119.169,277.258Zm14.875-5.606a.174.174,0,0,0,.157-.005l1.08-.623c.046-.026.05-.067.009-.091l-1.033-.6a.173.173,0,0,0-.157.005l-1.08.623c-.046.026-.05.067-.009.091Zm-13.3,4.7-1.08.623c-.046.026-.05.067-.009.091l1.033.6a.173.173,0,0,0,.157-.005l1.08-.623c.046-.027.05-.067.009-.091l-1.033-.6A.173.173,0,0,0,120.747,276.347ZM108.379,286.47a.174.174,0,0,0,.157-.005l1.08-.623c.046-.027.05-.067.009-.091l-1.033-.6a.174.174,0,0,0-.157.005l-1.08.623c-.046.026-.05.067-.009.09Zm-1.835-1.923-1.08.623c-.046.026-.05.067-.009.091l1.033.6a.174.174,0,0,0,.157-.005l1.08-.623c.046-.026.05-.067.009-.091l-1.033-.6A.175.175,0,0,0,106.544,284.547Zm3.57,1.006,1.08-.623c.046-.026.05-.067.009-.091l-1.033-.6a.174.174,0,0,0-.157.005l-1.08.623c-.046.026-.05.067-.009.091l1.033.6A.173.173,0,0,0,110.114,285.554Zm1.578-.911,1.08-.623c.046-.026.05-.067.009-.091l-1.033-.6a.174.174,0,0,0-.157.005l-1.08.623c-.046.027-.05.067-.009.091l1.033.6A.175.175,0,0,0,111.692,284.643Zm1.578-.911,1.08-.623c.046-.026.05-.067.009-.091l-1.033-.6a.175.175,0,0,0-.157.005l-1.08.623c-.046.026-.05.067-.009.091l1.033.6A.175.175,0,0,0,113.27,283.731Zm-5.148-.095-1.08.623c-.046.026-.05.067-.009.091l1.033.6a.174.174,0,0,0,.157-.005l1.08-.623c.046-.027.05-.067.009-.091l-1.033-.6A.174.174,0,0,0,108.122,283.637Zm1.578-.911-1.08.623c-.046.026-.05.067-.009.091l1.033.6a.174.174,0,0,0,.157-.005l1.08-.623c.046-.027.05-.067.009-.091l-1.033-.6A.173.173,0,0,0,109.7,282.725Zm6.312-3.644-1.08.623c-.046.027-.05.067-.009.091l1.033.6a.174.174,0,0,0,.157-.005l1.08-.623c.046-.026.05-.067.009-.091l-1.033-.6A.172.172,0,0,0,116.013,279.081Zm-1.578.911-1.08.623c-.046.026-.05.067-.009.091l1.033.6a.174.174,0,0,0,.157-.005l1.08-.623c.046-.026.05-.067.009-.091l-1.033-.6A.172.172,0,0,0,114.435,279.992Zm3.156-1.822-1.08.623c-.046.027-.05.067-.009.091l1.033.6a.174.174,0,0,0,.157-.005l1.08-.623c.046-.026.05-.067.009-.09l-1.033-.6A.174.174,0,0,0,117.591,278.17Zm-6.312,3.644-1.08.623c-.046.026-.05.067-.009.09l1.033.6a.173.173,0,0,0,.157-.005l1.08-.623c.046-.026.05-.067.009-.091l-1.033-.6A.174.174,0,0,0,111.279,281.814Zm1.578-.911-1.08.623c-.046.027-.05.067-.009.091l1.033.6a.173.173,0,0,0,.157-.005l1.08-.623c.046-.027.05-.067.009-.09l-1.033-.6A.173.173,0,0,0,112.857,280.9Zm-2.014,5.934,1.08-.623c.046-.026.05-.067.009-.091l-1.033-.6a.174.174,0,0,0-.157.005l-1.08.623c-.046.026-.05.067-.009.091l1.033.6A.174.174,0,0,0,110.842,286.837Zm-8.321-.393-1.033-.6a.174.174,0,0,0-.157.005l-1.08.623c-.046.027-.05.067-.009.091l1.033.6a.174.174,0,0,0,.157-.005l1.08-.623C102.557,286.509,102.561,286.468,102.521,286.445Zm2.057.516-1.033-.6a.173.173,0,0,0-.157.005l-1.661.959c-.046.026-.05.067-.009.091l1.033.6a.174.174,0,0,0,.157-.005l1.661-.959C104.614,287.025,104.618,286.984,104.578,286.961Zm-3.6-1.694-1.033-.6a.173.173,0,0,0-.157.005l-1.329.767c-.046.026-.05.067-.009.091l1.033.6a.174.174,0,0,0,.157-.005l1.329-.767C101.015,285.331,101.019,285.29,100.979,285.267Zm1.019-.588a.173.173,0,0,0,.157-.005l1.08-.624c.046-.026.05-.067.009-.09l-1.033-.6a.174.174,0,0,0-.157.005l-1.08.623c-.046.027-.05.067-.009.091Zm4.471,2.895-1.033-.6a.173.173,0,0,0-.157.006l-2.077,1.2c-.046.026-.05.067-.009.091l1.033.6a.174.174,0,0,0,.157-.005l2.077-1.2C106.505,287.637,106.509,287.6,106.469,287.573Zm.728,1.284-1.033-.6a.173.173,0,0,0-.157.005l-1.329.767c-.046.027-.05.067-.009.091l1.033.6a.174.174,0,0,0,.157-.005l1.329-.767C107.233,288.921,107.238,288.88,107.2,288.857Zm6.534-10.953a.173.173,0,0,0,.157-.005l1.08-.623c.046-.026.05-.067.009-.09l-1.033-.6a.174.174,0,0,0-.157.005l-1.08.623c-.046.027-.05.067-.009.091Zm-3.156,1.822a.174.174,0,0,0,.157-.005l1.08-.623c.046-.026.05-.067.009-.09l-1.033-.6a.174.174,0,0,0-.157.005l-1.08.623c-.046.026-.05.067-.009.091Zm-7,4.041a.174.174,0,0,0,.157-.005l1.08-.623c.046-.027.05-.067.009-.091l-1.033-.6a.174.174,0,0,0-.157.005l-1.08.623c-.046.026-.05.067-.009.091Zm8.577-4.952a.173.173,0,0,0,.157-.005l1.08-.623c.046-.026.05-.067.009-.091l-1.033-.6a.174.174,0,0,0-.157.005l-1.08.623c-.046.026-.05.067-.009.091ZM109,280.637a.174.174,0,0,0,.157-.006l1.08-.623c.046-.026.05-.067.009-.091l-1.033-.6a.175.175,0,0,0-.157.005l-1.08.623c-.046.026-.05.067-.009.091Zm-1.025,8.283a.174.174,0,0,0-.157.005l-1.661.959c-.046.027-.05.067-.009.091l1.033.6a.173.173,0,0,0,.157-.005l1.661-.959c.046-.026.05-.067.009-.091Zm-1.24-6.976a.174.174,0,0,0,.157-.005l1.08-.623c.046-.026.05-.067.009-.091l-1.033-.6a.174.174,0,0,0-.157.005l-1.08.623c-.046.027-.05.067-.009.091Zm-1.578.911a.174.174,0,0,0,.157-.005l1.08-.623c.046-.026.05-.067.009-.09l-1.033-.6a.174.174,0,0,0-.157.005l-1.08.623c-.046.026-.05.067-.009.091Zm32.055-10.816a.173.173,0,0,0-.157.005l-2.658,1.535c-.046.027-.05.067-.009.091l1.033.6a.174.174,0,0,0,.157-.005l2.658-1.535c.046-.026.05-.067.009-.091Zm-3.488,2.014a.174.174,0,0,0-.157.005l-1.08.623c-.046.026-.05.067-.009.091l1.033.6a.174.174,0,0,0,.157-.006l1.08-.623c.046-.026.05-.067.009-.091Zm-21.3,11.871,1.08-.623c.046-.027.05-.067.009-.091l-1.033-.6a.174.174,0,0,0-.157.005l-1.08.623c-.046.027-.05.067-.009.091l1.033.6A.173.173,0,0,0,112.42,285.926Zm18.144-10.049a.174.174,0,0,0-.157.005l-1.08.623c-.046.027-.05.067-.009.091l1.033.6a.174.174,0,0,0,.157-.005l1.08-.623c.046-.026.05-.067.009-.09Zm8.223-4.747a.173.173,0,0,0-.157.005l-1.08.623c-.046.026-.05.067-.009.09l1.033.6a.173.173,0,0,0,.157-.005l1.08-.623c.046-.026.05-.067.009-.091Zm2.611-.315-2.509-1.449a.173.173,0,0,0-.157.005l-1.08.623c-.046.026-.05.067-.009.09l2.509,1.449a.173.173,0,0,0,.157-.005l1.08-.623C141.435,270.879,141.439,270.838,141.4,270.815Zm-16.731,8.467a.173.173,0,0,0-.157.005l-1.329.767c-.046.026-.05.067-.009.091l1.033.6a.174.174,0,0,0,.157-.005l1.329-.767c.046-.026.05-.067.009-.091Zm3.987-2.3a.174.174,0,0,0-.157.005l-1.661.959c-.046.026-.05.067-.009.091l1.033.6a.174.174,0,0,0,.157-.005l1.661-.959c.046-.026.05-.067.009-.091Zm-7.642,4.412a.175.175,0,0,0-.157.005l-8.887,5.131c-.046.026-.05.067-.009.09l1.033.6a.174.174,0,0,0,.157-.005l8.887-5.131c.046-.026.05-.067.009-.091Zm-9.386,5.419a.173.173,0,0,0-.157.005l-1.329.767c-.046.026-.05.067-.009.091l1.033.6a.174.174,0,0,0,.157-.005l1.329-.767c.046-.026.05-.067.009-.09Zm11.213-6.474a.173.173,0,0,0-.157.005l-1.329.767c-.046.026-.05.067-.009.091l1.033.6a.173.173,0,0,0,.157-.005l1.329-.767c.046-.027.05-.067.009-.09Zm-13.04,7.529a.174.174,0,0,0-.157.005l-1.329.767c-.046.026-.05.067-.009.091l1.033.6a.173.173,0,0,0,.157-.005l1.329-.767c.046-.026.05-.067.009-.091Zm16.7-9.639a.174.174,0,0,0-.157.005l-1.329.767c-.046.026-.05.067-.009.09l1.033.6a.173.173,0,0,0,.157-.005l1.329-.767c.046-.026.05-.067.009-.091Zm5.648-3.261a.174.174,0,0,0-.157.005l-1.08.623c-.046.027-.05.067-.009.091l1.033.6a.174.174,0,0,0,.157-.006l1.08-.623c.046-.026.05-.067.009-.091Zm3.535-2.467,1.08-.623c.046-.026.05-.067.009-.091l-1.033-.6a.174.174,0,0,0-.157.005l-1.08.623c-.046.027-.05.067-.009.091l1.033.6A.173.173,0,0,0,135.677,272.5Zm-6.44.31,1.08-.623c.046-.026.05-.067.009-.091l-1.033-.6a.174.174,0,0,0-.157.005l-1.08.623c-.046.026-.05.067-.009.091l1.033.6A.173.173,0,0,0,129.237,272.809Zm-4.192,5.828,3.156-1.822c.046-.026.05-.067.009-.091l-1.033-.6a.174.174,0,0,0-.157.005l-3.156,1.822c-.046.027-.05.067-.009.091l1.033.6A.173.173,0,0,0,125.045,278.637Zm8.9-5.222a.173.173,0,0,0,.157-.005l1.08-.623c.046-.027.05-.067.009-.091l-1.033-.6a.173.173,0,0,0-.157.005l-1.08.623c-.046.026-.05.067-.009.09Zm-1.319-.857,1.08-.623c.046-.026.05-.067.009-.09l-1.033-.6a.173.173,0,0,0-.157.005l-1.08.623c-.046.026-.05.067-.009.091l1.033.6A.174.174,0,0,0,132.623,272.558Zm-9.156,6.99,1.08-.623c.046-.027.05-.067.009-.09l-1.033-.6a.174.174,0,0,0-.157.005l-1.08.623c-.046.027-.05.067-.009.091l1.033.6A.174.174,0,0,0,123.467,279.548Zm6.986-4.119a.174.174,0,0,0,.157-.005l1.08-.623c.046-.026.05-.067.009-.091l-1.033-.6a.173.173,0,0,0-.157.005l-1.08.623c-.046.026-.05.067-.009.091ZM115.577,284.1l1.08-.623c.046-.026.05-.067.009-.091l-1.033-.6a.174.174,0,0,0-.157.005l-1.08.623c-.046.026-.05.067-.009.091l1.033.6A.175.175,0,0,0,115.577,284.1Zm1.578-.911,1.08-.623c.046-.026.05-.067.009-.091l-1.033-.6a.174.174,0,0,0-.157.005l-1.08.623c-.046.026-.05.067-.009.091l1.033.6A.173.173,0,0,0,117.155,283.193ZM114,285.015l1.08-.623c.046-.026.05-.067.009-.091l-1.033-.6a.174.174,0,0,0-.157.005l-1.08.623c-.046.027-.05.067-.009.091l1.033.6A.175.175,0,0,0,114,285.015Zm6.313-3.645,1.08-.623c.046-.026.05-.067.009-.091l-1.033-.6a.174.174,0,0,0-.157.005l-1.08.623c-.046.026-.05.067-.009.09l1.033.6A.174.174,0,0,0,120.311,281.37Zm-1.578.911,1.08-.623c.046-.026.05-.067.009-.091l-1.033-.6a.174.174,0,0,0-.157.005l-1.08.623c-.046.026-.05.067-.009.091l1.033.6A.175.175,0,0,0,118.733,282.282Zm3.156-1.822,1.08-.623c.046-.027.05-.067.009-.091l-1.033-.6a.173.173,0,0,0-.157.005l-1.08.623c-.046.026-.05.067-.009.091l1.033.6A.174.174,0,0,0,121.889,280.459Zm8.612-12.675a.174.174,0,0,0,.157-.005l1.08-.623c.046-.026.05-.067.009-.09l-.275-.159a.175.175,0,0,0-.157.005l-1.08.623c-.046.026-.05.067-.009.091Zm-7.844,4.966a.173.173,0,0,0,.157-.005l1.08-.623c.046-.026.05-.067.009-.091l-1.033-.6a.175.175,0,0,0-.157.005l-1.08.623c-.046.026-.05.067-.009.091Zm3.156-1.822a.173.173,0,0,0,.157-.005l1.08-.623c.046-.026.05-.067.009-.091l-1.033-.6a.173.173,0,0,0-.157.005l-1.08.623c-.046.026-.05.067-.009.091Zm-5.083,2.935a.175.175,0,0,0,.157-.005l1.08-.623c.046-.026.05-.067.009-.091l-1.033-.6a.174.174,0,0,0-.157.006l-1.08.623c-.046.026-.05.067-.009.091Zm3.505-2.024a.174.174,0,0,0,.157-.005l1.08-.623c.046-.027.05-.067.009-.09l-1.033-.6a.173.173,0,0,0-.157.005l-1.08.623c-.046.027-.05.067-.009.091Zm-6.662,3.846a.174.174,0,0,0,.157-.006l1.08-.623c.046-.026.05-.067.009-.091l-1.033-.6a.175.175,0,0,0-.157.005l-1.08.623c-.046.026-.05.067-.009.091Zm1.578-.911a.175.175,0,0,0,.157-.005l1.08-.623c.046-.027.05-.067.009-.091l-1.033-.6a.173.173,0,0,0-.157.005l-1.08.623c-.046.026-.05.067-.009.091Zm8.193-5.168a.174.174,0,0,0,.157-.005l1.08-.623c.046-.026.05-.067.009-.09l-.275-.159a.173.173,0,0,0-.157.005l-1.08.623c-.046.027-.05.067-.009.091Zm4.734-2.733a.174.174,0,0,0,.157-.005l1.08-.623c.046-.027.05-.067.009-.091l-.275-.159a.175.175,0,0,0-.157.006l-1.08.623c-.046.026-.05.067-.009.091Zm2.17,1.253a.173.173,0,0,0,.157-.005l1.08-.623c.046-.027.05-.067.009-.091l-1.033-.6a.174.174,0,0,0-.157.005l-1.08.623c-.046.026-.05.067-.009.09Zm3.006,3.462,1.08-.623c.046-.026.05-.067.009-.091l-1.033-.6a.174.174,0,0,0-.157.005l-1.08.623c-.046.026-.05.067-.009.091l1.033.6A.174.174,0,0,0,137.255,271.588Zm-8.332-2.893a.174.174,0,0,0,.157-.005l1.08-.623c.046-.026.05-.067.009-.091l-.275-.159a.174.174,0,0,0-.157.005l-1.08.623c-.046.026-.05.067-.009.091ZM116,276.6a.174.174,0,0,0,.157-.005l1.08-.623c.046-.026.05-.067.009-.091l-1.033-.6a.173.173,0,0,0-.157.005l-1.08.623c-.046.027-.05.067-.009.091Z" transform="translate(-97.548 -265.226)" fill="#455a64"/>
          </g>
          <g id="Tuch_Pad_00000103238966151829536630000004269211075705393842_" transform="translate(30.328 17.859)">
            <path id="Path_102" data-name="Path 102" d="M205.979,336.111l.235.135,6.236,3.6,11.09-6.4.231-.131-6.471-3.735Z" transform="translate(-205.979 -329.576)" fill="#263238"/>
            <path id="Path_103" data-name="Path 103" d="M224.855,335.193l-6.1-3.518L207.814,338l6.094,3.518Z" transform="translate(-207.437 -331.244)" fill="#37474f"/>
          </g>
        </g>
        <g id="Group_46" data-name="Group 46">
          <path id="Path_104" data-name="Path 104" d="M45.965,139.472c-.451-.208-.573-.566-.616-1.2l-2.017-29.5a2.043,2.043,0,0,1,.95-1.735L81.81,85.371c.568-.328.984-.506,1.508-.147.548.375.535.557.578,1.187l2.017,29.5a2.043,2.043,0,0,1-.95,1.735L47.435,139.316A1.338,1.338,0,0,1,45.965,139.472Z" transform="translate(-43.329 -85.025)" fill="#37474f"/>
          <path id="Path_105" data-name="Path 105" d="M84.858,86.4c-.043-.629-.538-.874-1.106-.548L46.223,107.523a1.944,1.944,0,0,0-.7.755l-.979-.492h0a1.964,1.964,0,0,1,.7-.755L82.771,85.364c.568-.328.986-.509,1.508-.147C84.829,85.6,84.815,85.774,84.858,86.4Z" transform="translate(-44.291 -85.018)" fill="#455a64"/>
          <path id="Path_106" data-name="Path 106" d="M47.361,227.426a1.315,1.315,0,0,1-1.394.112c-.42-.176-.572-.565-.615-1.195l-2.017-29.5a1.824,1.824,0,0,1,.246-.979l.979.489v0a1.855,1.855,0,0,0-.246.979l2.017,29.5A.664.664,0,0,0,47.361,227.426Z" transform="translate(-43.332 -173.091)" fill="#263238"/>
          <path id="Path_107" data-name="Path 107" d="M53.7,119.1,89.815,98.252c.341-.2.638-.049.663.329L92.36,126.1a1.226,1.226,0,0,1-.57,1.041L55.675,147.991c-.341.2-.638.049-.663-.329L53.13,120.138A1.226,1.226,0,0,1,53.7,119.1Z" transform="translate(-51.116 -95.464)"/>
          <path id="Path_108" data-name="Path 108" d="M53.7,120.356a1.226,1.226,0,0,0-.57,1.041l1.85,27.065,35.7-20.606a1.226,1.226,0,0,0,.57-1.041L89.4,99.749Z" transform="translate(-51.116 -96.723)" fill="#fff"/>
        </g>
      </g>
    </g>
    <g id="Character_3" transform="translate(19.331 47.502)">
      <g id="Character_4_">
        <g id="Top_6_">
          <g id="Arm_00000022538555558455619440000015623806769915580586_" transform="translate(23.149 13.558)">
            <path id="Path_109" data-name="Path 109" d="M241.614,168.017c.3-1.478,1.733-2.663,3.429-.134a7.027,7.027,0,0,1,.975,5.067c-.321,1.28-2.12,2.4-3.708.393C240.879,171.535,241.406,169.036,241.614,168.017Z" transform="translate(-227.771 -155.542)" fill="#263238"/>
            <g id="Arm_00000129912934985719949810000005918312489802763929_">
              <path id="Path_110" data-name="Path 110" d="M195.4,119a3.019,3.019,0,0,0-.71-.495.217.217,0,0,1-.083-.079.222.222,0,0,1-.016-.1,8.437,8.437,0,0,1,.961-3c.2-.481.684-1.234.211-1.7a.516.516,0,0,0-.574-.061,1.306,1.306,0,0,0-.449.411,12.672,12.672,0,0,0-1.167,1.972l-.919,1.791a26.548,26.548,0,0,0-1.489,3.256,5.986,5.986,0,0,0-.376,1.621,4.143,4.143,0,0,1-.285,1.671c-.411.8-3.915,4.932-3.915,4.932s-1.67-2.453-2.759-3.962c-2.765-3.83-3.918-6.011-8.564-5.874l1.319,8.18s3.424,4.281,6.186,7.247c2.063,2.216,3.329,3.174,5.444,1.611,1.053-.778,3.017-4.361,4.03-6.46a21.492,21.492,0,0,1,2.354-4l1.149-1.5a5.944,5.944,0,0,0,.882-1.531,3.854,3.854,0,0,0,.274-1.206c.03-.325-.768-.925-.928-1.209-.24-.426-.224-.963-.48-1.379A1.008,1.008,0,0,0,195.4,119Z" transform="translate(-175.262 -113.505)" fill="#c8856a"/>
              <path id="Path_111" data-name="Path 111" d="M262.622,144.485q-.067-.171-.144-.34l-.006-.014c-.047.121-.085.245-.124.369-.043.139.05.272.1.4.056.152.107.306.151.462a4.52,4.52,0,0,1,.165.955,3.776,3.776,0,0,1-.494,2.025c-.013.024.008.107.042.07a2.914,2.914,0,0,0,.7-2.048A5.263,5.263,0,0,0,262.622,144.485Z" transform="translate(-244.393 -137.84)" fill="#af6152"/>
              <g id="Group_47" data-name="Group 47" transform="translate(9.63 15.218)">
                <path id="Path_112" data-name="Path 112" d="M223.834,188.083a5.942,5.942,0,0,0-1.566,3.466s-.711-1.718,1.227-3.961Z" transform="translate(-222.141 -187.588)" fill="#af6152"/>
              </g>
            </g>
            <g id="Fingers" transform="translate(15.49 3.034)">
              <g id="Group_49" data-name="Group 49">
                <path id="Path_113" data-name="Path 113" d="M251.547,131.046c.259-.367.551-.714.819-1.061l.861-1.114c.074-.1.166-.239.3-.247a.439.439,0,0,1,.347.242,1.42,1.42,0,0,1,.1.757,3.535,3.535,0,0,1-.246,1.075c-.246.651-.544,1.283-.741,1.953-.319,1.084-2.314,2.509-2.314,2.509.017-.643.028-1.285.046-1.927a4.147,4.147,0,0,1,.1-.959,1.458,1.458,0,0,1,.3-.657C251.258,131.435,251.416,131.233,251.547,131.046Z" transform="translate(-250.672 -128.551)" fill="#c8856a"/>
                <g id="Group_48" data-name="Group 48" transform="translate(1.694)">
                  <path id="Path_114" data-name="Path 114" d="M258.92,129.707c.289-.434.589-.851.9-1.275.22-.324.612-.1.719.2.361,1.343-.533,2.374-.931,3.589.223-1.224,1.073-2.259.78-3.527-.071-.19-.292-.39-.463-.17-.325.4-.658.8-1,1.186Z" transform="translate(-258.92 -128.273)" fill="#af6152"/>
                </g>
                <path id="Path_115" data-name="Path 115" d="M258.591,145.3a.812.812,0,0,1-.342.26,2.339,2.339,0,0,1-.523.109c-.02,0-.024.047,0,.049l.081,0a1.446,1.446,0,0,0,.575-.07.88.88,0,0,0,.24-.14.611.611,0,0,0,.136-.149,1.726,1.726,0,0,0,.02-.405A1.076,1.076,0,0,1,258.591,145.3Z" transform="translate(-256.263 -141.531)" fill="#af6152"/>
              </g>
              <g id="Group_51" data-name="Group 51" transform="translate(2.948 2.617)">
                <path id="Path_116" data-name="Path 116" d="M267.666,141.047a2.366,2.366,0,0,0-.752.455,4.942,4.942,0,0,0-.657.537,2.414,2.414,0,0,0-.291.427,8.056,8.056,0,0,0-.6,1.164.537.537,0,0,0-.026.441.371.371,0,0,0,.165.148.7.7,0,0,0,.62-.033,1.724,1.724,0,0,0,.487-.415,3.571,3.571,0,0,1,.447-.462,7.021,7.021,0,0,1,.613-.372,1.567,1.567,0,0,0,.7-1.024c.062-.371-.109-.956-.576-.894A.962.962,0,0,0,267.666,141.047Z" transform="translate(-265.247 -141.015)" fill="#c8856a"/>
                <g id="Group_50" data-name="Group 50" transform="translate(0 0.488)">
                  <path id="Path_117" data-name="Path 117" d="M266.691,143.389a2.869,2.869,0,0,0-.976,1.1,4,4,0,0,0-.572,1.337.278.278,0,0,0,.184.234.877.877,0,0,0,.937-.332,3.1,3.1,0,0,1,1.188-.905,3.432,3.432,0,0,0-1.121.969.961.961,0,0,1-1.051.373.4.4,0,0,1-.256-.327,3.652,3.652,0,0,1,.612-1.394,2.672,2.672,0,0,1,1.056-1.056Z" transform="translate(-265.024 -143.389)" fill="#af6152"/>
                </g>
              </g>
              <g id="Group_53" data-name="Group 53" transform="translate(3.02 1.124)">
                <path id="Path_118" data-name="Path 118" d="M266.71,134.259a6.578,6.578,0,0,0-.557.584,1.715,1.715,0,0,0-.5,1.155.457.457,0,0,0,.065.214.384.384,0,0,0,.267.137,1.191,1.191,0,0,0,.976-.326,5.739,5.739,0,0,0,.7-.644,3.021,3.021,0,0,0,.517-.645.664.664,0,0,0-.087-.641.878.878,0,0,0-.436-.32.576.576,0,0,0-.545.12A2.724,2.724,0,0,0,266.71,134.259Z" transform="translate(-265.597 -133.745)" fill="#c8856a"/>
                <g id="Group_52" data-name="Group 52" transform="translate(0 0.514)">
                  <path id="Path_119" data-name="Path 119" d="M266.489,136.246a3.858,3.858,0,0,0-.966,1.4.729.729,0,0,0,.029.518c.263.248.719.11,1-.068a6.718,6.718,0,0,0,.892-.731,4.744,4.744,0,0,1-.841.808c-.353.288-1.256.415-1.223-.253a2.572,2.572,0,0,1,1.112-1.676Z" transform="translate(-265.376 -136.246)" fill="#af6152"/>
                </g>
              </g>
              <g id="Group_55" data-name="Group 55" transform="translate(3.401 4.381)">
                <path id="Path_120" data-name="Path 120" d="M268.965,149.958a4.653,4.653,0,0,0-1.165,1.193,2.655,2.655,0,0,0-.291.48c-.121.3.149.428.4.441a1.59,1.59,0,0,0,.994-.433c.1-.076.185-.158.284-.23a3.433,3.433,0,0,0,.84-.632.936.936,0,0,0,.158-.679.656.656,0,0,0-.1-.308.487.487,0,0,0-.513-.174.965.965,0,0,0-.241.108Q269.143,149.832,268.965,149.958Z" transform="translate(-267.428 -149.601)" fill="#c8856a"/>
                <g id="Group_54" data-name="Group 54" transform="translate(0 0.123)">
                  <path id="Path_121" data-name="Path 121" d="M269.134,150.2a5.235,5.235,0,0,0-1.551,1.551c-.2.286-.445.661.076.735a1.422,1.422,0,0,0,.975-.37c.364-.337.864-.5,1.2-.863a1.9,1.9,0,0,1-.56.485c-.518.317-.95.931-1.63.861-.62-.088-.434-.551-.151-.91a4.465,4.465,0,0,1,1.64-1.489Z" transform="translate(-267.23 -150.2)" fill="#af6152"/>
                </g>
              </g>
            </g>
            <path id="Path_122" data-name="Path 122" d="M180.286,141.168c3.209.356,3.89,1.01,5.469,2.862s4.821,6.576,4.821,6.576l3.028-3.75a6.741,6.741,0,0,0-.459,4.851c.471,2.18,2.527,3.376,3.921,2.007-3.853,4.193-4.77,5.655-6.763,5.664-1.42.007-2.8-1.454-3.9-2.624s-6.115-6.331-6.115-6.331v-9.255Z" transform="translate(-179.254 -135.486)" fill="#37474f"/>
            <path id="Path_123" data-name="Path 123" d="M223.592,184.542a6.467,6.467,0,0,0-1.311,5.224,5.826,5.826,0,0,1,.851-5.889Z" transform="translate(-212.269 -169.422)" fill="#263238"/>
          </g>
          <g id="Head_4_" transform="translate(10.969 3.267)">
            <g id="Head_5_">
              <g id="Group_56" data-name="Group 56">
                <g id="XMLID_892_">
                  <path id="Path_124" data-name="Path 124" d="M120.21,77.211c.007-.866-1.566-3.031-2.243-4.182s-1.414-4.608.733-5.542c-.373-1.881,2.3-3.44,4.7-3.917,3.4-.676,6.217.806,6.978,2.789a3.046,3.046,0,0,1-.388,3.182Z" transform="translate(-117.006 -63.404)" fill="#263238"/>
                  <g id="XMLID_909_" transform="translate(0 3.6)">
                    <path id="Path_125" data-name="Path 125" d="M117.339,89.383a1.545,1.545,0,0,0,1.789-.124l.1,4.325c.193.735,1.791,5.782,6.1,5.466,2.107-.155,1.844-4.281.431-5.373l-.012-.939a8.581,8.581,0,0,0,1.254-.1,2.883,2.883,0,0,0,2.243-2.338c.567-2.01.4-4.791-.112-8.649-1.29-1.011-5.614-1.092-8.344.618.119,2.3-.645,2.929-.645,3.765a2.184,2.184,0,0,1-.5.645c-.426.365-.8-.555-1.118-.961a1.364,1.364,0,0,0-2.372.367C115.559,87.325,116.534,88.862,117.339,89.383Z" transform="translate(-115.968 -80.93)" fill="#c8856a"/>
                  </g>
                  <g id="XMLID_893_" transform="translate(6.845 5.957)">
                    <path id="XMLID_907_" d="M152.693,100.06a.518.518,0,1,1-.517-.54A.526.526,0,0,1,152.693,100.06Z" transform="translate(-151.171 -98.058)" fill="#263238"/>
                    <path id="XMLID_906_" d="M150.456,94.022l-1.076.665a.664.664,0,0,1,.214-.893A.617.617,0,0,1,150.456,94.022Z" transform="translate(-149.289 -93.435)" fill="#263238"/>
                    <path id="XMLID_902_" d="M173.389,93.2l-1.238-.3a.612.612,0,0,1,.749-.477A.669.669,0,0,1,173.389,93.2Z" transform="translate(-167.455 -92.402)" fill="#263238"/>
                    <path id="XMLID_895_" d="M172.91,99.171a.518.518,0,1,1-.516-.54A.526.526,0,0,1,172.91,99.171Z" transform="translate(-167.236 -97.351)" fill="#263238"/>
                    <path id="XMLID_894_" d="M161.98,94.809l.329,3.628,2.023-.528A13.848,13.848,0,0,0,161.98,94.809Z" transform="translate(-159.373 -94.315)" fill="#af6152"/>
                  </g>
                </g>
              </g>
              <g id="Group_57" data-name="Group 57" transform="translate(2.716 7.461)">
                <path id="Path_126" data-name="Path 126" d="M130.754,100.387a2.688,2.688,0,0,0,2.024,3.04c1.181.085,1.7-.6,3.782-.785A4.726,4.726,0,0,1,139,103.1c.551.17.985.031,1.023-.487a23.366,23.366,0,0,0-.042-2.882,27.981,27.981,0,0,1,.229,4.153,4.355,4.355,0,0,1-.9,2.9,5.867,5.867,0,0,1-4.911,1.269c-2.341-.3-3.551-.927-4.033-2.11-.9-2.2-.49-3.845-1.137-5C128.916,100.4,130.754,100.387,130.754,100.387Z" transform="translate(-129.189 -99.728)" fill="#263238"/>
                <path id="Path_127" data-name="Path 127" d="M158.038,117.6c-1.191.083-1.561.334-1.544,1.154.024,1.173.118,1.56.568,1.58.531.024.919.021.908-.311a1.309,1.309,0,0,0-.143-.74c-.2-.206-.143-.244.38-.28.541-.037.524.056.385.231-.1.128-.056.528-.035.757.024.252.089.344.833.2.65-.122.49-.638.387-1.638C159.706,117.884,159.386,117.506,158.038,117.6Z" transform="translate(-150.885 -113.917)" fill="#c8856a"/>
                <path id="XMLID_321_" d="M160.376,119.449l1.6.074a.787.787,0,0,1-.817.787A.839.839,0,0,1,160.376,119.449Z" transform="translate(-153.97 -115.398)" fill="#af6152"/>
                <path id="Path_128" data-name="Path 128" d="M160.751,120.519a.877.877,0,0,0-.191.035.828.828,0,0,0,.747.606.769.769,0,0,0,.255-.034A.734.734,0,0,0,160.751,120.519Z" transform="translate(-154.116 -116.247)" fill="#ffa8a7"/>
              </g>
            </g>
          </g>
          <g id="Chest_7_" transform="translate(6.438 17.781)">
            <path id="Path_129" data-name="Path 129" d="M117.424,163.105,95.964,175.493c-.117-5.3.137-9.082-.3-14.168-.319-3.751-1.59-9.436-1.741-13.5-.093-2.437.217-4.29,1.375-4.794,3.014-1.309,5.624-2.344,6.158-2.724a6.756,6.756,0,0,0,2.178,1.913,7.471,7.471,0,0,0,3.354.966c1.418-.23,1.239-2.568,1.239-2.568l-.006-.537c.19-.02.372-.047.548-.08a16.283,16.283,0,0,1,3.748.453c1.448.706,3.158,2.35,4.173,11.547C116.98,154.609,117.241,159.29,117.424,163.105Z" transform="translate(-93.91 -138.781)" fill="#455a64"/>
            <path id="Path_130" data-name="Path 130" d="M136.959,144.959a8.863,8.863,0,0,1-1.4-1.868c-.537-2.171-1.2-4.3-1.2-4.3a8.624,8.624,0,0,1-2.678-.659,3.7,3.7,0,0,1-2.1-2.406,9.182,9.182,0,0,0,.119-1.251c0-.442.3-.411.3-.411a3.068,3.068,0,0,0,.727,1.643c1.072,1.3,3.189,1.5,3.657,1.574.352.436.944,1.092.944,1.092a9.721,9.721,0,0,0,.382-1.258,1.52,1.52,0,0,0,.858-1.457l-.022-.292c.086-.009.17-.018.254-.031a1.821,1.821,0,0,1,.071.179,2.862,2.862,0,0,1,.1,2.13,1.7,1.7,0,0,1-.9.818s.776,2.627,1.126,4.193A8.278,8.278,0,0,1,136.959,144.959Z" transform="translate(-122.251 -134.062)" fill="#12919f"/>
          </g>
          <g id="Group_58" data-name="Group 58" transform="translate(9.845)">
            <path id="Path_131" data-name="Path 131" d="M112.388,53.561c-.335-1.535.076-3.887,4.241-5.354,4.433-1.562,6.389-.169,6.92.751Z" transform="translate(-111.926 -47.502)" fill="#096b66"/>
            <path id="Path_132" data-name="Path 132" d="M113.915,58.188a32.711,32.711,0,0,1,3.024-3.051c-.728.08-1.428.328-2.155.415a.192.192,0,0,1-.178-.04.18.18,0,0,1-.022-.134,1.188,1.188,0,0,1,.3-.642c-2.528,1.432-2.772,3.289-2.491,4.573l.868-.358C113.477,58.7,113.695,58.441,113.915,58.188Z" transform="translate(-111.927 -53.25)" opacity="0.15"/>
            <path id="Path_133" data-name="Path 133" d="M112.734,61.39c.488-2.543,2.63-5.1,6.734-5.788s5.7,1.405,5.7,1.405-.25-1.251-.646-2.7c-.731-2.676-3.419-4.465-8.731-2.607s-5.889,5.093-4.882,7.661a18.16,18.16,0,0,0,1.181,2.453A1.715,1.715,0,0,1,112.734,61.39Z" transform="translate(-110.494 -50.228)" fill="#e6e6e6"/>
            <path id="Path_134" data-name="Path 134" d="M112.736,74.518c.488-2.543,2.63-5.1,6.734-5.788q.193-.032.379-.056a8.636,8.636,0,0,0-4.319,1.258,9.075,9.075,0,0,1-1.6.856,1.987,1.987,0,0,1-1.745-.125,2.23,2.23,0,0,1-.783-1.894,4.966,4.966,0,0,1,.185-1.312,4.828,4.828,0,0,0-.686,5.031,18.158,18.158,0,0,0,1.181,2.453A1.718,1.718,0,0,1,112.736,74.518Z" transform="translate(-110.496 -63.356)" opacity="0.15"/>
          </g>
          <g id="Group_61" data-name="Group 61" transform="translate(0 22.032)">
            <path id="Path_135" data-name="Path 135" d="M120,223.274c.721-.087,1.846.4,2.16,2.484.4,2.666-.161,4.817-1.974,5.259-1.994.486-2.924-2.745-2.9-4.1S118.244,223.486,120,223.274Z" transform="translate(-106.043 -209.193)" fill="#263238"/>
            <g id="Arm_00000078030488000401496120000009101800903591573903_" transform="translate(0.306 1.026)">
              <path id="Path_136" data-name="Path 136" d="M71.1,159.752c-2.76,1.063-3.487,2.139-4.316,5.12a93.645,93.645,0,0,0-2.726,14.837c1.069,1.462,6.824-3.275,6.824-3.275s1.679-6.442,2.184-8.612S73.686,160.458,71.1,159.752Z" transform="translate(-64.057 -159.752)" fill="#c8856a"/>
              <path id="Path_137" data-name="Path 137" d="M80.983,224.3c-1.573.623-4.332,1.151-5.328,2.853l4.875-1.1C80.732,225.274,80.73,225.291,80.983,224.3Z" transform="translate(-73.273 -211.043)" fill="#af6152"/>
              <path id="Path_138" data-name="Path 138" d="M146.711,206.146c.635-.157,2.583-2.407,2.872-2.983a9.2,9.2,0,0,1,1.2-1.754c.446-.514.643-1.152.46-1.419s-.4-.4-.753-.093a5.4,5.4,0,0,1-1.654,1.081c-.939.413-1.925.822-2.3,2.029A6.993,6.993,0,0,0,146.711,206.146Z" transform="translate(-129.492 -191.51)" fill="#af6152"/>
              <g id="Group_60" data-name="Group 60" transform="translate(0 9.084)">
                <g id="Group_59" data-name="Group 59">
                  <path id="Path_139" data-name="Path 139" d="M82.384,205.641s1.358-.011,1.887.04,1.332.578,1.772.6c.5.021.819-.3.627-.657a5.537,5.537,0,0,0-1.794-1.25,5,5,0,0,0-1.719-.34,6.814,6.814,0,0,0-1.975.027,2.72,2.72,0,0,0-.822,1.106c-.162.316-.809,1.417-1.178,2.029-.3.5-.441.771-1.1.935-.8.2-4.087.819-6.135,1.14-1.52.238-3.9.546-5.463,1.675a4.845,4.845,0,0,0-2.39,3.58c-.15.908-.033,2.957,4.989,2.349,2.648-.321,5.087-1.8,6.792-2.762a24.852,24.852,0,0,1,4.1-2.046,3.136,3.136,0,0,0,1.993-.988,2.814,2.814,0,0,1,1.854-1.378,7.389,7.389,0,0,0,1.359-.316c.441-.188.695-.469.664-.715s-.348-.237-.348-.237a.535.535,0,0,0,.086-.268,1.406,1.406,0,0,0-.017-.386,1.2,1.2,0,0,0,.363-.012c.194-.037.336-.391.359-.584s-.41-.587-.667-.7-1.026-.481-1.264-.545S82.384,205.641,82.384,205.641Z" transform="translate(-64.057 -203.974)" fill="#c8856a"/>
                  <path id="Path_140" data-name="Path 140" d="M155.078,219.549a.371.371,0,0,0,.217-.189,1.074,1.074,0,0,1-.544.019,18.567,18.567,0,0,0-2.042-.449,6.451,6.451,0,0,1-1.621-.123,5.094,5.094,0,0,0,1.628.3,12.508,12.508,0,0,1,2,.451A1.2,1.2,0,0,0,155.078,219.549Z" transform="translate(-133.211 -215.759)" fill="#af6152"/>
                  <path id="Path_141" data-name="Path 141" d="M153.975,224.762c-.238.031-1.325-.043-1.724-.059s-1.051-.1-1.051-.1a4.284,4.284,0,0,0,.858.2c.373.031,1.461.1,1.88.074a1.449,1.449,0,0,0,.8-.247.538.538,0,0,0,.086-.268A1.184,1.184,0,0,1,153.975,224.762Z" transform="translate(-133.3 -220.172)" fill="#af6152"/>
                </g>
              </g>
            </g>
            <path id="Path_142" data-name="Path 142" d="M72.29,163.693c-.4,1.584-1.447,5.834-1.447,5.834l5.678-.686c-.762.092-2.209,1.411-2.137,4.112.1,3.6,2.324,3.63,2.324,3.63S71.85,177.8,69.3,178.239c-1.758.3-4.591.386-5.389,0s-1.6-.811-1.263-3.775a118.458,118.458,0,0,1,2.611-13.5c1.148-4.391,2.413-5.033,5.14-6.2C73.029,155.933,72.788,161.7,72.29,163.693Z" transform="translate(-62.566 -154.759)" fill="#37474f"/>
            <path id="Path_143" data-name="Path 143" d="M84.257,222.955c-2.54.632-4.39,2.166-4.809,4.122,0-2.373,1.816-4.221,5.046-5.078Z" transform="translate(-75.98 -208.187)" fill="#263238"/>
          </g>
        </g>
      </g>
    </g>
    <g id="Speech_Bubble_2" transform="translate(11.964 56.34)">
      <g id="Speech_Bubble_11_" transform="translate(0 0)">
        <g id="Speech_Bubble_00000010308358359051276230000012255497674708306588_">
          <g id="Group_62" data-name="Group 62" transform="translate(10.097 2.86)">
            <path id="Path_144" data-name="Path 144" d="M75.859,108.62l0-3.827,3.219-.339a.3.3,0,0,1,.185.039c.156.092,1.636.948,1.687.978a.3.3,0,0,1,.069.473L77.549,109.6Z" transform="translate(-75.859 -104.452)" fill="#096b66"/>
          </g>
          <g id="Group_63" data-name="Group 63">
            <path id="XMLID_5443_" d="M26.7,105.242V96.625a.6.6,0,0,1,.27-.467l9.657-5.564a.588.588,0,0,1,.538,0l1.5.887a.6.6,0,0,1,.268.47v8.618a.6.6,0,0,1-.27.467L29.012,106.6a.588.588,0,0,1-.538,0l-1.5-.887A.6.6,0,0,1,26.7,105.242Z" transform="translate(-26.704 -90.53)" fill="#12919f"/>
            <path id="XMLID_5442_" d="M28.967,129.209c-.128.049-.226-.022-.226-.177v-8.617a.552.552,0,0,1,.079-.266l-2.044-1.194a.538.538,0,0,0-.073.257v8.618a.6.6,0,0,0,.268.469l1.5.887A.6.6,0,0,0,28.967,129.209Z" transform="translate(-26.703 -113.115)" opacity="0.15"/>
            <path id="Path_145" data-name="Path 145" d="M49.6,99.131l-2.776.293v-2.71c0-.172-.121-.242-.27-.156l-9.657,5.564a.6.6,0,0,0-.27.467v8.618c0,.172.121.242.27.156l9.657-5.564a.6.6,0,0,0,.27-.467v-2.505l3.027-3.185A.3.3,0,0,0,49.6,99.131Z" transform="translate(-34.587 -95.29)" fill="#ba68c8"/>
            <path id="Path_146" data-name="Path 146" d="M49.6,99.131l-2.776.293v-2.71c0-.172-.121-.242-.27-.156l-9.657,5.564a.6.6,0,0,0-.27.467v8.618c0,.172.121.242.27.156l9.657-5.564a.6.6,0,0,0,.27-.467v-2.505l3.027-3.185A.3.3,0,0,0,49.6,99.131Z" transform="translate(-34.587 -95.29)" fill="#096b66"/>
          </g>
        </g>
        <path id="Path_147" data-name="Path 147" d="M44.708,121.653a1.6,1.6,0,0,0-.666,1.273c0,.491.3.716.666.5a1.6,1.6,0,0,0,.666-1.273C45.374,121.666,45.076,121.44,44.708,121.653Zm3.119-1.8a1.6,1.6,0,0,0-.666,1.273c0,.491.3.716.666.5a1.6,1.6,0,0,0,.666-1.273C48.494,119.865,48.2,119.639,47.828,119.852Zm3.119-1.8a1.6,1.6,0,0,0-.666,1.273c0,.491.3.716.666.5a1.6,1.6,0,0,0,.666-1.273C51.613,118.064,51.315,117.838,50.947,118.051Z" transform="translate(-40.48 -112.334)" fill="#fff"/>
      </g>
    </g>
    <g id="Plants" transform="translate(12.609 98.476)">
      <g id="Plants_00000137833607242060916350000011337117835226452913_" transform="translate(0 0)">
        <g id="XMLID_00000111193256558583937510000014842584643172218503_">
          <g id="XMLID_00000007387103854230134580000000377442319842125709_">
            <path id="XMLID_00000146471611150495449010000005454088020873799083_" d="M32.838,315.475l-2.12-1.225a34.134,34.134,0,0,1-.759-9.959c.707-6.632,5.072-9.127,6.732-8.555s2.141,2.5-.606,6.451A21.978,21.978,0,0,0,32.838,315.475Z" transform="translate(-29.842 -295.658)" fill="#ba68c8"/>
          </g>
          <g id="XMLID_00000160908022837976032870000006183183805609906098_" opacity="0.65">
            <path id="XMLID_00000114778939167566710160000013779250433342871432_" d="M32.838,315.475l-2.12-1.225a34.134,34.134,0,0,1-.759-9.959c.707-6.632,5.072-9.127,6.732-8.555s2.141,2.5-.606,6.451A21.978,21.978,0,0,0,32.838,315.475Z" transform="translate(-29.842 -295.658)" fill="#096b66"/>
          </g>
          <g id="XMLID_00000044870987080756037210000010168459549001887105_" transform="translate(1.639 0.972)">
            <path id="XMLID_00000133494207090711498510000000831606696187368070_" d="M38.3,316.659l.02,0a.147.147,0,0,0,.117-.172c-1.162-6.117.975-12.99,3.621-15.85a.147.147,0,0,0-.216-.2c-2.694,2.912-4.873,9.9-3.694,16.1A.147.147,0,0,0,38.3,316.659Z" transform="translate(-37.821 -300.388)" fill="#fff"/>
          </g>
        </g>
        <g id="XMLID_00000168814648595682796260000009685971844774983591_" transform="translate(1.363 6.191)">
          <g id="XMLID_00000023239403745469611710000015274866553443721905_">
            <path id="XMLID_00000051367221144944299640000004525930475673199784_" d="M43.446,342.5c.317.161,1.159-.56,1.394-.735a2.941,2.941,0,0,0,.92-1.17,2.756,2.756,0,0,0,.161-1.665,6.5,6.5,0,0,0-.253-.868l-.288-.841a2.163,2.163,0,0,1-.168-.854,2.244,2.244,0,0,1,1-1.4,2.144,2.144,0,0,0,.979-1.66,2.474,2.474,0,0,0-.693-1.44c-.357-.408-.775-.764-1.1-1.2a1.727,1.727,0,0,1-.409-1.074,1.8,1.8,0,0,1,.2-.694,9.7,9.7,0,0,0,.677-1.405,1.378,1.378,0,0,0-.31-1.442,1.611,1.611,0,0,0-1.224-.24,2.779,2.779,0,0,0-1.1.452c-1.084.676-1.654,2.029-2.813,2.566a11.877,11.877,0,0,1-1.415.422,1.769,1.769,0,0,0-1.14.868c-.391.89.469,1.918.211,2.855-.229.829-1.005,1.18-1.413,1.937A1.745,1.745,0,0,0,36.5,336a5.123,5.123,0,0,0,.541,1.78,16.081,16.081,0,0,0,1.071,1.646S43.4,342.477,43.446,342.5Z" transform="translate(-36.477 -325.795)" fill="#ba68c8"/>
          </g>
          <g id="XMLID_00000028325821952535377800000015202965865402827650_">
            <path id="XMLID_00000128478612901776395260000010153784134171158144_" d="M43.446,342.5c.317.161,1.159-.56,1.394-.735a2.941,2.941,0,0,0,.92-1.17,2.756,2.756,0,0,0,.161-1.665,6.5,6.5,0,0,0-.253-.868l-.288-.841a2.163,2.163,0,0,1-.168-.854,2.244,2.244,0,0,1,1-1.4,2.144,2.144,0,0,0,.979-1.66,2.474,2.474,0,0,0-.693-1.44c-.357-.408-.775-.764-1.1-1.2a1.727,1.727,0,0,1-.409-1.074,1.8,1.8,0,0,1,.2-.694,9.7,9.7,0,0,0,.677-1.405,1.378,1.378,0,0,0-.31-1.442,1.611,1.611,0,0,0-1.224-.24,2.779,2.779,0,0,0-1.1.452c-1.084.676-1.654,2.029-2.813,2.566a11.877,11.877,0,0,1-1.415.422,1.769,1.769,0,0,0-1.14.868c-.391.89.469,1.918.211,2.855-.229.829-1.005,1.18-1.413,1.937A1.745,1.745,0,0,0,36.5,336a5.123,5.123,0,0,0,.541,1.78,16.081,16.081,0,0,0,1.071,1.646S43.4,342.477,43.446,342.5Z" transform="translate(-36.477 -325.795)" fill="#096b66"/>
          </g>
          <g id="XMLID_00000164471493944189315810000017549375264547471004_" transform="translate(3.682 1.138)">
            <path id="XMLID_00000168811309222759153270000014833867528995356326_" d="M54.621,345.305h0a.14.14,0,0,0,.128-.151c-.508-5.5,1.783-11.719,3.583-13.583a.139.139,0,0,0-.2-.193c-1.836,1.9-4.174,8.222-3.66,13.8A.14.14,0,0,0,54.621,345.305Z" transform="translate(-54.403 -331.336)" fill="#fff"/>
          </g>
          <g id="XMLID_00000085954513740817527100000009405219498259893888_" transform="translate(4.301 7.192)">
            <path id="XMLID_00000099634260591253044150000016137458131397268131_" d="M57.56,361.938a.141.141,0,0,0,.041-.008,18.656,18.656,0,0,1,3.968-.847.139.139,0,0,0,.126-.151.135.135,0,0,0-.151-.126,19,19,0,0,0-4.038.863.139.139,0,0,0,.055.269Z" transform="translate(-57.414 -360.805)" fill="#fff"/>
          </g>
        </g>
      </g>
    </g>
    <g id="Character_2" transform="translate(87.179 64.866)">
      <g id="Character_11_">
        <g id="Arm_00000157276269337586582110000003384105086359886991_" transform="translate(12.417 8.464)">
          <path id="Arm_00000163783112332846079810000000689466613859002267_" d="M455.124,182.717l-1.453-3.694.225-4.545a2.185,2.185,0,0,1,2.056,1.552A55.549,55.549,0,0,1,457.6,181.7a7.768,7.768,0,0,1,.168,2.266c-.045.969-.47,2.72-.63,3.674-.074.441-.114.867-.157,1.316a10.156,10.156,0,0,1-.32,1.364,1.263,1.263,0,0,1-.332.57c-.1.1-.245.123-.34.219s-.108.248-.244.33c-.151.092-.337.057-.468.15a4.052,4.052,0,0,1-.4.313.875.875,0,0,0-.344.238c-.082.106-.151.335-.315.332-.184,0-.228-.177-.25-.329a1.4,1.4,0,0,1,.222-.845,7.924,7.924,0,0,1,.464-.8,1.946,1.946,0,0,0,.325-.8c.042-.193,0-.433-.229-.3-.276.153-.556.451-.9.421-.241-.021-.27-.207-.144-.375a6.939,6.939,0,0,0,.557-.873c.168-.31.3-.634.477-.938a4.223,4.223,0,0,1,.317-.456,2.167,2.167,0,0,0,.259-1.408C455.309,185.09,455.185,183.579,455.124,182.717Z" transform="translate(-453.561 -174.224)" fill="#ffa8a7"/>
          <path id="Path_148" data-name="Path 148" d="M453.619,173.24c1.341.117,2.008.969,2.463,2.313.466,1.378,1.149,3.849,1.287,4.5a9.185,9.185,0,0,1,.282,2.418c-.037.967-.679,4.378-.679,4.378a1.389,1.389,0,0,1-1.318.065c-.973-.4-.87-.832-.87-.832l-.006-4.337-1.467-3.663Z" transform="translate(-453.311 -173.24)" fill="#37474f"/>
          <path id="Path_149" data-name="Path 149" d="M462.828,233.212l-.047.015a2.228,2.228,0,0,1-.445.069,2.593,2.593,0,0,1-.878-.1,3.091,3.091,0,0,1-.792-.363c-.065-.042-.128-.085-.19-.13v.224c.115.082.218.147.25.166a2.974,2.974,0,0,0,.846.337,2.792,2.792,0,0,0,.876.064,3.156,3.156,0,0,0,.338-.05C462.8,233.368,462.813,233.292,462.828,233.212Z" transform="translate(-459.004 -220.485)" fill="#12919f"/>
        </g>
        <g id="Bottom_00000170259812862354074720000011860007132670042265_" transform="translate(0 19.412)">
          <g id="Group_64" data-name="Group 64" transform="translate(8.433 22.218)">
            <path id="Path_150" data-name="Path 150" d="M439.892,341.95c0,.255.05.353-.278.584a2.214,2.214,0,0,1-1.58.2,1.469,1.469,0,0,1-.873-.5,6.733,6.733,0,0,1-.507-.728,3.828,3.828,0,0,0-.959-.515,2.964,2.964,0,0,1-1.61-1.256,1.569,1.569,0,0,1-.1-1.185Z" transform="translate(-433.918 -337.755)" fill="#263238"/>
            <path id="Path_151" data-name="Path 151" d="M437.228,335.39c.865.538,1.593,1.889,2.777,1.479a6.163,6.163,0,0,1,.079,2.025,1.852,1.852,0,0,1-2.245.28c-.32-.259-.5-.564-.809-.839a3.127,3.127,0,0,0-.851-.494,9.123,9.123,0,0,1-1.03-.543C433.236,335.956,434.185,333.5,437.228,335.39Z" transform="translate(-434.109 -334.7)" fill="#37474f"/>
          </g>
          <g id="XMLID_1154_" transform="translate(0 26.63)">
            <path id="Path_152" data-name="Path 152" d="M401.474,370.177c0,.276-.019.484-.2.6a10.818,10.818,0,0,1-1.857.364c-.353.039-.4-.182-.651-.1a8.008,8.008,0,0,1-1.688.662,4.661,4.661,0,0,1-2.774,0c-1.2-.377-1.319-.819-1.3-1.206S401.474,370.177,401.474,370.177Z" transform="translate(-392.973 -367.298)" fill="#263238"/>
            <path id="XMLID_1155_" d="M401.191,356.478a5.556,5.556,0,0,1,.174,2.58,4.33,4.33,0,0,1-1.76.453,5.634,5.634,0,0,0-1.871.555c-1.373.545-3.786.744-4.748-.486-.96-1.642,4.036-1.238,4.649-3.139C397.858,355.749,400.283,356.665,401.191,356.478Z" transform="translate(-392.864 -356.178)" fill="#37474f"/>
          </g>
          <g id="XMLID_00000046324673385524109420000007490407692136357278_" transform="translate(3.359)">
            <g id="XMLID_00000127741724150990169770000001345284226044773538_">
              <path id="Path_153" data-name="Path 153" d="M420.42,244.049c-.356-6.984.167-12.072-.47-17.508,0,0-10.488-.271-10.733,2.95,0,0,.167,9.576.334,13.048.18,3.744.6,9.548.686,11.44,1.234,1.483,4.289.856,4.289.856-.016-1.308.381-6.329.325-10.245,0,0,.312-3.839.432-4.926,0,0,.883,8.314,1.169,10.929.638,1.456,3.565,1.641,3.911,1.018C420.365,251.612,420.522,246.048,420.42,244.049Z" transform="translate(-409.218 -226.536)" fill="#ebebeb"/>
              <path id="Path_154" data-name="Path 154" d="M419.359,226.738c.172,0,.311,0,.41,0a78.049,78.049,0,0,1,.315,9.124c-.01,2.541-.021,5.168.134,8.2.094,1.855-.037,6.868-.054,7.485a1.432,1.432,0,0,1-.9.2,2.95,2.95,0,0,1-2.61-1.208c-.287-2.62-1.157-10.814-1.166-10.9l-.2-1.852-.2,1.851c-.113,1.029-.4,4.517-.433,4.93,0,0,0,0,0,0v.017c.036,2.492-.112,5.433-.221,7.581-.055,1.088-.1,1.973-.1,2.491a8.236,8.236,0,0,1-1.254.1,3.581,3.581,0,0,1-2.635-.865c-.039-.85-.139-2.4-.255-4.186-.154-2.385-.328-5.087-.429-7.185-.162-3.38-.327-12.677-.333-13.032.17-2.034,5.244-2.76,9.941-2.76m0-.2c-2.217,0-9.933.2-10.142,2.955,0,0,.167,9.576.334,13.048.18,3.744.6,9.548.686,11.44a3.67,3.67,0,0,0,2.833.987,8.039,8.039,0,0,0,1.456-.132c-.016-1.308.381-6.329.325-10.245h0s.312-3.839.432-4.926c0,0,.883,8.314,1.169,10.929.414.946,1.8,1.355,2.807,1.355.545,0,.983-.119,1.1-.337,0,0,.157-5.564.055-7.563-.356-6.984.167-12.072-.47-17.508,0,0-.218-.005-.59-.005Z" transform="translate(-409.217 -226.536)" fill="#e0e0e0"/>
            </g>
            <g id="Group_65" data-name="Group 65" transform="translate(6.067 5.763)">
              <path id="Path_155" data-name="Path 155" d="M438.751,261.956v-1.849l.385-3.9a5.594,5.594,0,0,0,2.961-1.621,3.857,3.857,0,0,1-2.221,2.184l-.6,4.468.1,4.711Z" transform="translate(-438.751 -254.59)" fill="#e0e0e0"/>
            </g>
            <path id="Path_156" data-name="Path 156" d="M415.718,243.481c-.876-.841-.755-2.6-.677-3.7.006-.092.013-.179.018-.261l-.16-.009c-.005.081-.012.168-.018.26-.083,1.17-.218,3.077.837,3.923Z" transform="translate(-413.673 -236.846)" fill="#263238"/>
          </g>
        </g>
        <g id="Top_00000059997737033882736000000018265246009801386388_" transform="translate(1.288)">
          <g id="Group_66" data-name="Group 66" transform="translate(3.478)">
            <path id="XMLID_00000150798115299482915310000010204022316110481585_" d="M427.659,167.983l.377,2.282,3.349-.372-.552-2.44Z" transform="translate(-425.277 -160.177)" fill="#ffa8a7"/>
            <g id="XMLID_00000052075243818214400220000008242856586195320962_" transform="translate(0 1.403)">
              <g id="XMLID_00000177455493656317596470000016114858063709690301_" transform="translate(0 2.477)">
                <path id="XMLID_00000000937036789064696760000003301608498398135981_" d="M416.949,150.921a10.407,10.407,0,0,0-.886,1.5l.645.317Z" transform="translate(-416.063 -150.921)" fill="#f28f8f"/>
              </g>
              <g id="XMLID_00000026878844273720109820000014164343141339897474_" transform="translate(0.512)">
                <path id="XMLID_5819_" d="M420.45,138.862c-.976-.014-1.539.729-1.628,2.812,0,.082-.111.219-.173.535a4.366,4.366,0,0,0,.324,2.906,2.705,2.705,0,0,0,2.134.347,5.667,5.667,0,0,0,3.217-1.5c.943-1.189,1.318-2.883.5-3.667C423.664,139.186,420.988,138.87,420.45,138.862Z" transform="translate(-418.553 -138.862)" fill="#ffa8a7"/>
              </g>
              <path id="Path_157" data-name="Path 157" d="M420.6,169.3a2.278,2.278,0,0,0,1.536.443l-.094-.356A4.865,4.865,0,0,1,420.6,169.3Z" transform="translate(-419.668 -163.05)" fill="#f28f8f"/>
            </g>
            <g id="XMLID_456_" transform="translate(0.435)">
              <g id="XMLID_816_">
                <g id="XMLID_817_">
                  <path id="XMLID_00000054257232651370214080000008868685104518747071_" d="M420.334,137.123a.176.176,0,0,0,.32.023,2.342,2.342,0,0,1,.307-.431.864.864,0,0,1,.565-.251c.8-.014.7,1.048.347,1.447-.581.653-.967.172-.967.172s-.363,1.052.358,1.579a4.592,4.592,0,0,0,2.1-.166,18.2,18.2,0,0,0,1.381-1.769c.938-1.584.9-3.457.176-3.812a1.867,1.867,0,0,0-1.492-1.651,4.831,4.831,0,0,0-2.5-.121c-.741.111-1.625.536-2.369.023a1.42,1.42,0,0,0,.235,1.279.47.47,0,0,0-.326.881.369.369,0,0,0-.128.451.448.448,0,0,0,.414.25,1.886,1.886,0,0,0,.465-.074,1.343,1.343,0,0,0,1.386.673A1.653,1.653,0,0,0,420.334,137.123Z" transform="translate(-418.183 -132.034)" fill="#263238"/>
                </g>
              </g>
            </g>
          </g>
          <path id="Path_158" data-name="Path 158" d="M424.547,172.006c.7-.632.527-.878.719-1.253a7.216,7.216,0,0,1,3.379-.833,10.923,10.923,0,0,0,.827.743s-.118.381-1.615.743C426.428,171.753,425.864,171.7,424.547,172.006Z" transform="translate(-419.326 -162.105)" fill="#37474f"/>
          <g id="Group_67" data-name="Group 67" transform="translate(2.011 8.27)">
            <path id="Path_159" data-name="Path 159" d="M416.606,172.292c-.824.138-2.311.539-3.093.752a8.353,8.353,0,0,0-1.853.922,11.932,11.932,0,0,0-1.688.859,7.716,7.716,0,0,0-.986,3.574c-.151,2.059.015,12.022.015,12.022s2.474,1.64,6.909.856a8.45,8.45,0,0,0,4.184-2.409s-.155-6.306-.155-7.156c0-2.454.188-4.347.105-5.747s-.97-3.351-1.835-3.479C417.157,172.331,416.606,172.292,416.606,172.292Z" transform="translate(-408.922 -172.292)" fill="#455a64"/>
          </g>
          <g id="Arm_00000173873546277997466760000007231583199483113353_" transform="translate(0 10.542)">
            <path id="Path_160" data-name="Path 160" d="M402.543,198.944a5.12,5.12,0,0,0,.01.863,2.115,2.115,0,0,1-.2.814c-.117.229-.3.417-.411.648a4.307,4.307,0,0,0-.3,1.614.788.788,0,0,1-.184.54.2.2,0,0,1-.212.068.266.266,0,0,1-.115-.159,1.556,1.556,0,0,1-.033.309.481.481,0,0,1-.1.236.192.192,0,0,1-.231.047.328.328,0,0,1-.116-.21.787.787,0,0,1-.193.593.238.238,0,0,1-.2.058c-.111-.025-.119-.127-.138-.222-.027-.135-.066-.268-.1-.4a5.362,5.362,0,0,1-.123-.795c-.009-.134-.022-.29-.025-.427-.006-.357-.009-.607-.009-.607s-.091.463-.119.818a6.741,6.741,0,0,1-.077.882c-.027.124-.215.417-.335.217a.238.238,0,0,1-.025-.084l-.117-.681a2.535,2.535,0,0,1-.029-.926c.026-.246.052-.491.082-.736a2.864,2.864,0,0,1,.165-.746c.14-.339.336-.658.5-.985a3.7,3.7,0,0,0,.461-1.1,10.338,10.338,0,0,0,.281-2.291c.071-.91.165-2.5.229-3.216,0,0,.016-2.693-.03-3.862-.056-1.421-.318-3.238,1.471-4.077a.823.823,0,0,1,.53.323,5.756,5.756,0,0,1,.7,2.65c.154,2.141.1,3.815.093,5a18.357,18.357,0,0,1-.27,2.471C403.078,196.7,402.6,198.571,402.543,198.944Z" transform="translate(-399.132 -184.757)" fill="#ffa8a7"/>
            <path id="Path_161" data-name="Path 161" d="M402.124,263.651l-.034-.83a10.432,10.432,0,0,0-.115,1.145,3.279,3.279,0,0,0,.032.477C402.038,264.091,402.124,263.651,402.124,263.651Z" transform="translate(-401.391 -246.498)" fill="#f28f8f"/>
            <path id="Path_162" data-name="Path 162" d="M405.368,263.889c-.019-.031-.04,0-.032.028a3.875,3.875,0,0,1,.073,1.175,5.669,5.669,0,0,0,.029.617,3.337,3.337,0,0,0,.12.6c.011.031.014-.036.011-.069-.029-.266-.054-.379-.062-.571-.009-.218-.021-.436-.019-.654A2.1,2.1,0,0,0,405.368,263.889Z" transform="translate(-404.06 -247.337)" fill="#f28f8f"/>
            <path id="Path_163" data-name="Path 163" d="M408.255,263.584c-.013-.036-.04,0-.033.028a2.274,2.274,0,0,1,.029.752,4.6,4.6,0,0,0,0,.648,3.7,3.7,0,0,0,.1.638c.009.033.016-.037.014-.072-.018-.281-.039-.4-.039-.6,0-.229,0-.458.008-.687A1.555,1.555,0,0,0,408.255,263.584Z" transform="translate(-406.354 -247.093)" fill="#f28f8f"/>
            <g id="Group_68" data-name="Group 68" transform="translate(1.002)">
              <path id="Path_164" data-name="Path 164" d="M406.483,183.357c-1.2.506-1.945.908-2.115,2.518s.03,5.926.03,5.926l-.39,5.183s.157.51,1.073.732a2.124,2.124,0,0,0,1.58-.2s.8-3.477.973-4.557a22,22,0,0,0,.126-3.929,19.918,19.918,0,0,0-.3-4.177C407.2,183.908,406.836,183.506,406.483,183.357Z" transform="translate(-404.008 -183.357)" fill="#37474f"/>
            </g>
            <path id="Path_165" data-name="Path 165" d="M405.65,245.562a2.653,2.653,0,0,1-.839-.276,1.466,1.466,0,0,1-.518-.464l-.021.28a1.631,1.631,0,0,0,.321.277,2.729,2.729,0,0,0,2.448.224l.061-.272A2.2,2.2,0,0,1,405.65,245.562Z" transform="translate(-403.216 -232.197)" fill="#ba68c8"/>
            <path id="Path_166" data-name="Path 166" d="M405.65,245.562a2.653,2.653,0,0,1-.839-.276,1.466,1.466,0,0,1-.518-.464l-.021.28a1.631,1.631,0,0,0,.321.277,2.729,2.729,0,0,0,2.448.224l.061-.272A2.2,2.2,0,0,1,405.65,245.562Z" transform="translate(-403.216 -232.197)" fill="#12919f"/>
          </g>
          <g id="Group_69" data-name="Group 69" transform="translate(1.274 8.172)">
            <path id="Path_167" data-name="Path 167" d="M405.358,178.156c1.753-.116,3.478.542,5.354,2.26,1.365,1.25,2.737,3.739,3.3,3.364,1.014-.68,1.946-4.426,2.551-5.536a8.465,8.465,0,0,1,1.9-2.243,12.373,12.373,0,0,0-.617-2.328,2.42,2.42,0,0,0-2.217-1.781,7.727,7.727,0,0,0-3.361.291,18.7,18.7,0,0,0-3.231,1.024c-.827.3-2.766,1.062-3.3,1.888S405.358,178.156,405.358,178.156Z" transform="translate(-405.337 -171.816)" fill="#12919f"/>
            <path id="Path_168" data-name="Path 168" d="M418.352,188.62c-.015-.072-.031-.147-.049-.228-1.967,1.527-2.8,3.929-3.716,6.163-.136.331-.276.661-.43.984a.938.938,0,0,1-.123.219c-.076.087-.144.076-.228.007a2.407,2.407,0,0,1-.353-.4c-.407-.53-.793-1.067-1.247-1.56a10.58,10.58,0,0,0-3.1-2.378,8.274,8.274,0,0,0-2.166-.719,6.774,6.774,0,0,0-1.145-.113c-.153,0-.306,0-.46.015,0,.052,0,.1,0,.149l.155,0c.186,0,.373.005.559.017a7.155,7.155,0,0,1,.976.13,8.18,8.18,0,0,1,1.975.676,10.364,10.364,0,0,1,3.1,2.409q.336.374.645.771c.2.262.391.537.6.8.155.191.405.547.7.442a.455.455,0,0,0,.236-.237c.083-.157.153-.323.226-.485.591-1.326,1.056-2.565,1.692-3.871A8.135,8.135,0,0,1,418.352,188.62Z" transform="translate(-405.336 -184.987)" fill="#cee8eb" opacity="0.3"/>
          </g>
        </g>
      </g>
    </g>
    <g id="Character_1" transform="translate(68.238 76.966)">
      <g id="Character_00000047751151165220534790000006481447641843556519_" transform="translate(0)">
        <g id="Bottom_9_" transform="translate(0.53 17.983)">
          <g id="XMLID_00000079464079284842920640000001921181737304662942_" transform="translate(0 26.879)">
            <g id="Group_70" data-name="Group 70">
              <path id="Path_169" data-name="Path 169" d="M303.374,418.276c-.125-.026-.152.351-.125.516a2.177,2.177,0,0,0,1.374,1.052,11.584,11.584,0,0,0,2.72.3,9.522,9.522,0,0,1,1.864.56,2.4,2.4,0,0,0,2.313-.247.569.569,0,0,0,.182-.432c.029-.361,0-.437-.038-.438Z" transform="translate(-303.24 -416.441)" fill="#37474f"/>
              <g id="XMLID_00000177483885882616754900000006566018624585624192_" transform="translate(0.128)">
                <g id="XMLID_00000180347045518491410460000006079525757734484108_">
                  <path id="XMLID_00000098182384763190531760000005199712946767124364_" d="M312.121,411.319a7.016,7.016,0,0,1,.116.765,1.137,1.137,0,0,1-.187.924,1.715,1.715,0,0,1-1.283.431,3.821,3.821,0,0,1-1.568-.346,3.525,3.525,0,0,0-1.334-.41,13.44,13.44,0,0,1-1.9-.136,4.527,4.527,0,0,1-1.352-.451,1.748,1.748,0,0,1-.753-.85,1.272,1.272,0,0,1,.854-1.175,2.856,2.856,0,0,1,1.438-.131c.528.065.918.181,1.39.2a2.315,2.315,0,0,0,.957-.115.925.925,0,0,0,.342-.383c.095-.157.139-.3.291-.3,0,0,2.471.275,2.694.313.254.043.183.386.173.572-.008.16,0,.164-.011.325a2.207,2.207,0,0,0,.076.537C312.088,411.165,312.1,411.242,312.121,411.319Z" transform="translate(-303.864 -409.344)" fill="#455a64"/>
                </g>
              </g>
              <path id="Path_170" data-name="Path 170" d="M316.623,412.3a.331.331,0,0,0-.11-.055c-.211-.057-.4.134-.509.289a1.355,1.355,0,0,0-.149.308.757.757,0,0,0-.056.417c.007.036.029.079.065.074s.046-.044.053-.076a1.627,1.627,0,0,1,.227-.544.659.659,0,0,1,.155-.19.617.617,0,0,1,.229-.109c.034-.008.177.009.15-.058a.088.088,0,0,0-.025-.032Z" transform="translate(-313.21 -411.642)" fill="#fafafa"/>
              <path id="Path_171" data-name="Path 171" d="M320.408,412.871a.407.407,0,0,0-.293.047.586.586,0,0,0-.2.263.894.894,0,0,0-.1.719c.032.07.093.042.123-.014a.983.983,0,0,0,.051-.22,2.033,2.033,0,0,1,.188-.461.746.746,0,0,1,.108-.163.338.338,0,0,1,.106-.078.212.212,0,0,1,.061-.018c.019,0,.04,0,.06,0,0-.03-.029-.052-.058-.061Z" transform="translate(-316.375 -412.139)" fill="#fafafa"/>
              <path id="Path_172" data-name="Path 172" d="M324.276,412.341a.393.393,0,0,0-.2.1.527.527,0,0,0-.107.181,2,2,0,0,0-.139.461.585.585,0,0,0,.042.332c.02.04.059.083.1.069s.05-.086.059-.126c.016-.074.018-.153.027-.228a1.339,1.339,0,0,1,.345-.742.047.047,0,0,0,.017-.037c0-.021-.031-.025-.052-.024A.556.556,0,0,0,324.276,412.341Z" transform="translate(-319.598 -411.715)" fill="#fafafa"/>
              <path id="Path_173" data-name="Path 173" d="M306.216,411.485c-.217-.028-.71.218-1.01.862a3.842,3.842,0,0,0-.269,1.5,2.165,2.165,0,0,1-1.148-.71,1.3,1.3,0,0,1-.261-.418,1.344,1.344,0,0,1,.343-1,2.085,2.085,0,0,1,1.655-.491c.872.052.921.291.921.291Z" transform="translate(-303.469 -410.841)" fill="#fafafa"/>
            </g>
          </g>
          <g id="Group_73" data-name="Group 73" transform="translate(13.74 22.686)">
            <g id="Group_72" data-name="Group 72">
              <path id="XMLID_16854_" d="M380.352,390.481a2.539,2.539,0,0,1-.044.931c-.042.308-.086.61-.11.92a3.566,3.566,0,0,1-.077.561,3.456,3.456,0,0,0-.026.677c-.006.237-.011.473-.014.71a1.279,1.279,0,0,0,0,.3,14.826,14.826,0,0,1-2.115,1.308c-.035.02-.071.036-.111.053a.97.97,0,0,1-1-.234,1.7,1.7,0,0,1,.415-1.867s.078,0,.062-.6c0-.428-.005-.863-.046-1.289a1.808,1.808,0,0,0-.238-.6,1.053,1.053,0,0,1,.014-1.4,2.548,2.548,0,0,1,1.115-.88,1,1,0,0,1,.827-.072c.125.076.184.223.274.339a1.688,1.688,0,0,0,.4.329,1.562,1.562,0,0,1,.652.744C380.339,390.432,380.346,390.457,380.352,390.481Z" transform="translate(-375.377 -388.929)" fill="#455a64"/>
              <path id="XMLID_00000076592033328238611910000000712604670676724918_" d="M372.482,412.7a2.125,2.125,0,0,0-.2.288h0a2.146,2.146,0,0,0-.214,1.58,1.567,1.567,0,0,1-1.359-.72,1.035,1.035,0,0,1,.559-.927,1.467,1.467,0,0,1,.234-.123l.011-.007A1.575,1.575,0,0,1,372.482,412.7Z" transform="translate(-370.588 -407.791)" fill="#fafafa"/>
              <path id="XMLID_16847_" d="M385.752,397.04c.283.11.21.887.031,1.635a3.565,3.565,0,0,0-.185,1.631c.091.622.143.9-.111,1.129a24.913,24.913,0,0,1-2.272,1.171,7.422,7.422,0,0,0,.451-2.337c.053-1.379.145-2.268.785-2.894A1.211,1.211,0,0,1,385.752,397.04Z" transform="translate(-380.527 -395.32)" fill="#263238"/>
              <path id="XMLID_00000180326931783592206980000006794831937494315706_" d="M370.249,400.444a3.763,3.763,0,0,0,1.685.735c.9.1.945-.244,1.04-1.311a8.948,8.948,0,0,1,.552-3.194,1.732,1.732,0,0,1,1.405-.872c.057-.029.333.177.423.3a1.538,1.538,0,0,0-1.179.473,4.3,4.3,0,0,0-.691,2.766c-.026,1.055-.072,2.278-.913,2.407a3.061,3.061,0,0,1-2.291-.7A.426.426,0,0,1,370.249,400.444Z" transform="translate(-370.129 -394.383)" fill="#37474f"/>
              <g id="Group_71" data-name="Group 71" transform="translate(1.798 2.96)">
                <path id="XMLID_00000165232246604059835580000015474838630613610682_" d="M379.171,410.94a.3.3,0,0,0-.125.2.6.6,0,0,0,.305.554c.113.065.211.039.028-.183A1.157,1.157,0,0,1,379.171,410.94Z" transform="translate(-379.011 -409.379)" fill="#fafafa"/>
                <path id="XMLID_00000161597890127318269740000016887691945533582265_" d="M379.278,407.322a.259.259,0,0,0-.076.161.925.925,0,0,0,.37.582c.2.088.091-.13,0-.232A3.977,3.977,0,0,1,379.278,407.322Z" transform="translate(-379.136 -406.504)" fill="#fafafa"/>
                <path id="XMLID_00000019662547169728067630000015087903289649503673_" d="M378.974,403.34a.18.18,0,0,0-.093.132c-.005.086.4.391.528.38s.157-.051,0-.157S378.974,403.34,378.974,403.34Z" transform="translate(-378.881 -403.34)" fill="#fafafa"/>
              </g>
            </g>
          </g>
          <path id="XMLID_00000178164178500814174600000010095084035636033204_" d="M333.552,303.337a57.716,57.716,0,0,1-3.615-5.986,11.844,11.844,0,0,1-1.2-2.9c-.151-.775-.632-2.434-.632-2.434l-.515,3.819a16.038,16.038,0,0,1-.247,4.786c-.412,2.355-.714,5.934-.714,5.934a3.572,3.572,0,0,1-1.637.256,2.3,2.3,0,0,1-1.821-.855s-.377-4.663-.485-7.006c-.193-4.172-.29-5.075-.5-9.868a26.25,26.25,0,0,1,1.35-10.2c2.967,1.345,7,1.092,8.659-.391a13.467,13.467,0,0,1,1.588,5.819c-.056,3-.241,8.817-.241,8.817a13.9,13.9,0,0,1,1.072,3.174c.337,1.519.885,3.4,1.258,5.231A2.634,2.634,0,0,0,333.552,303.337Z" transform="translate(-318.265 -278.489)" fill="#37474f"/>
          <path id="Path_174" data-name="Path 174" d="M335.874,301.531a2.184,2.184,0,0,0-1.774.862,2.954,2.954,0,0,0-.19.255,3.252,3.252,0,0,0-.358.69,57.585,57.585,0,0,1-3.616-5.986,11.866,11.866,0,0,1-1.2-2.9c-.15-.775-.631-2.435-.631-2.435l-.516,3.82a16.05,16.05,0,0,1-.245,4.785c-.413,2.356-.714,5.934-.714,5.934a3.6,3.6,0,0,1-1.638.257,2.3,2.3,0,0,1-1.822-.857s-.376-4.662-.485-7c-.194-4.172-.291-5.076-.5-9.869a26.278,26.278,0,0,1,1.351-10.2c2.967,1.345,7,1.092,8.66-.39a13.475,13.475,0,0,1,1.586,5.818c-.055,3-.241,8.819-.241,8.819a13.79,13.79,0,0,1,1.072,3.173C334.954,297.82,335.5,299.7,335.874,301.531Z" transform="translate(-318.264 -278.491)" fill="#37474f"/>
          <path id="Path_175" data-name="Path 175" d="M359.617,342.466a2.933,2.933,0,0,0-.19.255c-.447-.785-1.175-2.061-1.3-2.287-.243-.447-.487-.9-.728-1.343a35.847,35.847,0,0,1-2.31-4.88,14.041,14.041,0,0,1-.669-2.568,11.673,11.673,0,0,1-.138-1.337,4.12,4.12,0,0,1,.067-1.341c.032-.1.121.014.127.065.051.388.026.785.051,1.175q.024.371.071.742a13.794,13.794,0,0,0,.261,1.383,22.462,22.462,0,0,0,1.859,4.825c.386.766.793,1.519,1.2,2.273q.326.605.647,1.213C358.628,340.757,359.217,341.775,359.617,342.466Z" transform="translate(-343.781 -318.563)" fill="#263238"/>
          <path id="Path_176" data-name="Path 176" d="M326.18,286.984a18.4,18.4,0,0,1,.953-4.253c-.078-.02-.155-.041-.233-.063a16.19,16.19,0,0,0-1.055,4.3c-.731-.168-.867-1.2-.843-1.824a8.248,8.248,0,0,1,.136-1.1c.044-.251.108-.51.153-.77-.21.728-.388,1.421-.534,2.1,0,.028,0,.056,0,.084.037.669.33,1.6,1.061,1.764-.153,1.4-.193,2.819-.222,4.217q-.118,5.618.238,11.231c.109,1.717.211,5.613.437,7.324a3.181,3.181,0,0,0,.325.08c-.111-1.494-.276-5.146-.378-6.641q-.19-2.77-.264-5.547-.077-2.886-.033-5.774C325.949,290.4,325.987,288.683,326.18,286.984Z" transform="translate(-320.337 -281.81)" fill="#263238"/>
          <path id="XMLID_00000044870005553908774220000017809766221412802209_" d="M351.138,314.307l.813-6.393s1.063.073,2.7-1.367a3.4,3.4,0,0,1-2.023,2.058l-.988,5.489.127,2.647Z" transform="translate(-341.299 -300.784)" fill="#263238"/>
        </g>
        <g id="Top_00000074438424706044730330000018170238170710568617_">
          <g id="Arm_00000000945562319317191910000007410309381626586773_" transform="translate(13.477 8.135)">
            <path id="Path_177" data-name="Path 177" d="M366.266,230.548c1.591.183,1.931,1.253,2.221,2.917a49.512,49.512,0,0,1,.713,5.467,51.247,51.247,0,0,1-.69,5.326l-1.9-5.04Z" transform="translate(-366.266 -230.548)" fill="#cee8eb"/>
            <path id="Path_178" data-name="Path 178" d="M366.266,230.548c1.591.183,1.931,1.253,2.221,2.917a49.512,49.512,0,0,1,.713,5.467,51.247,51.247,0,0,1-.69,5.326l-1.9-5.04Z" transform="translate(-366.266 -230.548)" fill="#cee8eb" opacity="0.4"/>
          </g>
          <g id="XMLID_00000031190505600863958480000000654572433149503921_" transform="translate(6.185 0.177)">
            <g id="Group_74" data-name="Group 74">
              <path id="XMLID_00000085959891275099512930000015967944390932481448_" d="M331.7,204.33s-1,1.014-.931,1.129a1.576,1.576,0,0,0,.454.3Z" transform="translate(-330.767 -201.757)" fill="#f0997a"/>
              <path id="XMLID_00000049193558103731215020000002891499635796407984_" d="M335.094,191.881a2.9,2.9,0,0,0-2.248,1.748c-.119.251-.087.678-.188,1-.113.365-.348.75-.41,1.048a3.02,3.02,0,0,0,.245,2.537,3.142,3.142,0,0,0,1.9.446,6.176,6.176,0,0,0,3.451-1.64c1.126-1.251,1.644-3.1.768-4.013A3.885,3.885,0,0,0,335.094,191.881Z" transform="translate(-331.84 -191.802)" fill="#ffbda7"/>
              <path id="Path_179" data-name="Path 179" d="M334.206,223.164a3.344,3.344,0,0,0,1.541.4l.211-.434a6.82,6.82,0,0,1-.936.123A2.685,2.685,0,0,1,334.206,223.164Z" transform="translate(-333.5 -216.698)" fill="#f0997a"/>
            </g>
          </g>
          <path id="Path_180" data-name="Path 180" d="M333.112,246.224a17.612,17.612,0,0,0-1.477-6.775,14.516,14.516,0,0,1-.266-2.344c.22-1.825.89-2.733.191-5.384-.239-.907-.536-1.5-2.26-1.424l-.24.008c-.614.089-1.368.16-3.052.26a9.521,9.521,0,0,0-2.692.465s-.568.207-1.144,3.4c-.154.852-.7,5.223-.7,5.223l-.514,7.766c0,2.885.125,6.531.125,6.531s2.238,1.63,6.715,1.167,5.309-2.544,5.309-2.544S333.191,249.153,333.112,246.224Z" transform="translate(-316.792 -222.207)" fill="#096b66"/>
          <g id="Arm_00000182512524849830219310000000594498104183657382_" transform="translate(0 8.727)">
            <path id="Path_181" data-name="Path 181" d="M305,247.618a5.4,5.4,0,0,0-.169.9,2.227,2.227,0,0,1-.378.8c-.169.213-.393.371-.56.585a4.552,4.552,0,0,0-.645,1.609.831.831,0,0,1-.3.521.214.214,0,0,1-.233.026.281.281,0,0,1-.086-.188,1.632,1.632,0,0,1-.1.313.508.508,0,0,1-.157.223.2.2,0,0,1-.249,0,.347.347,0,0,1-.077-.242.831.831,0,0,1-.323.574.25.25,0,0,1-.216.018c-.11-.049-.1-.156-.1-.258,0-.145-.013-.291-.016-.437a5.652,5.652,0,0,1,.038-.848c.019-.141.037-.3.063-.447.068-.371.117-.631.117-.631s-.19.46-.293.822a7.135,7.135,0,0,1-.263.9c-.053.123-.309.387-.392.155a.255.255,0,0,1-.009-.092q.01-.365.019-.729a3.6,3.6,0,0,1,.034-.475,3.543,3.543,0,0,1,.128-.49c.078-.249.156-.5.237-.745a3.023,3.023,0,0,1,.325-.738c.215-.322.484-.611.721-.916a3.9,3.9,0,0,0,.706-1.048,10.906,10.906,0,0,0,.766-2.314c.263-.927.465-1.835.679-2.559,0,0,.377-2.921.571-4.141.237-1.483.342-3.418,2.368-3.915a.871.871,0,0,1,.482.444,5.223,5.223,0,0,1,.3,2.7c-.285,2.248-.612,4.51-.869,5.734a7.777,7.777,0,0,1-.571,1.563C306.023,245.406,305.138,247.243,305,247.618Z" transform="translate(-300.658 -233.759)" fill="#ffbda7"/>
            <path id="Path_182" data-name="Path 182" d="M304.216,309.787l.137-.866a11.032,11.032,0,0,0-.356,1.161,3.479,3.479,0,0,0-.066.5C304.035,310.225,304.216,309.787,304.216,309.787Z" transform="translate(-303.258 -293.414)" fill="#f0997a"/>
            <path id="Path_183" data-name="Path 183" d="M307.582,310.628c-.013-.036-.043-.005-.038.023a4.1,4.1,0,0,1-.169,1.232,5.988,5.988,0,0,0-.1.645,3.531,3.531,0,0,0,0,.648c0,.034.022-.034.025-.069.026-.281.022-.4.054-.6.036-.227.069-.455.116-.681A2.224,2.224,0,0,0,307.582,310.628Z" transform="translate(-305.904 -294.757)" fill="#f0997a"/>
            <path id="Path_184" data-name="Path 184" d="M310.577,310.913c-.006-.04-.042-.008-.04.022a2.408,2.408,0,0,1-.126.785,4.91,4.91,0,0,0-.131.672,3.917,3.917,0,0,0-.034.68c0,.036.024-.035.029-.072.04-.294.043-.422.084-.631.047-.237.092-.475.15-.709A1.641,1.641,0,0,0,310.577,310.913Z" transform="translate(-308.273 -294.982)" fill="#f0997a"/>
            <g id="Group_75" data-name="Group 75" transform="translate(1.994)">
              <path id="Path_185" data-name="Path 185" d="M315.213,233.428a2.51,2.51,0,0,0-2.427,2.251c-.368,1.577-.865,5.5-.865,5.5l-1.555,5.084s-.019.772,1.224,1.339a2.589,2.589,0,0,0,2.316-.105s.939-3.334,1.245-4.384a22.011,22.011,0,0,0,.611-3.883,19.931,19.931,0,0,0,.221-4.182C315.845,234.079,315.545,233.62,315.213,233.428Z" transform="translate(-310.366 -233.428)" fill="#cee8eb"/>
              <path id="Path_186" data-name="Path 186" d="M315.213,233.428a2.51,2.51,0,0,0-2.427,2.251c-.368,1.577-.865,5.5-.865,5.5l-1.555,5.084s-.019.772,1.224,1.339a2.589,2.589,0,0,0,2.316-.105s.939-3.334,1.245-4.384a22.011,22.011,0,0,0,.611-3.883,19.931,19.931,0,0,0,.221-4.182C315.845,234.079,315.545,233.62,315.213,233.428Z" transform="translate(-310.366 -233.428)" fill="#cee8eb" opacity="0.4"/>
            </g>
          </g>
          <g id="Veil" transform="translate(6.079)">
            <path id="Path_187" data-name="Path 187" d="M339.055,196.279a5.239,5.239,0,0,1-1.184-2.653s.755-.829,1.411-.64Z" transform="translate(-336.306 -192.544)" fill="#263238"/>
            <path id="Path_188" data-name="Path 188" d="M337.592,224.973a9.617,9.617,0,0,0-.966.244.725.725,0,0,1,.045-.622c.153-.273-.353-.524.016-.9a1.931,1.931,0,0,0,.728-.221Z" transform="translate(-335.256 -216.788)" fill="#e0e0e0"/>
            <path id="Path_189" data-name="Path 189" d="M337.8,193.314a3.037,3.037,0,0,0-2.744-2.344,3.973,3.973,0,0,0-2.45.4,10.567,10.567,0,0,0-.34,4.826c.016.151.032.312.049.477.19,2.48-1.473,2.836-2.061,3.169a2.531,2.531,0,0,1,1.567.225c.649.323.861.493,1.544,2.091.6,1.4,1.988,2.654,3.871,1.655,1.9-1.009,1.53-2.765,1.394-4.656A40.516,40.516,0,0,0,337.8,193.314Z" transform="translate(-330.253 -190.943)" fill="#f5f5f5"/>
            <path id="Path_190" data-name="Path 190" d="M353.266,234.2c-.01-.038-.049-.026-.04.012a2.649,2.649,0,0,1,.017.834,4.974,4.974,0,0,1-.1.644,2.61,2.61,0,0,1-.534,1.157,1.969,1.969,0,0,1-2.121.557,2.243,2.243,0,0,1-1.045-.838c-.022-.032-.041.012-.03.034a2.016,2.016,0,0,0,2.067,1.084,2.185,2.185,0,0,0,1.113-.521,2.071,2.071,0,0,0,.655-1.2,6.438,6.438,0,0,0,.085-.839A3,3,0,0,0,353.266,234.2Z" transform="translate(-345.475 -225.298)" fill="#e0e0e0"/>
            <path id="Path_191" data-name="Path 191" d="M350.362,238.33a1.96,1.96,0,0,1-1.972-.047,3.265,3.265,0,0,1-1.337-1.822c-.013-.039-.054-.026-.042.013a3.406,3.406,0,0,0,1.267,1.938,1.776,1.776,0,0,0,2.108-.031C350.4,238.366,350.387,238.315,350.362,238.33Z" transform="translate(-343.566 -227.092)" fill="#e0e0e0"/>
          </g>
        </g>
      </g>
    </g>
    <g id="Speech_Bubble_1" transform="translate(89.718 50.442)">
      <g id="Speech_Bubble_00000144337330640204787440000006804323179057740970_">
        <g id="Speech_Bubble_00000003825248143014162340000010956606720056749499_">
          <path id="Path_192" data-name="Path 192" d="M417.6,69.049a5.117,5.117,0,0,1-1.381,3.5l-.424.4a5.122,5.122,0,0,1-7.231-7.209l.4-.425a5.122,5.122,0,0,1,8.632,3.727Z" transform="translate(-406.909 -63.496)" fill="#fff"/>
          <path id="Path_193" data-name="Path 193" d="M410.78,61.816a5.56,5.56,0,0,0-.909,11.044l.627,1.61a.323.323,0,0,0,.6,0l.622-1.612a5.56,5.56,0,0,0-.942-11.042Zm5.135,5.553a5.117,5.117,0,0,1-1.381,3.5l-.424.4a5.122,5.122,0,0,1-7.231-7.209l.4-.425a5.122,5.122,0,0,1,8.632,3.727Z" transform="translate(-405.228 -61.816)" fill="#455a64"/>
          <path id="Path_194" data-name="Path 194" d="M417.6,69.05a5.117,5.117,0,0,1-1.381,3.5l-.424.4a5.122,5.122,0,0,1-7.231-7.209l.4-.425A5.122,5.122,0,0,1,417.6,69.05Z" transform="translate(-406.909 -63.497)" fill="#fff"/>
        </g>
        <g id="Moon" transform="translate(2.328 2.349)">
          <path id="Path_195" data-name="Path 195" d="M422.974,76.165a2.216,2.216,0,1,1-1.852-2.62,3.212,3.212,0,1,0,1.852,2.62Zm-1.924-1.58-.175.57-.568.179a.109.109,0,0,0-.03.194l.488.342-.005.6a.109.109,0,0,0,.175.088l.476-.358.565.189a.109.109,0,0,0,.138-.139l-.193-.564.355-.479a.109.109,0,0,0-.09-.174l-.6.01-.346-.485A.109.109,0,0,0,421.051,74.585Z" transform="translate(-416.563 -73.249)" fill="#12919f"/>
          <path id="Path_196" data-name="Path 196" d="M422.974,76.165a2.216,2.216,0,1,1-1.852-2.62,3.212,3.212,0,1,0,1.852,2.62Zm-1.924-1.58-.175.57-.568.179a.109.109,0,0,0-.03.194l.488.342-.005.6a.109.109,0,0,0,.175.088l.476-.358.565.189a.109.109,0,0,0,.138-.139l-.193-.564.355-.479a.109.109,0,0,0-.09-.174l-.6.01-.346-.485A.109.109,0,0,0,421.051,74.585Z" transform="translate(-416.563 -73.249)" fill="#12919f" opacity="0.5"/>
        </g>
      </g>
    </g>
  </g>
</svg>
