<?xml version="1.0" encoding="utf-8"?>
<svg width="24px" height="24px" viewBox="0 0 24 24" version="1.1" xmlns:xlink="http://www.w3.org/1999/xlink" xmlns="http://www.w3.org/2000/svg">
  <g id="vuesaxlinearbackward-5-seconds" fill-opacity="1">
    <path d="M2360 3385L2360 3385L2360 3409L2336 3409L2336 3385L2360 3385Z" id="vuesaxlinearbackward-5-seconds" fill="none" stroke="none" />
    <path d="M0 0L24 0L24 24L0 24L0 0Z" id="vuesaxlinearbackward-5-seconds-(Background)" fill="none" fill-rule="evenodd" stroke="none" />
    <g id="vuesaxlinearbackward-5-seconds">
      <g id="backward-5-seconds">
        <path d="M13.91 10.8301L10.85 10.8301L10.09 13.1201L12.38 13.1201C13.22 13.1201 13.91 13.8001 13.91 14.6501C13.91 15.4901 13.23 16.1801 12.38 16.1801L10.09 16.1801" id="Vector" fill="none" stroke="#292D32" stroke-width="1.5" stroke-linecap="round" stroke-linejoin="round" />
        <path d="M10.02 4.46997L12 2" id="Vector" fill="none" stroke="#292D32" stroke-width="1.5" stroke-linecap="round" stroke-linejoin="round" />
        <path d="M4.91 7.79999C3.8 9.27999 3.10999 11.11 3.10999 13.11C3.10999 18.02 7.09 22 12 22C16.91 22 20.89 18.02 20.89 13.11C20.89 8.19999 16.91 4.21997 12 4.21997C11.32 4.21997 10.66 4.31002 10.02 4.46002" id="Vector" fill="none" stroke="#292D32" stroke-width="1.5" stroke-linecap="round" stroke-linejoin="round" />
        <path d="M24 0L24 24L0 24L0 0L24 0Z" id="Vector" fill="none" fill-rule="evenodd" stroke="none" />
      </g>
    </g>
  </g>
</svg>