<?xml version="1.0" encoding="utf-8"?>
<svg width="24px" height="24px" viewBox="0 0 24 24" version="1.1" xmlns:xlink="http://www.w3.org/1999/xlink" xmlns="http://www.w3.org/2000/svg">
  <g id="vuesaxlinearcrown" fill-opacity="1">
    <path d="M-583 2236L-583 2236L-583 2260L-607 2260L-607 2236L-583 2236Z" id="vuesaxlinearcrown" fill="none" stroke="none" />
    <path d="M0 0L24 0L24 24L0 24L0 0Z" id="vuesaxlinearcrown-(Background)" fill="none" fill-rule="evenodd" stroke="none" />
    <g id="vuesaxlinearcrown">
      <g id="crown">
        <path d="M7.30002 18.98C6.88002 18.98 6.41002 18.65 6.27002 18.25L2.13002 6.66999C1.54002 5.00999 2.23002 4.49999 3.65002 5.51999L7.55002 8.30999C8.20002 8.75999 8.94002 8.52999 9.22002 7.79999L10.98 3.10999C11.54 1.60999 12.47 1.60999 13.03 3.10999L14.79 7.79999C15.07 8.52999 15.81 8.75999 16.45 8.30999L20.11 5.69999C21.67 4.57999 22.42 5.14999 21.78 6.95999L17.74 18.27C17.59 18.65 17.12 18.98 16.7 18.98L7.30002 18.98Z" id="Vector" fill="none" stroke="#292D32" stroke-width="1.5" stroke-linecap="round" stroke-linejoin="round" />
        <path d="M6.5 22L17.5 22" id="Vector" fill="none" fill-rule="evenodd" stroke="#292D32" stroke-width="1.5" stroke-linecap="round" stroke-linejoin="round" />
        <path d="M9.5 14L14.5 14" id="Vector" fill="none" fill-rule="evenodd" stroke="#292D32" stroke-width="1.5" stroke-linecap="round" stroke-linejoin="round" />
        <path d="M24 0L24 24L0 24L0 0L24 0Z" id="Vector" fill="none" fill-rule="evenodd" stroke="none" />
      </g>
    </g>
  </g>
</svg>