<?xml version="1.0" encoding="utf-8"?>
<svg width="24px" height="24px" viewBox="0 0 24 24" version="1.1" xmlns:xlink="http://www.w3.org/1999/xlink" xmlns="http://www.w3.org/2000/svg">
  <g id="vuesaxlineardirectbox-send" fill-opacity="1">
    <path d="M1379 3385L1379 3385L1379 3409L1355 3409L1355 3385L1379 3385Z" id="vuesaxlineardirectbox-send" fill="none" stroke="none" />
    <path d="M0 0L24 0L24 24L0 24L0 0Z" id="vuesaxlineardirectbox-send-(Background)" fill="none" fill-rule="evenodd" stroke="none" />
    <g id="vuesaxlineardirectbox-send">
      <g id="directbox-send">
        <path d="M12 8L12 2L10 4" id="Vector" fill="none" stroke="#292D32" stroke-width="1.5" stroke-linecap="round" stroke-linejoin="round" />
        <path d="M12 2L14 4" id="Vector" fill="none" fill-rule="evenodd" stroke="#292D32" stroke-width="1.5" stroke-linecap="round" stroke-linejoin="round" />
        <path d="M3 16L3 17C3 19.76 3 22 8 22L16 22C20 22 21 19.76 21 17L21 16C21 13.79 21 12 17 12C16 12 15.72 12.21 15.2 12.6L14.18 13.68C13 14.94 11 14.94 9.81 13.68L8.8 12.6C8.28 12.21 8 12 7 12C3 12 3 13.79 3 16Z" id="Vector" fill="none" stroke="#292D32" stroke-width="1.5" stroke-linecap="round" stroke-linejoin="round" />
        <path d="M5 12L5 10C5 7.99004 5 6.33004 8 6.04004" id="Vector" fill="none" stroke="#292D32" stroke-width="1.5" stroke-linecap="round" stroke-linejoin="round" />
        <path d="M19 12L19 10C19 7.99004 19 6.33004 16 6.04004" id="Vector" fill="none" stroke="#292D32" stroke-width="1.5" stroke-linecap="round" stroke-linejoin="round" />
        <path d="M24 0L24 24L0 24L0 0L24 0Z" id="Vector" fill="none" fill-rule="evenodd" stroke="none" />
      </g>
    </g>
  </g>
</svg>