<?xml version="1.0" encoding="utf-8"?>
<svg width="24px" height="24px" viewBox="0 0 24 24" version="1.1" xmlns:xlink="http://www.w3.org/1999/xlink" xmlns="http://www.w3.org/2000/svg">
  <g id="vuesaxlineardocument-upload" fill-opacity="1">
    <path d="M-583 3385L-583 3385L-583 3409L-607 3409L-607 3385L-583 3385Z" id="vuesaxlineardocument-upload" fill="none" stroke="none" />
    <path d="M0 0L24 0L24 24L0 24L0 0Z" id="vuesaxlineardocument-upload-(Background)" fill="none" fill-rule="evenodd" stroke="none" />
    <g id="vuesaxlineardocument-upload">
      <g id="document-upload">
        <path d="M9 17L9 11L7 13" id="Vector" fill="none" stroke="#292D32" stroke-width="1.5" stroke-linecap="round" stroke-linejoin="round" />
        <path d="M9 11L11 13" id="Vector" fill="none" fill-rule="evenodd" stroke="#292D32" stroke-width="1.5" stroke-linecap="round" stroke-linejoin="round" />
        <path d="M22 10L22 15C22 20 20 22 15 22L9 22C4 22 2 20 2 15L2 9C2 4 4 2 9 2L14 2" id="Vector" fill="none" stroke="#292D32" stroke-width="1.5" stroke-linecap="round" stroke-linejoin="round" />
        <path d="M18 10C15 10 14 9 14 6L14 2L22 10L18 10Z" id="Vector" fill="none" stroke="#292D32" stroke-width="1.5" stroke-linecap="round" stroke-linejoin="round" />
        <path d="M24 0L24 24L0 24L0 0L24 0Z" id="Vector" fill="none" fill-rule="evenodd" stroke="none" />
      </g>
    </g>
  </g>
</svg>