<?xml version="1.0" encoding="utf-8"?>
<svg width="24px" height="24px" viewBox="0 0 24 24" version="1.1" xmlns:xlink="http://www.w3.org/1999/xlink" xmlns="http://www.w3.org/2000/svg">
  <g id="vuesaxlinearedit" fill-opacity="1">
    <path d="M-583 3385L-583 3385L-583 3409L-607 3409L-607 3385L-583 3385Z" id="vuesaxlinearedit" fill="none" stroke="none" />
    <path d="M0 0L24 0L24 24L0 24L0 0Z" id="vuesaxlinearedit-(Background)" fill="none" fill-rule="evenodd" stroke="none" />
    <g id="vuesaxlinearedit">
      <g id="edit">
        <path d="M11 2L9 2C4 2 2 4 2 9L2 15C2 20 4 22 9 22L15 22C20 22 22 20 22 15L22 13" id="Vector" fill="none" stroke="#292D32" stroke-width="1.5" stroke-linecap="round" stroke-linejoin="round" />
        <path d="M8.16 10.9C7.86 11.2 7.56 11.79 7.5 12.22L7.07 15.23C6.91 16.32 7.68 17.08 8.77 16.93L11.78 16.5C12.2 16.44 12.79 16.14 13.1 15.84L20.98 7.96001C22.34 6.60001 22.98 5.02001 20.98 3.02001C18.98 1.02001 17.4 1.66001 16.04 3.02001L8.16 10.9Z" id="Vector" fill="none" stroke="#292D32" stroke-width="1.5" stroke-linecap="round" stroke-linejoin="round" />
        <path d="M14.91 4.1499C15.58 6.5399 17.45 8.4099 19.85 9.0899" id="Vector" fill="none" stroke="#292D32" stroke-width="1.5" stroke-linecap="round" stroke-linejoin="round" />
        <path d="M24 0L24 24L0 24L0 0L24 0Z" id="Vector" fill="none" fill-rule="evenodd" stroke="none" />
      </g>
    </g>
  </g>
</svg>