<?xml version="1.0" encoding="utf-8"?>
<svg width="24px" height="24px" viewBox="0 0 24 24" version="1.1" xmlns:xlink="http://www.w3.org/1999/xlink" xmlns="http://www.w3.org/2000/svg">
  <g id="vuesaxlinearforward-5-seconds" fill-opacity="1">
    <path d="M2360 3385L2360 3385L2360 3409L2336 3409L2336 3385L2360 3385Z" id="vuesaxlinearforward-5-seconds" fill="none" stroke="none" />
    <path d="M0 0L24 0L24 24L0 24L0 0Z" id="vuesaxlinearforward-5-seconds-(Background)" fill="none" fill-rule="evenodd" stroke="none" />
    <g id="vuesaxlinearforward-5-seconds">
      <g id="forward-5-seconds">
        <path d="M13.98 4.46997L12 2" id="Vector" fill="none" stroke="#292D32" stroke-width="1.5" stroke-linecap="round" stroke-linejoin="round" />
        <path d="M19.0899 7.79999C20.1999 9.27999 20.8899 11.11 20.8899 13.11C20.8899 18.02 16.9099 22 11.9999 22C7.08988 22 3.10986 18.02 3.10986 13.11C3.10986 8.19999 7.08988 4.21997 11.9999 4.21997C12.6799 4.21997 13.3399 4.31002 13.9799 4.46002" id="Vector" fill="none" stroke="#292D32" stroke-width="1.5" stroke-linecap="round" stroke-linejoin="round" />
        <path d="M13.91 10.8301L10.85 10.8301L10.0901 13.1201L12.3801 13.1201C13.2201 13.1201 13.91 13.8001 13.91 14.6501C13.91 15.4901 13.2301 16.1801 12.3801 16.1801L10.0901 16.1801" id="Vector" fill="none" stroke="#292D32" stroke-width="1.5" stroke-linecap="round" stroke-linejoin="round" />
        <path d="M24 0L24 24L0 24L0 0L24 0Z" id="Vector" fill="none" fill-rule="evenodd" stroke="none" />
      </g>
    </g>
  </g>
</svg>