<?xml version="1.0" encoding="utf-8"?>
<svg width="24px" height="24px" viewBox="0 0 24 24" version="1.1" xmlns:xlink="http://www.w3.org/1999/xlink" xmlns="http://www.w3.org/2000/svg">
  <g id="vuesaxlinearnote-favorite" fill-opacity="1">
    <path d="M-583 3385L-583 3385L-583 3409L-607 3409L-607 3385L-583 3385Z" id="vuesaxlinearnote-favorite" fill="none" stroke="none" />
    <path d="M0 0L24 0L24 24L0 24L0 0Z" id="vuesaxlinearnote-favorite-(Background)" fill="none" fill-rule="evenodd" stroke="none" />
    <g id="vuesaxlinearnote-favorite">
      <g id="note-favorite">
        <path d="M8 2L8 5" id="Vector" fill="none" fill-rule="evenodd" stroke="#292D32" stroke-width="1.5" stroke-linecap="round" stroke-linejoin="round" />
        <path d="M16 2L16 5" id="Vector" fill="none" fill-rule="evenodd" stroke="#292D32" stroke-width="1.5" stroke-linecap="round" stroke-linejoin="round" />
        <path d="M21 13.63C20.11 12.92 18.98 12.5 17.75 12.5C16.52 12.5 15.37 12.93 14.47 13.66C13.26 14.61 12.5 16.1 12.5 17.75C12.5 18.73 12.78 19.67 13.26 20.45C13.63 21.06 14.11 21.59 14.68 22L8 22C4.5 22 3 20 3 17L3 8.5C3 5.5 4.5 3.5 8 3.5L16 3.5C19.5 3.5 21 5.5 21 8.5L21 13.63Z" id="Vector" fill="none" stroke="#292D32" stroke-width="1.5" stroke-linecap="round" stroke-linejoin="round" />
        <path d="M7 11L13 11" id="Vector" fill="none" fill-rule="evenodd" stroke="#292D32" stroke-width="1.5" stroke-linecap="round" stroke-linejoin="round" />
        <path d="M7 16L9.62 16" id="Vector" fill="none" fill-rule="evenodd" stroke="#292D32" stroke-width="1.5" stroke-linecap="round" stroke-linejoin="round" />
        <path d="M22.24 20.45C21.96 20.93 21.61 21.35 21.2 21.69C20.28 22.51 19.08 23 17.75 23C16.6 23 15.54 22.63 14.68 22C14.11 21.59 13.63 21.06 13.26 20.45C12.78 19.67 12.5 18.73 12.5 17.75C12.5 16.1 13.26 14.61 14.47 13.66C15.37 12.93 16.52 12.5 17.75 12.5C18.98 12.5 20.11 12.92 21 13.63C22.22 14.59 23 16.08 23 17.75C23 18.73 22.72 19.67 22.24 20.45Z" id="Vector" fill="none" stroke="#292D32" stroke-width="1.5" stroke-linecap="round" stroke-linejoin="round" />
        <path d="M20.25 17.75C18.87 17.75 17.75 16.63 17.75 15.25C17.75 16.63 16.63 17.75 15.25 17.75C16.63 17.75 17.75 18.87 17.75 20.25C17.75 18.87 18.87 17.75 20.25 17.75Z" id="Vector" fill="none" stroke="#292D32" stroke-width="1.5" stroke-linecap="round" stroke-linejoin="round" />
        <path d="M24 0L24 24L0 24L0 0L24 0Z" id="Vector" fill="none" fill-rule="evenodd" stroke="none" />
      </g>
    </g>
  </g>
</svg>