<?xml version="1.0" encoding="utf-8"?>
<svg width="24px" height="24px" viewBox="0 0 24 24" version="1.1" xmlns:xlink="http://www.w3.org/1999/xlink" xmlns="http://www.w3.org/2000/svg">
  <g id="vuesaxlinearpause" fill-opacity="1">
    <path d="M2360 3385L2360 3385L2360 3409L2336 3409L2336 3385L2360 3385Z" id="vuesaxlinearpause" fill="none" stroke="none" />
    <path d="M0 0L24 0L24 24L0 24L0 0Z" id="vuesaxlinearpause-(Background)" fill="none" fill-rule="evenodd" stroke="none" />
    <g id="vuesaxlinearpause">
      <g id="pause">
        <path d="M10.65 4.89C10.65 3.54 10.08 3 8.64 3L5.01 3C3.57 3 3 3.54 3 4.89L3 19.11C3 20.46 3.57 21 5.01 21L8.64 21C10.08 21 10.65 20.46 10.65 19.11L10.65 4.89Z" id="Vector" fill="none" stroke="#292D32" stroke-width="1.5" stroke-linecap="round" stroke-linejoin="round" />
        <path d="M21 4.89C21 3.54 20.43 3 18.99 3L15.36 3C13.93 3 13.35 3.54 13.35 4.89L13.35 19.11C13.35 20.46 13.92 21 15.36 21L18.99 21C20.43 21 21 20.46 21 19.11L21 4.89Z" id="Vector" fill="none" stroke="#292D32" stroke-width="1.5" stroke-linecap="round" stroke-linejoin="round" />
        <path d="M24 0L24 24L0 24L0 0L24 0Z" id="Vector" fill="none" fill-rule="evenodd" stroke="none" />
      </g>
    </g>
  </g>
</svg>