<svg xmlns="http://www.w3.org/2000/svg" width="211.733" height="47.136" viewBox="0 0 211.733 47.136"><defs><style>.a{fill:#0080f9;}</style></defs><g transform="translate(0)"><path class="a" d="M279.86,281.551c-7.283-1-15.036,3.948-17.32,11.054s1.768,13.674,9.047,14.674,15.035-3.946,17.32-11.052-1.766-13.676-9.047-14.676m2.37,13.759a8.023,8.023,0,0,1-8.639,5.439c-3.595-.493-5.591-3.44-4.372-7.227a8.022,8.022,0,0,1,8.639-5.444c3.591.493,5.588,3.444,4.372,7.231" transform="translate(-118.694 -270.969)"/><path class="a" d="M239.321,281.049h-.381a15.954,15.954,0,0,0-10.122,4.242,9.989,9.989,0,0,0-8.6-4.252h-9.3a4.442,4.442,0,0,0-4.375,3.671L202.5,307.655h6.741L212.528,289a1.481,1.481,0,0,1,1.459-1.224h4.266c3.628,0,6.007,3.176,5.316,7.094-.587,3.327-2.223,12.779-2.223,12.779h6.74s1.764-9.981,2.351-13.308c.028-.156.049-.309.072-.464a8.037,8.037,0,0,1,7.047-6.072c3.315.3,5.425,3.348,4.769,7.065-.587,3.327-2.223,12.779-2.223,12.779h6.74l2.35-13.308c1.276-7.231-2.742-13.109-9.869-13.3" transform="translate(-108.3 -270.902)"/><path class="a" d="M155.855,281.039h-6.576c-7.35,0-14.358,5.958-15.653,13.309s3.612,13.306,10.96,13.306a9.768,9.768,0,0,0,7.166-3.343l-.589,3.344h6.74l3.782-21.453a4.4,4.4,0,0,0-4.332-5.163ZM153.5,294.348a8.024,8.024,0,0,1-7.818,6.566c-3.628,0-6.008-2.648-5.316-6.566a8.021,8.021,0,0,1,7.818-6.568h3.86a2.2,2.2,0,0,1,2.167,2.581l-.7,3.972Z" transform="translate(-96.212 -270.902)"/><path class="a" d="M338.815,309.049h-1.083l-.529,3.415h-.571l.529-3.415h-1.083l.082-.526H338.9Zm3.98,3.415h-.571l.51-3.291h-.017l-1.643,3.291h-.361l-.624-3.291h-.017l-.509,3.291h-.571l.61-3.941h.882l.569,2.994,1.479-2.994h.874Z" transform="translate(-131.672 -275.711)"/><path class="a" d="M122.177,281.037l-10.661.011a7.247,7.247,0,0,0-7.465,6.73h14.343s1.931,0,1.525,2.181l-2.473,14.2s3.732-.941,5.034-2.212h0A8.294,8.294,0,0,0,125.434,297l1.624-10.738s.691-4.979-4.882-5.226" transform="translate(-91.074 -270.902)"/><path class="a" d="M98.066,300.923l0-.007L101.6,281.04h-1.555a6.26,6.26,0,0,0-6.165,5.175l-5.562,31.574h6.744l1.8-10.134,0-.012h9.187c8.1,0,8.3-6.719,8.3-6.719Z" transform="translate(-88.322 -270.902)"/><path class="a" d="M173.523,310.448l-.9,6.7s17.541,5.975,21.423-12.984l4.184-23.124h-6.917L189.205,292.7s-1.081,6.74-8.84,7.221c0,0-5.115.482-3.939-6.109l2.281-12.78h-6.916l-2.406,13.31s-1.89,9.207,5.665,12.328c0,0,7.392,3.232,11.914-2.881,0,0,.279,10.149-13.442,6.652" transform="translate(-102.469 -270.902)"/><path class="a" d="M303.347,298.773l5.341-30.021h-1.553a6.264,6.264,0,0,0-6.169,5.177L295.405,305.5l15.843-.008c8.1,0,8.3-6.719,8.3-6.719Z" transform="translate(-124.556 -268.752)"/><path class="a" d="M326.966,281.037l-10.661.011a7.248,7.248,0,0,0-7.466,6.73h14.344s1.931,0,1.525,2.181l-2.472,14.2s3.732-.941,5.034-2.212h0A8.289,8.289,0,0,0,330.222,297l1.625-10.739s.69-4.979-4.882-5.226" transform="translate(-126.906 -270.902)"/></g></svg>