<?xml version="1.0" encoding="utf-8"?>
<svg width="24px" height="24px" viewBox="0 0 24 24" version="1.1" xmlns:xlink="http://www.w3.org/1999/xlink" xmlns="http://www.w3.org/2000/svg">
  <g id="vuesaxlinearsend" fill-opacity="1">
    <path d="M-583 2236L-583 2236L-583 2260L-607 2260L-607 2236L-583 2236Z" id="vuesaxlinearsend" fill="none" stroke="none" />
    <path d="M0 0L24 0L24 24L0 24L0 0Z" id="vuesaxlinearsend-(Background)" fill="none" fill-rule="evenodd" stroke="none" />
    <g id="vuesaxlinearsend">
      <g id="send">
        <path d="M18.07 8.51001C21.91 10.43 21.91 13.57 18.07 15.49L9.51002 19.77C3.75002 22.65 1.40002 20.29 4.28002 14.54L5.15002 12.81C5.37002 12.37 5.37002 11.64 5.15002 11.2L4.28002 9.46001C1.40002 3.71001 3.76002 1.35001 9.51002 4.23001L18.07 8.51001Z" id="Vector" fill="none" stroke="#292D32" stroke-width="1.5" stroke-linecap="round" stroke-linejoin="round" />
        <path d="M5.44 12L10.84 12" id="Vector" fill="none" stroke="#292D32" stroke-width="1.5" stroke-linecap="round" stroke-linejoin="round" />
        <path d="M24 0L24 24L0 24L0 0L24 0Z" id="Vector" fill="none" fill-rule="evenodd" stroke="none" />
      </g>
    </g>
  </g>
</svg>