<?xml version="1.0" encoding="utf-8"?>
<svg width="24px" height="24px" viewBox="0 0 24 24" version="1.1" xmlns:xlink="http://www.w3.org/1999/xlink" xmlns="http://www.w3.org/2000/svg">
  <g id="vuesaxlinearstar" fill-opacity="1">
    <path d="M-583 1243L-583 1243L-583 1267L-607 1267L-607 1243L-583 1243Z" id="vuesaxlinearstar" fill="none" stroke="none" />
    <path d="M0 0L24 0L24 24L0 24L0 0Z" id="vuesaxlinearstar-(Background)" fill="none" fill-rule="evenodd" stroke="none" />
    <g id="vuesaxlinearstar">
      <g id="star">
        <path d="M15.49 7.03001C15.73 7.52001 16.37 7.99001 16.91 8.08002L20.1 8.61001C22.14 8.95001 22.62 10.43 21.15 11.89L18.67 14.37C18.25 14.79 18.02 15.6 18.15 16.18L18.86 19.25C19.42 21.68 18.13 22.62 15.98 21.35L12.99 19.58C12.45 19.26 11.56 19.26 11.01 19.58L8.01997 21.35C5.87997 22.62 4.57997 21.67 5.13997 19.25L5.84997 16.18C5.97997 15.6 5.74997 14.79 5.32997 14.37L2.84997 11.89C1.38997 10.43 1.85997 8.95001 3.89997 8.61001L7.08997 8.08002C7.61997 7.99001 8.25997 7.52001 8.49997 7.03001L10.26 3.51001C11.22 1.60001 12.78 1.60001 13.73 3.51001L15.49 7.03001Z" id="Vector" fill="none" stroke="#292D32" stroke-width="1.5" stroke-linecap="round" stroke-linejoin="round" />
        <path d="M24 0L24 24L0 24L0 0L24 0Z" id="Vector" fill="none" fill-rule="evenodd" stroke="none" />
      </g>
    </g>
  </g>
</svg>