<?xml version="1.0" encoding="utf-8"?>
<svg width="24px" height="24px" viewBox="0 0 24 24" version="1.1" xmlns:xlink="http://www.w3.org/1999/xlink" xmlns="http://www.w3.org/2000/svg">
  <g id="vuesaxlineartrash" fill-opacity="1">
    <path d="M-583 2236L-583 2236L-583 2260L-607 2260L-607 2236L-583 2236Z" id="vuesaxlineartrash" fill="none" stroke="none" />
    <path d="M0 0L24 0L24 24L0 24L0 0Z" id="vuesaxlineartrash-(Background)" fill="none" fill-rule="evenodd" stroke="none" />
    <g id="vuesaxlineartrash">
      <g id="trash">
        <path d="M21 5.97998C17.67 5.64998 14.32 5.47998 10.98 5.47998C9 5.47998 7.02 5.57998 5.04 5.77998L3 5.97998" id="Vector" fill="none" stroke="#292D32" stroke-width="1.5" stroke-linecap="round" stroke-linejoin="round" />
        <path d="M8.5 4.97L8.72 3.66C8.88 2.71 9 2 10.69 2L13.31 2C15 2 15.13 2.75 15.28 3.67L15.5 4.97" id="Vector" fill="none" stroke="#292D32" stroke-width="1.5" stroke-linecap="round" stroke-linejoin="round" />
        <path d="M18.85 9.14001L18.2 19.21C18.09 20.78 18 22 15.21 22L8.79002 22C6.00002 22 5.91002 20.78 5.80002 19.21L5.15002 9.14001" id="Vector" fill="none" stroke="#292D32" stroke-width="1.5" stroke-linecap="round" stroke-linejoin="round" />
        <path d="M10.33 16.5L13.66 16.5" id="Vector" fill="none" stroke="#292D32" stroke-width="1.5" stroke-linecap="round" stroke-linejoin="round" />
        <path d="M9.5 12.5L14.5 12.5" id="Vector" fill="none" stroke="#292D32" stroke-width="1.5" stroke-linecap="round" stroke-linejoin="round" />
        <path d="M24 0L24 24L0 24L0 0L24 0Z" id="Vector" fill="none" fill-rule="evenodd" stroke="none" />
      </g>
    </g>
  </g>
</svg>