<?xml version="1.0" encoding="utf-8"?>
<svg width="24px" height="24px" viewBox="0 0 24 24" version="1.1" xmlns:xlink="http://www.w3.org/1999/xlink" xmlns="http://www.w3.org/2000/svg">
  <g id="vuesaxlinearvolume-cross" fill-opacity="1">
    <path d="M2360 3385L2360 3385L2360 3409L2336 3409L2336 3385L2360 3385Z" id="vuesaxlinearvolume-cross" fill="none" stroke="none" />
    <path d="M0 0L24 0L24 24L0 24L0 0Z" id="vuesaxlinearvolume-cross-(Background)" fill="none" fill-rule="evenodd" stroke="none" />
    <g id="vuesaxlinearvolume-cross">
      <g id="volume-cross">
        <path d="M2 14.1595C2 16.1595 3 17.1595 5 17.1595L6.43 17.1595C6.8 17.1595 7.17 17.2695 7.49 17.4595L10.41 19.2895C12.93 20.8695 15 19.7195 15 16.7495L15 7.56946C15 4.58946 12.93 3.44946 10.41 5.02946L7.49 6.85946C7.17 7.04946 6.8 7.15946 6.43 7.15946L5 7.15946C3 7.15946 2 8.15946 2 10.1595L2 14.1595Z" id="Vector" fill="none" stroke="#292D32" stroke-width="1.5" />
        <path d="M22 14.1194L18.04 10.1594" id="Vector" fill="none" fill-rule="evenodd" stroke="#292D32" stroke-width="1.5" stroke-linecap="round" stroke-linejoin="round" />
        <path d="M21.96 10.1995L18 14.1595" id="Vector" fill="none" fill-rule="evenodd" stroke="#292D32" stroke-width="1.5" stroke-linecap="round" stroke-linejoin="round" />
        <path d="M24 0L24 24L0 24L0 0L24 0Z" id="Vector" fill="none" fill-rule="evenodd" stroke="none" />
      </g>
    </g>
  </g>
</svg>